<svg width="1259" height="566" viewBox="0 0 1259 566" fill="none" xmlns="http://www.w3.org/2000/svg">
<path d="M12.65 104L17.65 88.2V104H20.2V85.875H15.925L11.3 100.975L6.675 85.875H2.4V104H4.95V88.2L9.95 104H12.65ZM36.2824 98.025C36.5574 93.75 34.1324 90.325 30.0074 90.325C26.3324 90.325 23.4824 93.025 23.4824 97.3C23.4824 101.275 25.8324 104.325 30.0824 104.325C33.3574 104.325 35.5074 102.4 36.1074 100.1H33.7574C33.1824 101.425 32.0824 102.325 30.0824 102.325C28.1074 102.325 26.0074 100.925 25.9324 98.025H36.2824ZM30.0074 92.275C32.4324 92.275 33.8074 94.175 33.8824 96.075H25.9574C26.1574 93.375 28.0074 92.275 30.0074 92.275ZM48.4467 92.525V90.55H36.9717V92.525H41.5717V104H43.8467V92.525H48.4467ZM58.3951 98.375C58.3951 101.55 56.3701 102.525 54.2451 102.525C52.6201 102.525 51.6451 101.675 51.6451 100.4C51.6451 98.55 54.2701 97.925 58.3951 97.525V98.375ZM53.7451 104.325C56.1451 104.325 57.5201 103.55 58.3451 102.15C58.3701 102.95 58.4451 103.5 58.5201 104H60.8201C60.5451 102.725 60.4451 101.2 60.4701 98.925L60.4951 95.825C60.5201 92.025 58.8701 90.275 55.1451 90.275C52.5451 90.275 49.9451 91.9 49.7451 94.8H52.0951C52.1951 93.125 53.2701 92.125 55.1701 92.125C56.8701 92.125 58.2201 92.925 58.2201 95.4V95.725C52.7201 96.325 49.1201 97.275 49.1201 100.45C49.1201 102.925 51.2201 104.325 53.7451 104.325ZM72.16 85.875H69.885V90.575C65.985 90.575 62.96 92.75 62.96 97.325C62.96 102.05 65.985 104.125 69.885 104.125V108.375H72.16V104.125C76.035 104.125 79.085 102.05 79.085 97.325C79.085 92.75 76.085 90.575 72.16 90.575V85.875ZM69.885 102.175C67.21 102.175 65.385 100.675 65.385 97.4C65.385 94.1 67.285 92.525 69.885 92.525V102.175ZM72.16 92.525C74.835 92.525 76.66 94.1 76.66 97.4C76.66 100.675 74.76 102.175 72.16 102.175V92.525ZM83.5014 97.325C83.5014 93.65 85.4514 92.325 87.5264 92.325C89.6014 92.325 91.5514 93.725 91.5514 97.325C91.5514 100.775 89.6014 102.325 87.5264 102.325C85.4514 102.325 83.5014 100.925 83.5014 97.325ZM87.5264 90.325C84.4014 90.325 81.0764 92.45 81.0764 97.325C81.0764 102.2 84.4014 104.325 87.5264 104.325C90.6514 104.325 93.9764 102.2 93.9764 97.325C93.9764 92.45 90.6514 90.325 87.5264 90.325ZM96.8225 90.55V108.375H99.0975V101.975C99.9225 103.4 101.322 104.325 103.497 104.325C106.597 104.325 109.247 101.8 109.247 97.325C109.247 92.925 106.597 90.325 103.497 90.325C101.322 90.325 99.9225 91.25 99.0975 92.675V90.55H96.8225ZM98.9975 97.325C98.9975 93.775 100.897 92.275 102.922 92.275C105.247 92.275 106.772 94.1 106.772 97.325C106.772 100.55 105.247 102.375 102.922 102.375C100.897 102.375 98.9975 100.875 98.9975 97.325ZM121.282 104H123.557V90.55H121.282L114.332 100.7V90.55H112.057V104H114.332L121.282 93.85V104ZM137.313 104V90.55H135.038V96.675C133.788 96.975 132.738 97.125 131.863 97.125C129.963 97.125 129.013 96.45 129.013 94.45V90.55H126.738V94.925C126.738 97.85 128.213 99.1 131.038 99.1C132.263 99.1 133.463 98.925 135.038 98.55V104H137.313ZM152.358 104V90.55H150.083V96.15H143.433V90.55H141.158V104H143.433V98.125H150.083V104H152.358ZM157.622 97.325C157.622 93.65 159.572 92.325 161.647 92.325C163.722 92.325 165.672 93.725 165.672 97.325C165.672 100.775 163.722 102.325 161.647 102.325C159.572 102.325 157.622 100.925 157.622 97.325ZM161.647 90.325C158.522 90.325 155.197 92.45 155.197 97.325C155.197 102.2 158.522 104.325 161.647 104.325C164.772 104.325 168.097 102.2 168.097 97.325C168.097 92.45 164.772 90.325 161.647 90.325ZM182.889 98.025C183.164 93.75 180.739 90.325 176.614 90.325C172.939 90.325 170.089 93.025 170.089 97.3C170.089 101.275 172.439 104.325 176.689 104.325C179.964 104.325 182.114 102.4 182.714 100.1H180.364C179.789 101.425 178.689 102.325 176.689 102.325C174.714 102.325 172.614 100.925 172.539 98.025H182.889ZM176.614 92.275C179.039 92.275 180.414 94.175 180.489 96.075H172.564C172.764 93.375 174.614 92.275 176.614 92.275Z" fill="black"/>
<path d="M1179.52 110H1182.07V94.075H1187.97V91.875H1173.62V94.075H1179.52V110ZM1189.33 103.325C1189.33 99.65 1191.28 98.325 1193.35 98.325C1195.43 98.325 1197.38 99.725 1197.38 103.325C1197.38 106.775 1195.43 108.325 1193.35 108.325C1191.28 108.325 1189.33 106.925 1189.33 103.325ZM1193.35 96.325C1190.23 96.325 1186.9 98.45 1186.9 103.325C1186.9 108.2 1190.23 110.325 1193.35 110.325C1196.48 110.325 1199.8 108.2 1199.8 103.325C1199.8 98.45 1196.48 96.325 1193.35 96.325ZM1212.55 110V96.55H1210.27V102.675C1209.02 102.975 1207.97 103.125 1207.1 103.125C1205.2 103.125 1204.25 102.45 1204.25 100.45V96.55H1201.97V100.925C1201.97 103.85 1203.45 105.1 1206.27 105.1C1207.5 105.1 1208.7 104.925 1210.27 104.55V110H1212.55ZM1227.59 110V96.55H1225.32V102.15H1218.67V96.55H1216.39V110H1218.67V104.125H1225.32V110H1227.59ZM1232.86 103.325C1232.86 99.65 1234.81 98.325 1236.88 98.325C1238.96 98.325 1240.91 99.725 1240.91 103.325C1240.91 106.775 1238.96 108.325 1236.88 108.325C1234.81 108.325 1232.86 106.925 1232.86 103.325ZM1236.88 96.325C1233.76 96.325 1230.43 98.45 1230.43 103.325C1230.43 108.2 1233.76 110.325 1236.88 110.325C1240.01 110.325 1243.33 108.2 1243.33 103.325C1243.33 98.45 1240.01 96.325 1236.88 96.325ZM1258.12 104.025C1258.4 99.75 1255.97 96.325 1251.85 96.325C1248.17 96.325 1245.32 99.025 1245.32 103.3C1245.32 107.275 1247.67 110.325 1251.92 110.325C1255.2 110.325 1257.35 108.4 1257.95 106.1H1255.6C1255.02 107.425 1253.92 108.325 1251.92 108.325C1249.95 108.325 1247.85 106.925 1247.77 104.025H1258.12ZM1251.85 98.275C1254.27 98.275 1255.65 100.175 1255.72 102.075H1247.8C1248 99.375 1249.85 98.275 1251.85 98.275Z" fill="black"/>
<path d="M14.475 167.875V175.575H4.95V167.875H2.4V186H4.95V177.775H14.475V186H17.025V167.875H14.475ZM33.1086 180.025C33.3836 175.75 30.9586 172.325 26.8336 172.325C23.1586 172.325 20.3086 175.025 20.3086 179.3C20.3086 183.275 22.6586 186.325 26.9086 186.325C30.1836 186.325 32.3336 184.4 32.9336 182.1H30.5836C30.0086 183.425 28.9086 184.325 26.9086 184.325C24.9336 184.325 22.8336 182.925 22.7586 180.025H33.1086ZM26.8336 174.275C29.2586 174.275 30.6336 176.175 30.7086 178.075H22.7836C22.9836 175.375 24.8336 174.275 26.8336 174.275ZM37.4564 179.325C37.4564 175.65 39.4064 174.325 41.4814 174.325C43.5564 174.325 45.5064 175.725 45.5064 179.325C45.5064 182.775 43.5564 184.325 41.4814 184.325C39.4064 184.325 37.4564 182.925 37.4564 179.325ZM41.4814 172.325C38.3564 172.325 35.0314 174.45 35.0314 179.325C35.0314 184.2 38.3564 186.325 41.4814 186.325C44.6064 186.325 47.9314 184.2 47.9314 179.325C47.9314 174.45 44.6064 172.325 41.4814 172.325ZM60.6775 186V172.55H58.4025V178.675C57.1525 178.975 56.1025 179.125 55.2275 179.125C53.3275 179.125 52.3775 178.45 52.3775 176.45V172.55H50.1025V176.925C50.1025 179.85 51.5775 181.1 54.4025 181.1C55.6275 181.1 56.8275 180.925 58.4025 180.55V186H60.6775ZM76.2727 180.025C76.5477 175.75 74.1227 172.325 69.9977 172.325C66.3227 172.325 63.4727 175.025 63.4727 179.3C63.4727 183.275 65.8227 186.325 70.0727 186.325C73.3477 186.325 75.4977 184.4 76.0977 182.1H73.7477C73.1727 183.425 72.0727 184.325 70.0727 184.325C68.0977 184.325 65.9977 182.925 65.9227 180.025H76.2727ZM69.9977 174.275C72.4227 174.275 73.7977 176.175 73.8727 178.075H65.9477C66.1477 175.375 67.9977 174.275 69.9977 174.275ZM79.0734 172.55V186H85.3234C88.1984 186 90.3734 184.875 90.3734 182.075C90.3734 180.275 89.3484 179.325 87.9484 178.925C89.1984 178.4 89.8234 177.4 89.8234 175.975C89.8234 173.25 87.6234 172.55 84.9234 172.55H79.0734ZM81.3484 178.2V174.525H84.6984C86.3984 174.525 87.4484 174.825 87.4484 176.225C87.4484 177.75 86.4484 178.2 84.7734 178.2H81.3484ZM81.3484 180.075H84.8984C86.9984 180.075 87.9984 180.55 87.9984 182.05C87.9984 183.45 86.9734 184.025 84.9734 184.025H81.3484V180.075ZM102.263 186H104.538V172.55H102.263L95.3133 182.7V172.55H93.0383V186H95.3133L102.263 175.85V186ZM120.97 184.025H119.095V172.55H110.02L109.845 176.875C109.645 182.025 108.845 184.025 107.32 184.025H106.72V188.975H108.92V186H118.77V188.975H120.97V184.025ZM116.82 184.025H110.27C111.32 183.025 111.895 181.075 112.095 177.1L112.22 174.525H116.82V184.025ZM134.463 186V172.55H132.188V178.15H125.538V172.55H123.263V186H125.538V180.125H132.188V186H134.463ZM139.727 179.325C139.727 175.65 141.677 174.325 143.752 174.325C145.827 174.325 147.777 175.725 147.777 179.325C147.777 182.775 145.827 184.325 143.752 184.325C141.677 184.325 139.727 182.925 139.727 179.325ZM143.752 172.325C140.627 172.325 137.302 174.45 137.302 179.325C137.302 184.2 140.627 186.325 143.752 186.325C146.877 186.325 150.202 184.2 150.202 179.325C150.202 174.45 146.877 172.325 143.752 172.325ZM164.993 180.025C165.268 175.75 162.843 172.325 158.718 172.325C155.043 172.325 152.193 175.025 152.193 179.3C152.193 183.275 154.543 186.325 158.793 186.325C162.068 186.325 164.218 184.4 164.818 182.1H162.468C161.893 183.425 160.793 184.325 158.793 184.325C156.818 184.325 154.718 182.925 154.643 180.025H164.993ZM158.718 174.275C161.143 174.275 162.518 176.175 162.593 178.075H154.668C154.868 175.375 156.718 174.275 158.718 174.275Z" fill="black"/>
<path d="M1066.51 189H1069.56L1062.31 179.45L1069.31 170.875H1066.24L1060.14 178.55H1058.31V170.875H1055.76V189H1058.31V180.75H1060.21L1066.51 189ZM1082.49 175.55H1073.51L1073.31 180.15C1073.04 185.725 1071.89 187.025 1070.69 187.025H1070.44V189H1070.86C1073.99 189 1075.16 186.2 1075.49 180.775L1075.69 177.525H1080.21V189H1082.49V175.55ZM1097.39 175.325C1094.64 175.325 1091.82 177.075 1091.34 181.15H1088.62V175.55H1086.34V189H1088.62V183.125H1091.29C1091.62 187.425 1094.59 189.325 1097.39 189.325C1100.52 189.325 1103.84 187.2 1103.84 182.325C1103.84 177.45 1100.52 175.325 1097.39 175.325ZM1097.39 187.325C1095.52 187.325 1093.69 185.925 1093.69 182.325C1093.69 178.65 1095.52 177.325 1097.39 177.325C1099.47 177.325 1101.42 178.725 1101.42 182.325C1101.42 185.775 1099.47 187.325 1097.39 187.325ZM1116.6 189V175.55H1114.33V181.675C1113.08 181.975 1112.03 182.125 1111.15 182.125C1109.25 182.125 1108.3 181.45 1108.3 179.45V175.55H1106.03V179.925C1106.03 182.85 1107.5 184.1 1110.33 184.1C1111.55 184.1 1112.75 183.925 1114.33 183.55V189H1116.6ZM1132.2 183.025C1132.47 178.75 1130.05 175.325 1125.92 175.325C1122.25 175.325 1119.4 178.025 1119.4 182.3C1119.4 186.275 1121.75 189.325 1126 189.325C1129.27 189.325 1131.42 187.4 1132.02 185.1H1129.67C1129.1 186.425 1128 187.325 1126 187.325C1124.02 187.325 1121.92 185.925 1121.85 183.025H1132.2ZM1125.92 177.275C1128.35 177.275 1129.72 179.175 1129.8 181.075H1121.87C1122.07 178.375 1123.92 177.275 1125.92 177.275ZM1135 175.55V189H1141.25C1144.12 189 1146.3 187.875 1146.3 185.075C1146.3 183.275 1145.27 182.325 1143.87 181.925C1145.12 181.4 1145.75 180.4 1145.75 178.975C1145.75 176.25 1143.55 175.55 1140.85 175.55H1135ZM1137.27 181.2V177.525H1140.62C1142.32 177.525 1143.37 177.825 1143.37 179.225C1143.37 180.75 1142.37 181.2 1140.7 181.2H1137.27ZM1137.27 183.075H1140.82C1142.92 183.075 1143.92 183.55 1143.92 185.05C1143.92 186.45 1142.9 187.025 1140.9 187.025H1137.27V183.075ZM1157.31 183.375C1157.31 186.55 1155.29 187.525 1153.16 187.525C1151.54 187.525 1150.56 186.675 1150.56 185.4C1150.56 183.55 1153.19 182.925 1157.31 182.525V183.375ZM1152.66 189.325C1155.06 189.325 1156.44 188.55 1157.26 187.15C1157.29 187.95 1157.36 188.5 1157.44 189H1159.74C1159.46 187.725 1159.36 186.2 1159.39 183.925L1159.41 180.825C1159.44 177.025 1157.79 175.275 1154.06 175.275C1151.46 175.275 1148.86 176.9 1148.66 179.8H1151.01C1151.11 178.125 1152.19 177.125 1154.09 177.125C1155.79 177.125 1157.14 177.925 1157.14 180.4V180.725C1151.64 181.325 1148.04 182.275 1148.04 185.45C1148.04 187.925 1150.14 189.325 1152.66 189.325ZM1172.88 175.55H1167.6C1164.5 175.55 1162.6 176.925 1162.6 179.7C1162.6 181.7 1163.75 183 1165.45 183.575L1161.38 189H1164.2L1167.85 184.2C1167.98 184.225 1168.1 184.225 1168.23 184.225H1170.6V189H1172.88V175.55ZM1170.6 177.525V182.25H1167.93C1166.35 182.25 1164.93 181.675 1164.93 179.85C1164.93 178.225 1166.05 177.525 1167.73 177.525H1170.6ZM1197.35 175.55H1194.1L1190.08 185.9L1185.9 175.55H1182.65V189H1184.88V178.35L1189.18 189H1190.8L1195.13 178.2V189H1197.35V175.55ZM1206.06 189C1209.13 189 1211.11 187.875 1211.11 184.55C1211.11 181.675 1209.58 180.3 1206.08 180.3H1203.48V175.55H1201.21V189H1206.06ZM1203.48 182.275H1205.78C1207.88 182.275 1208.88 182.75 1208.88 184.55C1208.88 186.375 1207.86 187.025 1205.86 187.025H1203.48V182.275ZM1215.61 189V175.55H1213.33V189H1215.61ZM1224.92 175.325C1220.94 175.325 1218.42 178.3 1218.42 182.3C1218.42 186.4 1220.82 189.325 1224.69 189.325C1227.84 189.325 1230.22 187.15 1230.69 184.625H1228.34C1228.02 186.025 1226.69 187.325 1224.77 187.325C1222.77 187.325 1220.89 185.675 1220.89 182.275C1220.89 178.9 1222.77 177.325 1224.77 177.325C1226.54 177.325 1227.92 178.45 1228.24 180.05H1230.54C1230.22 177.75 1228.22 175.325 1224.92 175.325ZM1244.01 175.55H1235.04L1234.84 180.15C1234.56 185.725 1233.41 187.025 1232.21 187.025H1231.96V189H1232.39C1235.51 189 1236.69 186.2 1237.01 180.775L1237.21 177.525H1241.74V189H1244.01V175.55ZM1250.14 180.3V175.55H1247.86V189H1253.31C1256.41 189 1258.36 187.875 1258.36 184.55C1258.36 181.675 1256.86 180.3 1253.34 180.3H1250.14ZM1250.14 187.025V182.275H1253.06C1255.09 182.275 1256.14 182.775 1256.14 184.55C1256.14 186.35 1255.11 187.025 1253.11 187.025H1250.14Z" fill="black"/>
<path d="M14.475 250.875V258.575H4.95V250.875H2.4V269H4.95V260.775H14.475V269H17.025V250.875H14.475ZM33.1086 263.025C33.3836 258.75 30.9586 255.325 26.8336 255.325C23.1586 255.325 20.3086 258.025 20.3086 262.3C20.3086 266.275 22.6586 269.325 26.9086 269.325C30.1836 269.325 32.3336 267.4 32.9336 265.1H30.5836C30.0086 266.425 28.9086 267.325 26.9086 267.325C24.9336 267.325 22.8336 265.925 22.7586 263.025H33.1086ZM26.8336 257.275C29.2586 257.275 30.6336 259.175 30.7086 261.075H22.7836C22.9836 258.375 24.8336 257.275 26.8336 257.275ZM34.9873 273.375H36.1623C39.1873 273.375 39.8373 272.475 40.8373 269.575L45.6373 255.55H43.2623L39.9373 265.925L36.5123 255.55H33.9873L38.8373 269L38.7373 269.275C38.1373 271.375 37.4123 271.475 35.9123 271.475H34.9873V273.375ZM57.5451 255.55H48.5701L48.3701 260.15C48.0951 265.725 46.9451 267.025 45.7451 267.025H45.4951V269H45.9201C49.0451 269 50.2201 266.2 50.5451 260.775L50.7451 257.525H55.2701V269H57.5451V255.55ZM62.8227 262.325C62.8227 258.65 64.7727 257.325 66.8477 257.325C68.9227 257.325 70.8727 258.725 70.8727 262.325C70.8727 265.775 68.9227 267.325 66.8477 267.325C64.7727 267.325 62.8227 265.925 62.8227 262.325ZM66.8477 255.325C63.7227 255.325 60.3977 257.45 60.3977 262.325C60.3977 267.2 63.7227 269.325 66.8477 269.325C69.9727 269.325 73.2977 267.2 73.2977 262.325C73.2977 257.45 69.9727 255.325 66.8477 255.325ZM76.1438 255.55V269H82.3938C85.2688 269 87.4438 267.875 87.4438 265.075C87.4438 263.275 86.4188 262.325 85.0188 261.925C86.2688 261.4 86.8938 260.4 86.8938 258.975C86.8938 256.25 84.6938 255.55 81.9938 255.55H76.1438ZM78.4188 261.2V257.525H81.7688C83.4688 257.525 84.5188 257.825 84.5188 259.225C84.5188 260.75 83.5188 261.2 81.8438 261.2H78.4188ZM78.4188 263.075H81.9688C84.0688 263.075 85.0688 263.55 85.0688 265.05C85.0688 266.45 84.0438 267.025 82.0438 267.025H78.4188V263.075ZM99.3336 269H101.609V255.55H99.3336L92.3836 265.7V255.55H90.1086V269H92.3836L99.3336 258.85V269ZM120.165 255.55H116.915L112.89 265.9L108.715 255.55H105.465V269H107.69V258.35L111.99 269H113.615L117.94 258.2V269H120.165V255.55ZM125.445 262.325C125.445 258.65 127.395 257.325 129.47 257.325C131.545 257.325 133.495 258.725 133.495 262.325C133.495 265.775 131.545 267.325 129.47 267.325C127.395 267.325 125.445 265.925 125.445 262.325ZM129.47 255.325C126.345 255.325 123.02 257.45 123.02 262.325C123.02 267.2 126.345 269.325 129.47 269.325C132.595 269.325 135.92 267.2 135.92 262.325C135.92 257.45 132.595 255.325 129.47 255.325ZM150.711 263.025C150.986 258.75 148.561 255.325 144.436 255.325C140.761 255.325 137.911 258.025 137.911 262.3C137.911 266.275 140.261 269.325 144.511 269.325C147.786 269.325 149.936 267.4 150.536 265.1H148.186C147.611 266.425 146.511 267.325 144.511 267.325C142.536 267.325 140.436 265.925 140.361 263.025H150.711ZM144.436 257.275C146.861 257.275 148.236 259.175 148.311 261.075H140.386C140.586 258.375 142.436 257.275 144.436 257.275ZM170.645 269V255.55H168.37V261.15H161.72V255.55H159.445V269H161.72V263.125H168.37V269H170.645ZM182.834 263.375C182.834 266.55 180.809 267.525 178.684 267.525C177.059 267.525 176.084 266.675 176.084 265.4C176.084 263.55 178.709 262.925 182.834 262.525V263.375ZM178.184 269.325C180.584 269.325 181.959 268.55 182.784 267.15C182.809 267.95 182.884 268.5 182.959 269H185.259C184.984 267.725 184.884 266.2 184.909 263.925L184.934 260.825C184.959 257.025 183.309 255.275 179.584 255.275C176.984 255.275 174.384 256.9 174.184 259.8H176.534C176.634 258.125 177.709 257.125 179.609 257.125C181.309 257.125 182.659 257.925 182.659 260.4V260.725C177.159 261.325 173.559 262.275 173.559 265.45C173.559 267.925 175.659 269.325 178.184 269.325ZM193.898 255.325C189.923 255.325 187.398 258.3 187.398 262.3C187.398 266.4 189.798 269.325 193.673 269.325C196.823 269.325 199.198 267.15 199.673 264.625H197.323C196.998 266.025 195.673 267.325 193.748 267.325C191.748 267.325 189.873 265.675 189.873 262.275C189.873 258.9 191.748 257.325 193.748 257.325C195.523 257.325 196.898 258.45 197.223 260.05H199.523C199.198 257.75 197.198 255.325 193.898 255.325ZM211.85 257.525V255.55H200.375V257.525H204.975V269H207.25V257.525H211.85ZM214.156 255.55V273.375H216.431V266.975C217.256 268.4 218.656 269.325 220.831 269.325C223.931 269.325 226.581 266.8 226.581 262.325C226.581 257.925 223.931 255.325 220.831 255.325C218.656 255.325 217.256 256.25 216.431 257.675V255.55H214.156ZM216.331 262.325C216.331 258.775 218.231 257.275 220.256 257.275C222.581 257.275 224.106 259.1 224.106 262.325C224.106 265.55 222.581 267.375 220.256 267.375C218.231 267.375 216.331 265.875 216.331 262.325ZM231.011 262.325C231.011 258.65 232.961 257.325 235.036 257.325C237.111 257.325 239.061 258.725 239.061 262.325C239.061 265.775 237.111 267.325 235.036 267.325C232.961 267.325 231.011 265.925 231.011 262.325ZM235.036 255.325C231.911 255.325 228.586 257.45 228.586 262.325C228.586 267.2 231.911 269.325 235.036 269.325C238.161 269.325 241.486 267.2 241.486 262.325C241.486 257.45 238.161 255.325 235.036 255.325ZM256.278 263.025C256.553 258.75 254.128 255.325 250.003 255.325C246.328 255.325 243.478 258.025 243.478 262.3C243.478 266.275 245.828 269.325 250.078 269.325C253.353 269.325 255.503 267.4 256.103 265.1H253.753C253.178 266.425 252.078 267.325 250.078 267.325C248.103 267.325 246.003 265.925 245.928 263.025H256.278ZM250.003 257.275C252.428 257.275 253.803 259.175 253.878 261.075H245.953C246.153 258.375 248.003 257.275 250.003 257.275ZM270.278 269V255.55H268.003V261.15H261.353V255.55H259.078V269H261.353V263.125H268.003V269H270.278ZM283.342 269H285.617V255.55H283.342L276.392 265.7V255.55H274.117V269H276.392L283.342 258.85V269ZM301.224 263.025C301.499 258.75 299.074 255.325 294.949 255.325C291.274 255.325 288.424 258.025 288.424 262.3C288.424 266.275 290.774 269.325 295.024 269.325C298.299 269.325 300.449 267.4 301.049 265.1H298.699C298.124 266.425 297.024 267.325 295.024 267.325C293.049 267.325 290.949 265.925 290.874 263.025H301.224ZM294.949 257.275C297.374 257.275 298.749 259.175 298.824 261.075H290.899C291.099 258.375 292.949 257.275 294.949 257.275Z" fill="black"/>
<path d="M547.206 558H551.388V528.275H547.206L531.216 551.85V528.275H527.034V558H531.216L547.206 534.384V558ZM567.425 535.573C560.906 535.573 556.765 540.452 556.765 547.012C556.765 553.736 560.701 558.533 567.056 558.533C572.222 558.533 576.117 554.966 576.896 550.825H573.042C572.509 553.121 570.336 555.253 567.179 555.253C563.899 555.253 560.824 552.547 560.824 546.971C560.824 541.436 563.899 538.853 567.179 538.853C570.09 538.853 572.345 540.698 572.878 543.322H576.65C576.117 539.55 572.837 535.573 567.425 535.573ZM595.495 558H600.128L590.944 546.356L599.267 535.942H594.839L587.828 544.962H585.081V535.942H581.309V558H585.081V548.201H587.91L595.495 558ZM602.379 565.175H604.306C609.267 565.175 610.333 563.699 611.973 558.943L619.845 535.942H615.95L610.497 552.957L604.88 535.942H600.739L608.693 558L608.529 558.451C607.545 561.895 606.356 562.059 603.896 562.059H602.379V565.175ZM631.727 535.573C625.208 535.573 621.067 540.452 621.067 547.012C621.067 553.736 625.003 558.533 631.358 558.533C636.524 558.533 640.419 554.966 641.198 550.825H637.344C636.811 553.121 634.638 555.253 631.481 555.253C628.201 555.253 625.126 552.547 625.126 546.971C625.126 541.436 628.201 538.853 631.481 538.853C634.392 538.853 636.647 540.698 637.18 543.322H640.952C640.419 539.55 637.139 535.573 631.727 535.573ZM654.75 535.573C648.231 535.573 644.09 540.452 644.09 547.012C644.09 553.736 648.026 558.533 654.381 558.533C659.547 558.533 663.442 554.966 664.221 550.825H660.367C659.834 553.121 657.661 555.253 654.504 555.253C651.224 555.253 648.149 552.547 648.149 546.971C648.149 541.436 651.224 538.853 654.504 538.853C657.415 538.853 659.67 540.698 660.203 543.322H663.975C663.442 539.55 660.162 535.573 654.75 535.573ZM684.19 539.181V535.942H665.371V539.181H672.915V558H676.646V539.181H684.19ZM687.973 535.942V558H698.223C702.938 558 706.505 556.155 706.505 551.563C706.505 548.611 704.824 547.053 702.528 546.397C704.578 545.536 705.603 543.896 705.603 541.559C705.603 537.09 701.995 535.942 697.567 535.942H687.973ZM691.704 545.208V539.181H697.198C699.986 539.181 701.708 539.673 701.708 541.969C701.708 544.47 700.068 545.208 697.321 545.208H691.704ZM691.704 548.283H697.526C700.97 548.283 702.61 549.062 702.61 551.522C702.61 553.818 700.929 554.761 697.649 554.761H691.704V548.283ZM713.212 547.053C713.212 541.026 716.41 538.853 719.813 538.853C723.216 538.853 726.414 541.149 726.414 547.053C726.414 552.711 723.216 555.253 719.813 555.253C716.41 555.253 713.212 552.957 713.212 547.053ZM719.813 535.573C714.688 535.573 709.235 539.058 709.235 547.053C709.235 555.048 714.688 558.533 719.813 558.533C724.938 558.533 730.391 555.048 730.391 547.053C730.391 539.058 724.938 535.573 719.813 535.573Z" fill="black"/>
<path d="M1072.63 266.225C1072.05 268.55 1070.3 270.175 1067.4 270.175C1064.03 270.175 1061.63 267.5 1061.63 262.9C1061.63 258.2 1064.13 255.7 1067.33 255.7C1070.2 255.7 1072 257.375 1072.53 259.65H1075C1074.2 255.775 1071.2 253.55 1067.45 253.55C1062.35 253.55 1059.03 257.3 1059.03 262.9C1059.03 268.4 1062.05 272.325 1067.25 272.325C1071.18 272.325 1074.3 270.225 1075.1 266.225H1072.63ZM1087.04 272H1089.32V258.55H1087.04L1080.09 268.7V258.55H1077.82V272H1080.09L1087.04 261.85V272ZM1103.8 258.55H1094.83L1094.63 263.15C1094.35 268.725 1093.2 270.025 1092 270.025H1091.75V272H1092.18C1095.3 272 1096.48 269.2 1096.8 263.775L1097 260.525H1101.53V272H1103.8V258.55ZM1109.93 263.3V258.55H1107.65V272H1113.1C1116.2 272 1118.15 270.875 1118.15 267.55C1118.15 264.675 1116.65 263.3 1113.13 263.3H1109.93ZM1109.93 270.025V265.275H1112.85C1114.88 265.275 1115.93 265.775 1115.93 267.55C1115.93 269.35 1114.9 270.025 1112.9 270.025H1109.93ZM1131.92 272V258.55H1129.64V264.15H1122.99V258.55H1120.72V272H1122.99V266.125H1129.64V272H1131.92ZM1144.1 266.375C1144.1 269.55 1142.08 270.525 1139.95 270.525C1138.33 270.525 1137.35 269.675 1137.35 268.4C1137.35 266.55 1139.98 265.925 1144.1 265.525V266.375ZM1139.45 272.325C1141.85 272.325 1143.23 271.55 1144.05 270.15C1144.08 270.95 1144.15 271.5 1144.23 272H1146.53C1146.25 270.725 1146.15 269.2 1146.18 266.925L1146.2 263.825C1146.23 260.025 1144.58 258.275 1140.85 258.275C1138.25 258.275 1135.65 259.9 1135.45 262.8H1137.8C1137.9 261.125 1138.98 260.125 1140.88 260.125C1142.58 260.125 1143.93 260.925 1143.93 263.4V263.725C1138.43 264.325 1134.83 265.275 1134.83 268.45C1134.83 270.925 1136.93 272.325 1139.45 272.325ZM1159.67 258.55H1154.39C1151.29 258.55 1149.39 259.925 1149.39 262.7C1149.39 264.7 1150.54 266 1152.24 266.575L1148.17 272H1150.99L1154.64 267.2C1154.77 267.225 1154.89 267.225 1155.02 267.225H1157.39V272H1159.67V258.55ZM1157.39 260.525V265.25H1154.72C1153.14 265.25 1151.72 264.675 1151.72 262.85C1151.72 261.225 1152.84 260.525 1154.52 260.525H1157.39ZM1168.3 267.5C1169.05 270.8 1171.57 272.325 1174.5 272.325C1178.57 272.325 1180.8 269.475 1180.8 265.3C1180.8 261.1 1178.37 258.25 1174.42 258.25C1171.5 258.25 1169.02 259.925 1168.42 263.1H1170.67C1171.15 261.3 1172.47 260.25 1174.35 260.25C1176.52 260.25 1178.12 261.725 1178.4 264.225H1172.47V266.2H1178.4C1178.2 269 1176.35 270.325 1174.37 270.325C1172.27 270.325 1170.95 269.1 1170.57 267.5H1168.3ZM1198.31 258.55H1195.06L1191.03 268.9L1186.86 258.55H1183.61V272H1185.83V261.35L1190.13 272H1191.76L1196.08 261.2V272H1198.31V258.55ZM1203.59 265.325C1203.59 261.65 1205.54 260.325 1207.61 260.325C1209.69 260.325 1211.64 261.725 1211.64 265.325C1211.64 268.775 1209.69 270.325 1207.61 270.325C1205.54 270.325 1203.59 268.925 1203.59 265.325ZM1207.61 258.325C1204.49 258.325 1201.16 260.45 1201.16 265.325C1201.16 270.2 1204.49 272.325 1207.61 272.325C1210.74 272.325 1214.06 270.2 1214.06 265.325C1214.06 260.45 1210.74 258.325 1207.61 258.325ZM1227.61 270.025V258.55H1225.33V270.025H1219.18V258.55H1216.91V272H1227.33V275.225H1229.48V270.025H1227.61ZM1241 272H1243.27V258.55H1241L1234.05 268.7V258.55H1231.77V272H1234.05L1241 261.85V272ZM1257.08 258.55H1251.81C1248.71 258.55 1246.81 259.925 1246.81 262.7C1246.81 264.7 1247.96 266 1249.66 266.575L1245.58 272H1248.41L1252.06 267.2C1252.18 267.225 1252.31 267.225 1252.43 267.225H1254.81V272H1257.08V258.55ZM1254.81 260.525V265.25H1252.13C1250.56 265.25 1249.13 264.675 1249.13 262.85C1249.13 261.225 1250.26 260.525 1251.93 260.525H1254.81Z" fill="black"/>
<g filter="url(#filter0_f_747_239)">
<ellipse cx="610.5" cy="241" rx="206.5" ry="207" fill="black"/>
</g>
<path d="M611 482C744.653 482 853 374.101 853 241C853 107.899 744.653 0 611 0V482Z" fill="black"/>
<defs>
<filter id="filter0_f_747_239" x="374" y="4" width="473" height="474" filterUnits="userSpaceOnUse" color-interpolation-filters="sRGB">
<feFlood flood-opacity="0" result="BackgroundImageFix"/>
<feBlend mode="normal" in="SourceGraphic" in2="BackgroundImageFix" result="shape"/>
<feGaussianBlur stdDeviation="15" result="effect1_foregroundBlur_747_239"/>
</filter>
</defs>
</svg>
