<svg width="1259" height="206" viewBox="0 0 1259 206" fill="none" xmlns="http://www.w3.org/2000/svg">
<path d="M132.072 45.8H129.872V29.875H118.447L118.372 35.175C118.297 40.95 117.572 45.8 115.472 45.8H114.697V51.775H117.047V48H129.722V51.775H132.072V45.8ZM127.322 45.8H118.722C119.847 44.275 120.772 41 120.847 36L120.897 32.075H127.322V45.8ZM134.747 34.55V52.375H137.022V45.975C137.847 47.4 139.247 48.325 141.422 48.325C144.522 48.325 147.172 45.8 147.172 41.325C147.172 36.925 144.522 34.325 141.422 34.325C139.247 34.325 137.847 35.25 137.022 36.675V34.55H134.747ZM136.922 41.325C136.922 37.775 138.822 36.275 140.847 36.275C143.172 36.275 144.697 38.1 144.697 41.325C144.697 44.55 143.172 46.375 140.847 46.375C138.822 46.375 136.922 44.875 136.922 41.325ZM148.937 52.375H150.112C153.137 52.375 153.787 51.475 154.787 48.575L159.587 34.55H157.212L153.887 44.925L150.462 34.55H147.937L152.787 48L152.687 48.275C152.087 50.375 151.362 50.475 149.862 50.475H148.937V52.375ZM174.802 40.9L179.277 34.55H176.652L172.877 40.075H170.977V34.55H168.702V40.075H166.802L163.052 34.55H160.402L164.902 40.975L159.952 48H162.727L166.802 42.05H168.702V48H170.977V42.05H172.952L177.002 48H179.727L174.802 40.9ZM193.152 42.025C193.427 37.75 191.002 34.325 186.877 34.325C183.202 34.325 180.352 37.025 180.352 41.3C180.352 45.275 182.702 48.325 186.952 48.325C190.227 48.325 192.377 46.4 192.977 44.1H190.627C190.052 45.425 188.952 46.325 186.952 46.325C184.977 46.325 182.877 44.925 182.802 42.025H193.152ZM186.877 36.275C189.302 36.275 190.677 38.175 190.752 40.075H182.827C183.027 37.375 184.877 36.275 186.877 36.275ZM206.578 34.55H197.603L197.403 39.15C197.128 44.725 195.978 46.025 194.778 46.025H194.528V48H194.953C198.078 48 199.253 45.2 199.578 39.775L199.778 36.525H204.303V48H206.578V34.55ZM221.48 34.325C218.73 34.325 215.905 36.075 215.43 40.15H212.705V34.55H210.43V48H212.705V42.125H215.38C215.705 46.425 218.68 48.325 221.48 48.325C224.605 48.325 227.93 46.2 227.93 41.325C227.93 36.45 224.605 34.325 221.48 34.325ZM221.48 46.325C219.605 46.325 217.78 44.925 217.78 41.325C217.78 37.65 219.605 36.325 221.48 36.325C223.555 36.325 225.505 37.725 225.505 41.325C225.505 44.775 223.555 46.325 221.48 46.325ZM236.842 35.325C234.842 35.325 233.042 36.2 232.142 38.075C232.467 34.725 234.042 33.5 237.317 32.775L241.617 31.85V29.825L237.192 30.7C231.792 31.775 230.192 34.6 230.117 39.45V41C230.117 45.9 232.967 48.325 236.442 48.325C239.742 48.325 242.517 46.025 242.517 41.7C242.517 37.45 239.892 35.325 236.842 35.325ZM236.442 46.35C234.167 46.35 232.567 44.575 232.567 41.725C232.567 38.7 234.417 37.3 236.467 37.3C238.542 37.3 240.092 38.8 240.092 41.75C240.092 44.675 238.642 46.35 236.442 46.35ZM256.396 48V34.55H254.121V40.15H247.471V34.55H245.196V48H247.471V42.125H254.121V48H256.396ZM265.085 48C268.16 48 270.135 46.875 270.135 43.55C270.135 40.675 268.61 39.3 265.11 39.3H262.51V34.55H260.235V48H265.085ZM262.51 41.275H264.81C266.91 41.275 267.91 41.75 267.91 43.55C267.91 45.375 266.885 46.025 264.885 46.025H262.51V41.275ZM274.635 48V34.55H272.36V48H274.635ZM286.547 29.875C286.447 30.675 285.822 31.4 284.347 31.4C282.872 31.4 282.272 30.675 282.172 29.875H280.397C280.522 31.375 281.572 32.9 284.322 32.9C287.172 32.9 288.122 31.375 288.322 29.875H286.547ZM287.722 48H289.997V34.55H287.722L280.772 44.7V34.55H278.497V48H280.772L287.722 37.85V48Z" fill="black"/>
<path d="M401.875 165.925C401.875 161.25 404.475 158.7 407.775 158.7C411.075 158.7 413.675 161.25 413.675 165.925C413.675 170.6 411.075 173.175 407.775 173.175C404.475 173.175 401.875 170.6 401.875 165.925ZM416.275 165.925C416.275 160.45 413 156.55 407.775 156.55C402.55 156.55 399.275 160.45 399.275 165.925C399.275 171.4 402.55 175.325 407.775 175.325C413 175.325 416.275 171.4 416.275 165.925ZM429.406 163.525V161.55H417.931V163.525H422.531V175H424.806V163.525H429.406ZM440.362 175H443.187L437.587 167.9L442.662 161.55H439.962L435.687 167.05H434.012V161.55H431.712V175H434.012V169.025H435.737L440.362 175ZM445.36 161.55V179.375H447.635V172.975C448.46 174.4 449.86 175.325 452.035 175.325C455.135 175.325 457.785 172.8 457.785 168.325C457.785 163.925 455.135 161.325 452.035 161.325C449.86 161.325 448.46 162.25 447.635 163.675V161.55H445.36ZM447.535 168.325C447.535 164.775 449.435 163.275 451.46 163.275C453.785 163.275 455.31 165.1 455.31 168.325C455.31 171.55 453.785 173.375 451.46 173.375C449.435 173.375 447.535 171.875 447.535 168.325ZM465.444 175C468.519 175 470.494 173.875 470.494 170.55C470.494 167.675 468.969 166.3 465.469 166.3H462.869V161.55H460.594V175H465.444ZM462.869 168.275H465.169C467.269 168.275 468.269 168.75 468.269 170.55C468.269 172.375 467.244 173.025 465.244 173.025H462.869V168.275ZM474.994 175V161.55H472.719V175H474.994ZM488.781 163.525V161.55H477.306V163.525H481.906V175H484.181V163.525H488.781ZM495.937 175C499.012 175 500.987 173.875 500.987 170.55C500.987 167.675 499.462 166.3 495.962 166.3H493.362V161.55H491.087V175H495.937ZM493.362 168.275H495.662C497.762 168.275 498.762 168.75 498.762 170.55C498.762 172.375 497.737 173.025 495.737 173.025H493.362V168.275ZM505.487 175V161.55H503.212V175H505.487ZM517.399 156.875C517.299 157.675 516.674 158.4 515.199 158.4C513.724 158.4 513.124 157.675 513.024 156.875H511.249C511.374 158.375 512.424 159.9 515.174 159.9C518.024 159.9 518.974 158.375 519.174 156.875H517.399ZM518.574 175H520.849V161.55H518.574L511.624 171.7V161.55H509.349V175H511.624L518.574 164.85V175Z" fill="black"/>
<path d="M569.15 48H572.2L564.95 38.45L571.95 29.875H568.875L562.775 37.55H560.95V29.875H558.4V48H560.95V39.75H562.85L569.15 48ZM574.38 34.55V52.375H576.655V45.975C577.48 47.4 578.88 48.325 581.055 48.325C584.155 48.325 586.805 45.8 586.805 41.325C586.805 36.925 584.155 34.325 581.055 34.325C578.88 34.325 577.48 35.25 576.655 36.675V34.55H574.38ZM576.555 41.325C576.555 37.775 578.455 36.275 580.48 36.275C582.805 36.275 584.33 38.1 584.33 41.325C584.33 44.55 582.805 46.375 580.48 46.375C578.455 46.375 576.555 44.875 576.555 41.325ZM601.56 42.025C601.835 37.75 599.41 34.325 595.285 34.325C591.61 34.325 588.76 37.025 588.76 41.3C588.76 45.275 591.11 48.325 595.36 48.325C598.635 48.325 600.785 46.4 601.385 44.1H599.035C598.46 45.425 597.36 46.325 595.36 46.325C593.385 46.325 591.285 44.925 591.21 42.025H601.56ZM595.285 36.275C597.71 36.275 599.085 38.175 599.16 40.075H591.235C591.435 37.375 593.285 36.275 595.285 36.275ZM612.588 42.375C612.588 45.55 610.563 46.525 608.438 46.525C606.813 46.525 605.838 45.675 605.838 44.4C605.838 42.55 608.463 41.925 612.588 41.525V42.375ZM607.938 48.325C610.338 48.325 611.713 47.55 612.538 46.15C612.563 46.95 612.638 47.5 612.713 48H615.013C614.738 46.725 614.638 45.2 614.663 42.925L614.688 39.825C614.713 36.025 613.063 34.275 609.338 34.275C606.738 34.275 604.138 35.9 603.938 38.8H606.288C606.388 37.125 607.463 36.125 609.363 36.125C611.063 36.125 612.413 36.925 612.413 39.4V39.725C606.913 40.325 603.313 41.275 603.313 44.45C603.313 46.925 605.413 48.325 607.938 48.325ZM627.42 36.525V34.55H615.945V36.525H620.545V48H622.82V36.525H627.42ZM638.952 48H641.227V34.55H638.952L632.002 44.7V34.55H629.727V48H632.002L638.952 37.85V48ZM645.083 34.55V48H651.333C654.208 48 656.383 46.875 656.383 44.075C656.383 42.275 655.358 41.325 653.958 40.925C655.208 40.4 655.833 39.4 655.833 37.975C655.833 35.25 653.633 34.55 650.933 34.55H645.083ZM647.358 40.2V36.525H650.708C652.408 36.525 653.458 36.825 653.458 38.225C653.458 39.75 652.458 40.2 650.783 40.2H647.358ZM647.358 42.075H650.908C653.008 42.075 654.008 42.55 654.008 44.05C654.008 45.45 652.983 46.025 650.983 46.025H647.358V42.075ZM670.248 48V34.55H667.973V40.15H661.323V34.55H659.048V48H661.323V42.125H667.973V48H670.248ZM678.937 48C682.012 48 683.987 46.875 683.987 43.55C683.987 40.675 682.462 39.3 678.962 39.3H676.362V34.55H674.087V48H678.937ZM676.362 41.275H678.662C680.762 41.275 681.762 41.75 681.762 43.55C681.762 45.375 680.737 46.025 678.737 46.025H676.362V41.275ZM688.487 48V34.55H686.212V48H688.487ZM700.399 29.875C700.299 30.675 699.674 31.4 698.199 31.4C696.724 31.4 696.124 30.675 696.024 29.875H694.249C694.374 31.375 695.424 32.9 698.174 32.9C701.024 32.9 701.974 31.375 702.174 29.875H700.399ZM701.574 48H703.849V34.55H701.574L694.624 44.7V34.55H692.349V48H694.624L701.574 37.85V48Z" fill="black"/>
<path d="M779.398 169.225C778.823 171.55 777.073 173.175 774.173 173.175C770.798 173.175 768.398 170.5 768.398 165.9C768.398 161.2 770.898 158.7 774.098 158.7C776.973 158.7 778.773 160.375 779.298 162.65H781.773C780.973 158.775 777.973 156.55 774.223 156.55C769.123 156.55 765.798 160.3 765.798 165.9C765.798 171.4 768.823 175.325 774.023 175.325C777.948 175.325 781.073 173.225 781.873 169.225H779.398ZM786.257 168.325C786.257 164.65 788.207 163.325 790.282 163.325C792.357 163.325 794.307 164.725 794.307 168.325C794.307 171.775 792.357 173.325 790.282 173.325C788.207 173.325 786.257 171.925 786.257 168.325ZM790.282 161.325C787.157 161.325 783.832 163.45 783.832 168.325C783.832 173.2 787.157 175.325 790.282 175.325C793.407 175.325 796.732 173.2 796.732 168.325C796.732 163.45 793.407 161.325 790.282 161.325ZM799.578 161.55V175H805.828C808.703 175 810.878 173.875 810.878 171.075C810.878 169.275 809.853 168.325 808.453 167.925C809.703 167.4 810.328 166.4 810.328 164.975C810.328 162.25 808.128 161.55 805.428 161.55H799.578ZM801.853 167.2V163.525H805.203C806.903 163.525 807.953 163.825 807.953 165.225C807.953 166.75 806.953 167.2 805.278 167.2H801.853ZM801.853 169.075H805.403C807.503 169.075 808.503 169.55 808.503 171.05C808.503 172.45 807.478 173.025 805.478 173.025H801.853V169.075ZM813.543 161.55V179.375H815.818V172.975C816.643 174.4 818.043 175.325 820.218 175.325C823.318 175.325 825.968 172.8 825.968 168.325C825.968 163.925 823.318 161.325 820.218 161.325C818.043 161.325 816.643 162.25 815.818 163.675V161.55H813.543ZM815.718 168.325C815.718 164.775 817.618 163.275 819.643 163.275C821.968 163.275 823.493 165.1 823.493 168.325C823.493 171.55 821.968 173.375 819.643 173.375C817.618 173.375 815.718 171.875 815.718 168.325ZM840.722 169.025C840.997 164.75 838.572 161.325 834.447 161.325C830.772 161.325 827.922 164.025 827.922 168.3C827.922 172.275 830.272 175.325 834.522 175.325C837.797 175.325 839.947 173.4 840.547 171.1H838.197C837.622 172.425 836.522 173.325 834.522 173.325C832.547 173.325 830.447 171.925 830.372 169.025H840.722ZM834.447 163.275C836.872 163.275 838.247 165.175 838.322 167.075H830.397C830.597 164.375 832.447 163.275 834.447 163.275ZM858.223 161.55H854.973L850.948 171.9L846.773 161.55H843.523V175H845.748V164.35L850.048 175H851.673L855.998 164.2V175H858.223V161.55ZM873.828 169.025C874.103 164.75 871.678 161.325 867.553 161.325C863.878 161.325 861.028 164.025 861.028 168.3C861.028 172.275 863.378 175.325 867.628 175.325C870.903 175.325 873.053 173.4 873.653 171.1H871.303C870.728 172.425 869.628 173.325 867.628 173.325C865.653 173.325 863.553 171.925 863.478 169.025H873.828ZM867.553 163.275C869.978 163.275 871.353 165.175 871.428 167.075H863.503C863.703 164.375 865.553 163.275 867.553 163.275ZM887.829 175V161.55H885.554V167.15H878.904V161.55H876.629V175H878.904V169.125H885.554V175H887.829ZM902.868 175V161.55H900.593V167.15H893.943V161.55H891.668V175H893.943V169.125H900.593V175H902.868ZM911.557 175C914.632 175 916.607 173.875 916.607 170.55C916.607 167.675 915.082 166.3 911.582 166.3H908.982V161.55H906.707V175H911.557ZM908.982 168.275H911.282C913.382 168.275 914.382 168.75 914.382 170.55C914.382 172.375 913.357 173.025 911.357 173.025H908.982V168.275ZM921.107 175V161.55H918.832V175H921.107ZM933.019 156.875C932.919 157.675 932.294 158.4 930.819 158.4C929.344 158.4 928.744 157.675 928.644 156.875H926.869C926.994 158.375 928.044 159.9 930.794 159.9C933.644 159.9 934.594 158.375 934.794 156.875H933.019ZM934.194 175H936.469V161.55H934.194L927.244 171.7V161.55H924.969V175H927.244L934.194 164.85V175Z" fill="black"/>
<rect x="0.5" y="0.5" width="405" height="75" rx="9.5" stroke="black"/>
<path d="M962.875 38.925C962.875 34.25 965.475 31.7 968.775 31.7C972.075 31.7 974.675 34.25 974.675 38.925C974.675 43.6 972.075 46.175 968.775 46.175C965.475 46.175 962.875 43.6 962.875 38.925ZM977.275 38.925C977.275 33.45 974 29.55 968.775 29.55C963.55 29.55 960.275 33.45 960.275 38.925C960.275 44.4 963.55 48.325 968.775 48.325C974 48.325 977.275 44.4 977.275 38.925ZM980.481 34.55V52.375H982.756V45.975C983.581 47.4 984.981 48.325 987.156 48.325C990.256 48.325 992.906 45.8 992.906 41.325C992.906 36.925 990.256 34.325 987.156 34.325C984.981 34.325 983.581 35.25 982.756 36.675V34.55H980.481ZM982.656 41.325C982.656 37.775 984.556 36.275 986.581 36.275C988.906 36.275 990.431 38.1 990.431 41.325C990.431 44.55 988.906 46.375 986.581 46.375C984.556 46.375 982.656 44.875 982.656 41.325ZM1004.29 36.525V34.55H995.715V48H997.99V36.525H1004.29ZM1014.69 42.375C1014.69 45.55 1012.66 46.525 1010.54 46.525C1008.91 46.525 1007.94 45.675 1007.94 44.4C1007.94 42.55 1010.56 41.925 1014.69 41.525V42.375ZM1010.04 48.325C1012.44 48.325 1013.81 47.55 1014.64 46.15C1014.66 46.95 1014.74 47.5 1014.81 48H1017.11C1016.84 46.725 1016.74 45.2 1016.76 42.925L1016.79 39.825C1016.81 36.025 1015.16 34.275 1011.44 34.275C1008.84 34.275 1006.24 35.9 1006.04 38.8H1008.39C1008.49 37.125 1009.56 36.125 1011.46 36.125C1013.16 36.125 1014.51 36.925 1014.51 39.4V39.725C1009.01 40.325 1005.41 41.275 1005.41 44.45C1005.41 46.925 1007.51 48.325 1010.04 48.325ZM1031.5 48V34.55H1029.23V40.15H1022.58V34.55H1020.3V48H1022.58V42.125H1029.23V48H1031.5ZM1044.56 48H1046.84V34.55H1044.56L1037.61 44.7V34.55H1035.34V48H1037.61L1044.56 37.85V48ZM1057.9 40.95C1059.1 40.375 1060.02 39.425 1060.02 38.05C1060.02 35.525 1057.57 34.25 1054.92 34.25C1052.1 34.25 1049.92 35.775 1049.45 38.7H1051.8C1052.1 36.875 1053.37 36.25 1055.05 36.25C1056.52 36.25 1057.67 36.825 1057.67 38.1C1057.67 39.5 1056.72 40.2 1055.15 40.2H1053.12V42.075H1055.27C1057.17 42.075 1058.2 42.7 1058.2 44.275C1058.2 45.55 1057 46.425 1055.1 46.425C1053.17 46.425 1051.9 45.625 1051.52 43.9H1049.22C1049.7 46.975 1052.07 48.325 1054.95 48.325C1057.95 48.325 1060.62 47.075 1060.62 44.175C1060.62 42.375 1059.32 41.35 1057.9 40.95ZM1064.74 41.325C1064.74 37.65 1066.69 36.325 1068.77 36.325C1070.84 36.325 1072.79 37.725 1072.79 41.325C1072.79 44.775 1070.84 46.325 1068.77 46.325C1066.69 46.325 1064.74 44.925 1064.74 41.325ZM1068.77 34.325C1065.64 34.325 1062.32 36.45 1062.32 41.325C1062.32 46.2 1065.64 48.325 1068.77 48.325C1071.89 48.325 1075.22 46.2 1075.22 41.325C1075.22 36.45 1071.89 34.325 1068.77 34.325ZM1078.06 34.55V48H1084.31C1087.19 48 1089.36 46.875 1089.36 44.075C1089.36 42.275 1088.34 41.325 1086.94 40.925C1088.19 40.4 1088.81 39.4 1088.81 37.975C1088.81 35.25 1086.61 34.55 1083.91 34.55H1078.06ZM1080.34 40.2V36.525H1083.69C1085.39 36.525 1086.44 36.825 1086.44 38.225C1086.44 39.75 1085.44 40.2 1083.76 40.2H1080.34ZM1080.34 42.075H1083.89C1085.99 42.075 1086.99 42.55 1086.99 44.05C1086.99 45.45 1085.96 46.025 1083.96 46.025H1080.34V42.075ZM1100.38 42.375C1100.38 45.55 1098.35 46.525 1096.23 46.525C1094.6 46.525 1093.63 45.675 1093.63 44.4C1093.63 42.55 1096.25 41.925 1100.38 41.525V42.375ZM1095.73 48.325C1098.13 48.325 1099.5 47.55 1100.33 46.15C1100.35 46.95 1100.43 47.5 1100.5 48H1102.8C1102.53 46.725 1102.43 45.2 1102.45 42.925L1102.48 39.825C1102.5 36.025 1100.85 34.275 1097.13 34.275C1094.53 34.275 1091.93 35.9 1091.73 38.8H1094.08C1094.18 37.125 1095.25 36.125 1097.15 36.125C1098.85 36.125 1100.2 36.925 1100.2 39.4V39.725C1094.7 40.325 1091.1 41.275 1091.1 44.45C1091.1 46.925 1093.2 48.325 1095.73 48.325ZM1117.19 48V34.55H1114.92V40.15H1108.27V34.55H1105.99V48H1108.27V42.125H1114.92V48H1117.19ZM1132.23 48V34.55H1129.96V40.15H1123.31V34.55H1121.03V48H1123.31V42.125H1129.96V48H1132.23ZM1140.92 48C1144 48 1145.97 46.875 1145.97 43.55C1145.97 40.675 1144.45 39.3 1140.95 39.3H1138.35V34.55H1136.07V48H1140.92ZM1138.35 41.275H1140.65C1142.75 41.275 1143.75 41.75 1143.75 43.55C1143.75 45.375 1142.72 46.025 1140.72 46.025H1138.35V41.275ZM1150.47 48V34.55H1148.2V48H1150.47ZM1162.38 29.875C1162.28 30.675 1161.66 31.4 1160.18 31.4C1158.71 31.4 1158.11 30.675 1158.01 29.875H1156.23C1156.36 31.375 1157.41 32.9 1160.16 32.9C1163.01 32.9 1163.96 31.375 1164.16 29.875H1162.38ZM1163.56 48H1165.83V34.55H1163.56L1156.61 44.7V34.55H1154.33V48H1156.61L1163.56 37.85V48Z" fill="black"/>
<rect x="472.5" y="0.5" width="316" height="75" rx="9.5" stroke="black"/>
<rect x="292.5" y="130.5" width="335" height="75" rx="9.5" stroke="black"/>
<rect x="868.5" y="0.5" width="390" height="75" rx="9.5" stroke="black"/>
<rect x="679.5" y="127.5" width="343" height="75" rx="9.5" stroke="black"/>
</svg>
