<svg width="1261" height="475" viewBox="0 0 1261 475" fill="none" xmlns="http://www.w3.org/2000/svg">
<path d="M511.4 209.875V228H513.95V220.825H517.075C521.5 220.825 524.6 219.85 524.6 215.35C524.6 210.875 521.5 209.875 517.075 209.875H511.4ZM517.275 212.025C519.95 212.025 522 212.4 522 215.35C522 218.325 519.95 218.6 517.275 218.6H513.95V212.025H517.275ZM533.691 222.375C533.691 225.55 531.666 226.525 529.541 226.525C527.916 226.525 526.941 225.675 526.941 224.4C526.941 222.55 529.566 221.925 533.691 221.525V222.375ZM529.041 228.325C531.441 228.325 532.816 227.55 533.641 226.15C533.666 226.95 533.741 227.5 533.816 228H536.116C535.841 226.725 535.741 225.2 535.766 222.925L535.791 219.825C535.816 216.025 534.166 214.275 530.441 214.275C527.841 214.275 525.241 215.9 525.041 218.8H527.391C527.491 217.125 528.566 216.125 530.466 216.125C532.166 216.125 533.516 216.925 533.516 219.4V219.725C528.016 220.325 524.416 221.275 524.416 224.45C524.416 226.925 526.516 228.325 529.041 228.325ZM545.956 220.95C547.156 220.375 548.081 219.425 548.081 218.05C548.081 215.525 545.631 214.25 542.981 214.25C540.156 214.25 537.981 215.775 537.506 218.7H539.856C540.156 216.875 541.431 216.25 543.106 216.25C544.581 216.25 545.731 216.825 545.731 218.1C545.731 219.5 544.781 220.2 543.206 220.2H541.181V222.075H543.331C545.231 222.075 546.256 222.7 546.256 224.275C546.256 225.55 545.056 226.425 543.156 226.425C541.231 226.425 539.956 225.625 539.581 223.9H537.281C537.756 226.975 540.131 228.325 543.006 228.325C546.006 228.325 548.681 227.075 548.681 224.175C548.681 222.375 547.381 221.35 545.956 220.95ZM550.828 214.55V232.375H553.103V225.975C553.928 227.4 555.328 228.325 557.503 228.325C560.603 228.325 563.253 225.8 563.253 221.325C563.253 216.925 560.603 214.325 557.503 214.325C555.328 214.325 553.928 215.25 553.103 216.675V214.55H550.828ZM553.003 221.325C553.003 217.775 554.903 216.275 556.928 216.275C559.253 216.275 560.778 218.1 560.778 221.325C560.778 224.55 559.253 226.375 556.928 226.375C554.903 226.375 553.003 224.875 553.003 221.325ZM577.457 222.025C577.732 217.75 575.307 214.325 571.182 214.325C567.507 214.325 564.657 217.025 564.657 221.3C564.657 225.275 567.007 228.325 571.257 228.325C574.532 228.325 576.682 226.4 577.282 224.1H574.932C574.357 225.425 573.257 226.325 571.257 226.325C569.282 226.325 567.182 224.925 567.107 222.025H577.457ZM571.182 216.275C573.607 216.275 574.982 218.175 575.057 220.075H567.132C567.332 217.375 569.182 216.275 571.182 216.275ZM596.283 214.55H594.008V226.025H589.133V214.55H586.858V226.025H581.983V214.55H579.708V228H596.283V214.55ZM611.343 222.025C611.618 217.75 609.193 214.325 605.068 214.325C601.393 214.325 598.543 217.025 598.543 221.3C598.543 225.275 600.893 228.325 605.143 228.325C608.418 228.325 610.568 226.4 611.168 224.1H608.818C608.243 225.425 607.143 226.325 605.143 226.325C603.168 226.325 601.068 224.925 600.993 222.025H611.343ZM605.068 216.275C607.493 216.275 608.868 218.175 608.943 220.075H601.018C601.218 217.375 603.068 216.275 605.068 216.275ZM624.794 228V214.55H622.519V220.15H615.869V214.55H613.594V228H615.869V222.125H622.519V228H624.794ZM637.308 228H639.583V214.55H637.308L630.358 224.7V214.55H628.083V228H630.358L637.308 217.85V228ZM654.639 222.025C654.914 217.75 652.489 214.325 648.364 214.325C644.689 214.325 641.839 217.025 641.839 221.3C641.839 225.275 644.189 228.325 648.439 228.325C651.714 228.325 653.864 226.4 654.464 224.1H652.114C651.539 225.425 650.439 226.325 648.439 226.325C646.464 226.325 644.364 224.925 644.289 222.025H654.639ZM648.364 216.275C650.789 216.275 652.164 218.175 652.239 220.075H644.314C644.514 217.375 646.364 216.275 648.364 216.275ZM659.465 217.425V214.55H656.59V217.425H659.465ZM659.465 228V225.125H656.59V228H659.465ZM672.975 226.425C670.4 226.425 669.125 224.875 668.85 222.65H666.5C666.775 225.675 668.65 228.325 672.95 228.325C676.425 228.325 679.5 226.55 679.5 222.9C679.5 220.975 678.75 219.225 676.05 218.35C677.95 217.575 679 216.025 679 214.15C679 210.825 676.25 209.55 673.125 209.55C669.325 209.55 667.05 211.775 666.775 214.975H669.125C669.325 212.9 670.65 211.45 673.075 211.45C675 211.45 676.6 212.475 676.6 214.4C676.6 216.525 674.95 217.4 671.775 217.4H671.475V219.475H671.85C674.75 219.475 677.075 220.325 677.075 222.925C677.075 225.2 675.375 226.425 672.975 226.425ZM687.598 209.55C683.723 209.55 681.223 211.925 681.298 215.525H683.648C683.723 212.525 685.598 211.45 687.548 211.45C689.723 211.45 690.948 212.7 690.948 214.6C690.948 217.825 687.198 221.225 680.798 225.95V228H693.848V225.875H683.898C688.973 222.2 693.348 218.5 693.348 214.3C693.348 211.225 690.948 209.55 687.598 209.55ZM707.119 218.925C707.119 224 705.369 226.425 702.494 226.425C699.619 226.425 697.869 224 697.869 218.925C697.869 213.9 699.619 211.45 702.494 211.45C705.319 211.45 707.119 213.9 707.119 218.925ZM709.544 218.925C709.544 213.2 707.319 209.55 702.494 209.55C697.669 209.55 695.444 213.2 695.444 218.925C695.444 224.65 697.669 228.325 702.494 228.325C707.319 228.325 709.544 224.65 709.544 218.925ZM717.405 214.55V232.375H719.68V225.975C720.505 227.4 721.905 228.325 724.08 228.325C727.18 228.325 729.83 225.8 729.83 221.325C729.83 216.925 727.18 214.325 724.08 214.325C721.905 214.325 720.505 215.25 719.68 216.675V214.55H717.405ZM719.58 221.325C719.58 217.775 721.48 216.275 723.505 216.275C725.83 216.275 727.355 218.1 727.355 221.325C727.355 224.55 725.83 226.375 723.505 226.375C721.48 226.375 719.58 224.875 719.58 221.325ZM742.127 214.55H739.577L736.277 219.175L733.002 214.55H730.277L734.927 221.075L729.977 228H732.577L736.202 222.875L739.852 228H742.577L737.552 220.975L742.127 214.55Z" fill="black"/>
<path d="M520.65 261L525.65 245.2V261H528.2V242.875H523.925L519.3 257.975L514.675 242.875H510.4V261H512.95V245.2L517.95 261H520.65ZM543.732 255.025C544.007 250.75 541.582 247.325 537.457 247.325C533.782 247.325 530.932 250.025 530.932 254.3C530.932 258.275 533.282 261.325 537.532 261.325C540.807 261.325 542.957 259.4 543.557 257.1H541.207C540.632 258.425 539.532 259.325 537.532 259.325C535.557 259.325 533.457 257.925 533.382 255.025H543.732ZM537.457 249.275C539.882 249.275 541.257 251.175 541.332 253.075H533.407C533.607 250.375 535.457 249.275 537.457 249.275ZM559.158 253.9L563.633 247.55H561.008L557.233 253.075H555.333V247.55H553.058V253.075H551.158L547.408 247.55H544.758L549.258 253.975L544.308 261H547.083L551.158 255.05H553.058V261H555.333V255.05H557.308L561.358 261H564.083L559.158 253.9ZM574.347 261H577.172L571.572 253.9L576.647 247.55H573.947L569.672 253.05H567.997V247.55H565.697V261H567.997V255.025H569.722L574.347 261ZM579.731 254.325C579.731 250.65 581.681 249.325 583.756 249.325C585.831 249.325 587.781 250.725 587.781 254.325C587.781 257.775 585.831 259.325 583.756 259.325C581.681 259.325 579.731 257.925 579.731 254.325ZM583.756 247.325C580.631 247.325 577.306 249.45 577.306 254.325C577.306 259.2 580.631 261.325 583.756 261.325C586.881 261.325 590.206 259.2 590.206 254.325C590.206 249.45 586.881 247.325 583.756 247.325ZM602.932 247.55H593.957L593.757 252.15C593.482 257.725 592.332 259.025 591.132 259.025H590.882V261H591.307C594.432 261 595.607 258.2 595.932 252.775L596.132 249.525H600.657V261H602.932V247.55ZM607.659 254.325C607.659 250.65 609.609 249.325 611.684 249.325C613.759 249.325 615.709 250.725 615.709 254.325C615.709 257.775 613.759 259.325 611.684 259.325C609.609 259.325 607.659 257.925 607.659 254.325ZM611.684 247.325C608.559 247.325 605.234 249.45 605.234 254.325C605.234 259.2 608.559 261.325 611.684 261.325C614.809 261.325 618.134 259.2 618.134 254.325C618.134 249.45 614.809 247.325 611.684 247.325ZM631.63 261V247.55H629.355V253.15H622.705V247.55H620.43V261H622.705V255.125H629.355V261H631.63ZM646.12 261V247.55H643.845V253.15H637.195V247.55H634.92V261H637.195V255.125H643.845V261H646.12ZM658.634 261H660.909V247.55H658.634L651.684 257.7V247.55H649.409V261H651.684L658.634 250.85V261ZM672.865 261H675.69L670.09 253.9L675.165 247.55H672.465L668.19 253.05H666.515V247.55H664.215V261H666.515V255.025H668.24L672.865 261ZM679.887 250.425V247.55H677.012V250.425H679.887ZM679.887 261V258.125H677.012V261H679.887ZM693.898 242.55C690.023 242.55 687.523 244.925 687.598 248.525H689.948C690.023 245.525 691.898 244.45 693.848 244.45C696.023 244.45 697.248 245.7 697.248 247.6C697.248 250.825 693.498 254.225 687.098 258.95V261H700.148V258.875H690.198C695.273 255.2 699.648 251.5 699.648 247.3C699.648 244.225 697.248 242.55 693.898 242.55ZM713.419 251.925C713.419 257 711.669 259.425 708.794 259.425C705.919 259.425 704.169 257 704.169 251.925C704.169 246.9 705.919 244.45 708.794 244.45C711.619 244.45 713.419 246.9 713.419 251.925ZM715.844 251.925C715.844 246.2 713.619 242.55 708.794 242.55C703.969 242.55 701.744 246.2 701.744 251.925C701.744 257.65 703.969 261.325 708.794 261.325C713.619 261.325 715.844 257.65 715.844 251.925ZM723.705 247.55V265.375H725.98V258.975C726.805 260.4 728.205 261.325 730.38 261.325C733.48 261.325 736.13 258.8 736.13 254.325C736.13 249.925 733.48 247.325 730.38 247.325C728.205 247.325 726.805 248.25 725.98 249.675V247.55H723.705ZM725.88 254.325C725.88 250.775 727.78 249.275 729.805 249.275C732.13 249.275 733.655 251.1 733.655 254.325C733.655 257.55 732.13 259.375 729.805 259.375C727.78 259.375 725.88 257.875 725.88 254.325ZM748.427 247.55H745.877L742.577 252.175L739.302 247.55H736.577L741.227 254.075L736.277 261H738.877L742.502 255.875L746.152 261H748.877L743.852 253.975L748.427 247.55Z" fill="black"/>
<path d="M520.4 294L525.4 278.2V294H527.95V275.875H523.675L519.05 290.975L514.425 275.875H510.15V294H512.7V278.2L517.7 294H520.4ZM539.82 288.375C539.82 291.55 537.795 292.525 535.67 292.525C534.045 292.525 533.07 291.675 533.07 290.4C533.07 288.55 535.695 287.925 539.82 287.525V288.375ZM535.17 294.325C537.57 294.325 538.945 293.55 539.77 292.15C539.795 292.95 539.87 293.5 539.945 294H542.245C541.97 292.725 541.87 291.2 541.895 288.925L541.92 285.825C541.945 282.025 540.295 280.275 536.57 280.275C533.97 280.275 531.37 281.9 531.17 284.8H533.52C533.62 283.125 534.695 282.125 536.595 282.125C538.295 282.125 539.645 282.925 539.645 285.4V285.725C534.145 286.325 530.545 287.275 530.545 290.45C530.545 292.925 532.645 294.325 535.17 294.325ZM551.46 280.5C551.185 280.475 551.01 280.475 550.785 280.475C549.01 280.55 547.66 281.375 546.985 282.9V280.55H544.76V294H547.035V286.95C547.035 283.975 548.085 282.825 550.185 282.825C550.56 282.825 550.985 282.85 551.46 282.925V280.5ZM561.902 282.675C561.077 281.25 559.802 280.325 557.627 280.325C554.652 280.325 551.927 282.75 551.927 287.05C551.927 291.375 554.652 293.775 557.627 293.775C559.802 293.775 561.077 292.875 561.902 291.45V292.725C561.902 294.575 561.502 295.15 561.027 295.7C560.402 296.375 559.502 296.7 558.277 296.7C556.202 296.7 555.427 295.775 555.152 294.575H552.727C553.152 297.3 555.177 298.7 558.252 298.7C560.252 298.7 561.927 298.05 562.902 296.925C563.677 296.075 564.177 294.925 564.177 292.2V280.55H561.902V282.675ZM562.002 287.05C562.002 290.475 560.202 291.85 558.202 291.85C555.977 291.85 554.402 290.15 554.402 287.05C554.402 283.975 555.977 282.275 558.202 282.275C560.202 282.275 562.002 283.65 562.002 287.05ZM567.219 280.55V294H569.494V280.55H567.219ZM567.219 275.875V278.625H569.494V275.875H567.219ZM574.828 280.55H572.553V294H574.828V286.7C574.828 283.8 576.178 282.3 578.378 282.3C580.978 282.3 581.328 284.1 581.328 286.175V294H583.603V285.5C583.603 282.425 582.428 280.325 579.178 280.325C576.903 280.325 575.603 281.3 574.828 282.575V280.55ZM589.156 283.425V280.55H586.281V283.425H589.156ZM589.156 294V291.125H586.281V294H589.156ZM602.392 294V275.875H600.842C599.867 277.825 598.492 278.2 595.917 278.275V279.825H600.117V294H602.392ZM617.146 284.925C617.146 290 615.396 292.425 612.521 292.425C609.646 292.425 607.896 290 607.896 284.925C607.896 279.9 609.646 277.45 612.521 277.45C615.346 277.45 617.146 279.9 617.146 284.925ZM619.571 284.925C619.571 279.2 617.346 275.55 612.521 275.55C607.696 275.55 605.471 279.2 605.471 284.925C605.471 290.65 607.696 294.325 612.521 294.325C617.346 294.325 619.571 290.65 619.571 284.925ZM627.432 280.55V298.375H629.707V291.975C630.532 293.4 631.932 294.325 634.107 294.325C637.207 294.325 639.857 291.8 639.857 287.325C639.857 282.925 637.207 280.325 634.107 280.325C631.932 280.325 630.532 281.25 629.707 282.675V280.55H627.432ZM629.607 287.325C629.607 283.775 631.507 282.275 633.532 282.275C635.857 282.275 637.382 284.1 637.382 287.325C637.382 290.55 635.857 292.375 633.532 292.375C631.507 292.375 629.607 290.875 629.607 287.325ZM652.153 280.55H649.603L646.303 285.175L643.028 280.55H640.303L644.953 287.075L640.003 294H642.603L646.228 288.875L649.878 294H652.603L647.578 286.975L652.153 280.55Z" fill="black"/>
<path d="M14.875 376.225C14.3 378.55 12.55 380.175 9.65 380.175C6.275 380.175 3.875 377.5 3.875 372.9C3.875 368.2 6.375 365.7 9.575 365.7C12.45 365.7 14.25 367.375 14.775 369.65H17.25C16.45 365.775 13.45 363.55 9.7 363.55C4.6 363.55 1.275 367.3 1.275 372.9C1.275 378.4 4.3 382.325 9.5 382.325C13.425 382.325 16.55 380.225 17.35 376.225H14.875ZM32.0588 376.025C32.3338 371.75 29.9088 368.325 25.7838 368.325C22.1088 368.325 19.2588 371.025 19.2588 375.3C19.2588 379.275 21.6088 382.325 25.8588 382.325C29.1338 382.325 31.2838 380.4 31.8838 378.1H29.5338C28.9588 379.425 27.8588 380.325 25.8588 380.325C23.8838 380.325 21.7838 378.925 21.7088 376.025H32.0588ZM25.7838 370.275C28.2088 370.275 29.5838 372.175 29.6588 374.075H21.7338C21.9338 371.375 23.7838 370.275 25.7838 370.275ZM44.223 370.525V368.55H32.748V370.525H37.348V382H39.623V370.525H44.223ZM55.1795 382H58.0045L52.4045 374.9L57.4795 368.55H54.7795L50.5045 374.05H48.8295V368.55H46.5295V382H48.8295V376.025H50.5545L55.1795 382ZM68.2096 376.375C68.2096 379.55 66.1846 380.525 64.0596 380.525C62.4346 380.525 61.4596 379.675 61.4596 378.4C61.4596 376.55 64.0846 375.925 68.2096 375.525V376.375ZM63.5596 382.325C65.9596 382.325 67.3346 381.55 68.1596 380.15C68.1846 380.95 68.2596 381.5 68.3346 382H70.6346C70.3596 380.725 70.2596 379.2 70.2846 376.925L70.3096 373.825C70.3346 370.025 68.6846 368.275 64.9596 368.275C62.3596 368.275 59.7596 369.9 59.5596 372.8H61.9096C62.0096 371.125 63.0846 370.125 64.9846 370.125C66.6846 370.125 68.0346 370.925 68.0346 373.4V373.725C62.5346 374.325 58.9346 375.275 58.9346 378.45C58.9346 380.925 61.0346 382.325 63.5596 382.325Z" fill="black"/>
<rect x="129.199" y="3" width="10" height="469" fill="#FF715E" fill-opacity="0.68"/>
<rect x="1.19922" y="1" width="472" height="471" fill="#F8BEBE"/>
<rect x="2.19922" y="1" width="470" height="470" stroke="#FF0000" stroke-width="2"/>
<path d="M181.347 0.787109L181.347 472.001" stroke="#FF0000" stroke-width="2"/>
<path d="M237 3L237 474.213" stroke="#FF0000"/>
<line x1="299.56" y1="0.786133" x2="299.56" y2="472" stroke="#FF0000" stroke-width="2"/>
<path d="M1.19983 174.247H473.2" stroke="#FF0000" stroke-width="2"/>
<path d="M1.19983 292.247H473.2" stroke="#FF0000" stroke-width="2"/>
<rect x="789" y="1" width="472" height="471" fill="#F5F5F5"/>
<rect x="790" y="1" width="470" height="470" stroke="#FF0000" stroke-width="2"/>
<path d="M969.147 0.787109L969.147 472.001" stroke="#FF0000" stroke-width="2"/>
<path d="M1024.8 3L1024.8 471" stroke="#FF0000"/>
<line x1="1087.36" y1="0.786133" x2="1087.36" y2="472" stroke="#FF0000" stroke-width="2"/>
<rect opacity="0.78" x="1116" y="1" width="145" height="470" fill="#FA0000" fill-opacity="0.24"/>
<rect opacity="0.78" x="789" y="1" width="150" height="470" fill="#FA0000" fill-opacity="0.24"/>
<rect opacity="0.78" x="970" y="1" width="116" height="470" fill="#FA0000" fill-opacity="0.24"/>
</svg>
