<svg width="156" height="192" viewBox="0 0 156 192" fill="none" xmlns="http://www.w3.org/2000/svg">
<path d="M2.4 3.875V22H4.95V14.825H8.075C12.5 14.825 15.6 13.85 15.6 9.35C15.6 4.875 12.5 3.875 8.075 3.875H2.4ZM8.275 6.025C10.95 6.025 13 6.4 13 9.35C13 12.325 10.95 12.6 8.275 12.6H4.95V6.025H8.275ZM25.2408 16.375C25.2408 19.55 23.2158 20.525 21.0908 20.525C19.4658 20.525 18.4908 19.675 18.4908 18.4C18.4908 16.55 21.1158 15.925 25.2408 15.525V16.375ZM20.5908 22.325C22.9908 22.325 24.3658 21.55 25.1908 20.15C25.2158 20.95 25.2908 21.5 25.3658 22H27.6658C27.3908 20.725 27.2908 19.2 27.3158 16.925L27.3408 13.825C27.3658 10.025 25.7158 8.275 21.9908 8.275C19.3908 8.275 16.7908 9.9 16.5908 12.8H18.9408C19.0408 11.125 20.1158 10.125 22.0158 10.125C23.7158 10.125 25.0658 10.925 25.0658 13.4V13.725C19.5658 14.325 15.9658 15.275 15.9658 18.45C15.9658 20.925 18.0658 22.325 20.5908 22.325ZM38.0557 14.95C39.2557 14.375 40.1807 13.425 40.1807 12.05C40.1807 9.525 37.7307 8.25 35.0807 8.25C32.2557 8.25 30.0807 9.775 29.6057 12.7H31.9557C32.2557 10.875 33.5307 10.25 35.2057 10.25C36.6807 10.25 37.8307 10.825 37.8307 12.1C37.8307 13.5 36.8807 14.2 35.3057 14.2H33.2807V16.075H35.4307C37.3307 16.075 38.3557 16.7 38.3557 18.275C38.3557 19.55 37.1557 20.425 35.2557 20.425C33.3307 20.425 32.0557 19.625 31.6807 17.9H29.3807C29.8557 20.975 32.2307 22.325 35.1057 22.325C38.1057 22.325 40.7807 21.075 40.7807 18.175C40.7807 16.375 39.4807 15.35 38.0557 14.95ZM58.1777 8.55H54.9277L50.9027 18.9L46.7277 8.55H43.4777V22H45.7027V11.35L50.0027 22H51.6277L55.9527 11.2V22H58.1777V8.55ZM66.8824 22C69.9574 22 71.9324 20.875 71.9324 17.55C71.9324 14.675 70.4074 13.3 66.9074 13.3H64.3074V8.55H62.0324V22H66.8824ZM64.3074 15.275H66.6074C68.7074 15.275 69.7074 15.75 69.7074 17.55C69.7074 19.375 68.6824 20.025 66.6824 20.025H64.3074V15.275ZM76.4324 22V8.55H74.1574V22H76.4324ZM90.2191 10.525V8.55H78.7441V10.525H83.3441V22H85.6191V10.525H90.2191ZM93.5111 15.325C93.5111 11.65 95.4611 10.325 97.5361 10.325C99.6111 10.325 101.561 11.725 101.561 15.325C101.561 18.775 99.6111 20.325 97.5361 20.325C95.4611 20.325 93.5111 18.925 93.5111 15.325ZM97.5361 8.325C94.4111 8.325 91.0861 10.45 91.0861 15.325C91.0861 20.2 94.4111 22.325 97.5361 22.325C100.661 22.325 103.986 20.2 103.986 15.325C103.986 10.45 100.661 8.325 97.5361 8.325ZM118.778 16.025C119.053 11.75 116.628 8.325 112.503 8.325C108.828 8.325 105.978 11.025 105.978 15.3C105.978 19.275 108.328 22.325 112.578 22.325C115.853 22.325 118.003 20.4 118.603 18.1H116.253C115.678 19.425 114.578 20.325 112.578 20.325C110.603 20.325 108.503 18.925 108.428 16.025H118.778ZM112.503 10.275C114.928 10.275 116.303 12.175 116.378 14.075H108.453C108.653 11.375 110.503 10.275 112.503 10.275Z" fill="black"/>
<path d="M14.475 85.875V93.575H4.95V85.875H2.4V104H4.95V95.775H14.475V104H17.025V85.875H14.475ZM33.1086 98.025C33.3836 93.75 30.9586 90.325 26.8336 90.325C23.1586 90.325 20.3086 93.025 20.3086 97.3C20.3086 101.275 22.6586 104.325 26.9086 104.325C30.1836 104.325 32.3336 102.4 32.9336 100.1H30.5836C30.0086 101.425 28.9086 102.325 26.9086 102.325C24.9336 102.325 22.8336 100.925 22.7586 98.025H33.1086ZM26.8336 92.275C29.2586 92.275 30.6336 94.175 30.7086 96.075H22.7836C22.9836 93.375 24.8336 92.275 26.8336 92.275ZM46.9844 90.55H35.9094V104H38.1844V92.525H44.7094V104H46.9844V90.55ZM52.2514 97.325C52.2514 93.65 54.2014 92.325 56.2764 92.325C58.3514 92.325 60.3014 93.725 60.3014 97.325C60.3014 100.775 58.3514 102.325 56.2764 102.325C54.2014 102.325 52.2514 100.925 52.2514 97.325ZM56.2764 90.325C53.1514 90.325 49.8264 92.45 49.8264 97.325C49.8264 102.2 53.1514 104.325 56.2764 104.325C59.4014 104.325 62.7264 102.2 62.7264 97.325C62.7264 92.45 59.4014 90.325 56.2764 90.325ZM76.7725 104V90.55H74.4975V96.15H67.8475V90.55H65.5725V104H67.8475V98.125H74.4975V104H76.7725ZM90.5365 92.525V90.55H79.0615V92.525H83.6615V104H85.9365V92.525H90.5365ZM104.043 104V90.55H101.768V96.15H95.118V90.55H92.843V104H95.118V98.125H101.768V104H104.043ZM109.307 97.325C109.307 93.65 111.257 92.325 113.332 92.325C115.407 92.325 117.357 93.725 117.357 97.325C117.357 100.775 115.407 102.325 113.332 102.325C111.257 102.325 109.307 100.925 109.307 97.325ZM113.332 90.325C110.207 90.325 106.882 92.45 106.882 97.325C106.882 102.2 110.207 104.325 113.332 104.325C116.457 104.325 119.782 102.2 119.782 97.325C119.782 92.45 116.457 90.325 113.332 90.325ZM134.573 98.025C134.848 93.75 132.423 90.325 128.298 90.325C124.623 90.325 121.773 93.025 121.773 97.3C121.773 101.275 124.123 104.325 128.373 104.325C131.648 104.325 133.798 102.4 134.398 100.1H132.048C131.473 101.425 130.373 102.325 128.373 102.325C126.398 102.325 124.298 100.925 124.223 98.025H134.573ZM128.298 92.275C130.723 92.275 132.098 94.175 132.173 96.075H124.248C124.448 93.375 126.298 92.275 128.298 92.275Z" fill="black"/>
<path d="M0.125 187H2.725L4.125 183.075H12.45L13.875 187H16.625L9.8 168.875H6.85L0.125 187ZM8.25 171.45L11.65 180.9H4.9L8.25 171.45ZM24.2348 174.325C22.2348 174.325 20.4348 175.2 19.5348 177.075C19.8598 173.725 21.4348 172.5 24.7098 171.775L29.0098 170.85V168.825L24.5848 169.7C19.1848 170.775 17.5848 173.6 17.5098 178.45V180C17.5098 184.9 20.3598 187.325 23.8348 187.325C27.1348 187.325 29.9098 185.025 29.9098 180.7C29.9098 176.45 27.2848 174.325 24.2348 174.325ZM23.8348 185.35C21.5598 185.35 19.9598 183.575 19.9598 180.725C19.9598 177.7 21.8098 176.3 23.8598 176.3C25.9348 176.3 27.4848 177.8 27.4848 180.75C27.4848 183.675 26.0348 185.35 23.8348 185.35ZM38.0391 173.325C34.0641 173.325 31.5391 176.3 31.5391 180.3C31.5391 184.4 33.9391 187.325 37.8141 187.325C40.9641 187.325 43.3391 185.15 43.8141 182.625H41.4641C41.1391 184.025 39.8141 185.325 37.8891 185.325C35.8891 185.325 34.0141 183.675 34.0141 180.275C34.0141 176.9 35.8891 175.325 37.8891 175.325C39.6641 175.325 41.0391 176.45 41.3641 178.05H43.6641C43.3391 175.75 41.3391 173.325 38.0391 173.325ZM55.9906 175.525V173.55H44.5156V175.525H49.1156V187H51.3906V175.525H55.9906ZM58.2971 173.55V191.375H60.5721V184.975C61.3971 186.4 62.7971 187.325 64.9721 187.325C68.0721 187.325 70.7221 184.8 70.7221 180.325C70.7221 175.925 68.0721 173.325 64.9721 173.325C62.7971 173.325 61.3971 174.25 60.5721 175.675V173.55H58.2971ZM60.4721 180.325C60.4721 176.775 62.3721 175.275 64.3971 175.275C66.7221 175.275 68.2471 177.1 68.2471 180.325C68.2471 183.55 66.7221 185.375 64.3971 185.375C62.3721 185.375 60.4721 183.875 60.4721 180.325ZM81.8814 181.375C81.8814 184.55 79.8564 185.525 77.7314 185.525C76.1064 185.525 75.1314 184.675 75.1314 183.4C75.1314 181.55 77.7564 180.925 81.8814 180.525V181.375ZM77.2314 187.325C79.6314 187.325 81.0064 186.55 81.8314 185.15C81.8564 185.95 81.9314 186.5 82.0064 187H84.3064C84.0314 185.725 83.9314 184.2 83.9564 181.925L83.9814 178.825C84.0064 175.025 82.3564 173.275 78.6314 173.275C76.0314 173.275 73.4314 174.9 73.2314 177.8H75.5814C75.6814 176.125 76.7564 175.125 78.6564 175.125C80.3564 175.125 81.7064 175.925 81.7064 178.4V178.725C76.2064 179.325 72.6064 180.275 72.6064 183.45C72.6064 185.925 74.7064 187.325 77.2314 187.325ZM96.1463 187H98.9713L93.3713 179.9L98.4463 173.55H95.7463L91.4713 179.05H89.7963V173.55H87.4963V187H89.7963V181.025H91.5213L96.1463 187ZM111.069 175.525V173.55H99.5938V175.525H104.194V187H106.469V175.525H111.069ZM124.575 187V173.55H122.3V179.15H115.65V173.55H113.375V187H115.65V181.125H122.3V187H124.575ZM129.839 180.325C129.839 176.65 131.789 175.325 133.864 175.325C135.939 175.325 137.889 176.725 137.889 180.325C137.889 183.775 135.939 185.325 133.864 185.325C131.789 185.325 129.839 183.925 129.839 180.325ZM133.864 173.325C130.739 173.325 127.414 175.45 127.414 180.325C127.414 185.2 130.739 187.325 133.864 187.325C136.989 187.325 140.314 185.2 140.314 180.325C140.314 175.45 136.989 173.325 133.864 173.325ZM155.106 181.025C155.381 176.75 152.956 173.325 148.831 173.325C145.156 173.325 142.306 176.025 142.306 180.3C142.306 184.275 144.656 187.325 148.906 187.325C152.181 187.325 154.331 185.4 154.931 183.1H152.581C152.006 184.425 150.906 185.325 148.906 185.325C146.931 185.325 144.831 183.925 144.756 181.025H155.106ZM148.831 175.275C151.256 175.275 152.631 177.175 152.706 179.075H144.781C144.981 176.375 146.831 175.275 148.831 175.275Z" fill="black"/>
</svg>
