<svg width="288" height="208" viewBox="0 0 288 208" fill="none" xmlns="http://www.w3.org/2000/svg">
<rect width="288" height="208" fill="white"/>
<path d="M99 93.9641V114H102.414V93.9641H99ZM99 87V91.0965H102.414V87H99Z" fill="black"/>
<path d="M122.948 99.8109C122.31 95.9751 119.384 93.5917 114.995 93.5917C110.53 93.5917 106.929 95.6399 106.929 99.1778C106.929 102.939 109.93 104.131 112.669 104.727L115.67 105.323C117.846 105.807 119.759 106.589 119.759 108.637C119.759 110.536 117.658 111.616 115.07 111.616C112.068 111.616 110.493 110.089 109.93 107.52H106.329C106.741 111.02 109.705 114.484 114.995 114.484C119.609 114.484 123.21 112.249 123.21 108.265C123.21 104.429 119.984 102.976 116.308 102.306L113.457 101.747C111.506 101.338 110.38 100.63 110.38 99.0289C110.38 97.204 112.631 96.4965 114.619 96.4965C117.02 96.4965 118.821 97.4275 119.384 99.8109H122.948Z" fill="black"/>
<path d="M128.515 93.9641H125.326V96.6827H128.515V108.972C128.515 113.143 129.415 114 133.279 114H135.755V111.169H134.029C132.079 111.169 131.929 110.648 131.929 108.563V96.6827H135.755V93.9641H131.929V88.9365H128.515V93.9641Z" fill="black"/>
<path d="M141.882 104.056C141.882 98.582 144.808 96.6082 147.922 96.6082C151.036 96.6082 153.962 98.6937 153.962 104.056C153.962 109.196 151.036 111.505 147.922 111.505C144.808 111.505 141.882 109.419 141.882 104.056ZM147.922 93.6289C143.232 93.6289 138.243 96.7944 138.243 104.056C138.243 111.318 143.232 114.484 147.922 114.484C152.611 114.484 157.601 111.318 157.601 104.056C157.601 96.7944 152.611 93.6289 147.922 93.6289Z" fill="black"/>
<path d="M171.738 93.8896C171.325 93.8524 171.063 93.8524 170.725 93.8524C168.062 93.9641 166.036 95.193 165.023 97.4647V93.9641H161.684V114H165.098V103.498C165.098 99.0661 166.674 97.353 169.825 97.353C170.388 97.353 171.025 97.3903 171.738 97.502V93.8896Z" fill="black"/>
<path d="M186.236 93.9641L181.247 109.419L176.107 93.9641H172.318L179.596 114L179.446 114.409C178.546 117.538 177.458 117.687 175.207 117.687H173.819V120.517H175.582C180.122 120.517 181.097 119.176 182.598 114.856L189.8 93.9641H186.236Z" fill="black"/>
</svg>
