<svg width="288" height="208" viewBox="0 0 288 208" fill="none" xmlns="http://www.w3.org/2000/svg">
<rect width="288" height="208" fill="white"/>
<path d="M135.778 107.715C135.778 112.453 132.77 113.908 129.613 113.908C127.199 113.908 125.751 112.64 125.751 110.737C125.751 107.976 129.65 107.043 135.778 106.446V107.715ZM128.87 116.595C132.436 116.595 134.478 115.438 135.704 113.349C135.741 114.543 135.852 115.364 135.964 116.11H139.38C138.972 114.207 138.823 111.931 138.86 108.536L138.897 103.909C138.935 98.2382 136.484 95.6265 130.95 95.6265C127.088 95.6265 123.226 98.0516 122.928 102.38H126.419C126.568 99.8798 128.165 98.3874 130.987 98.3874C133.513 98.3874 135.518 99.5813 135.518 103.275V103.76C127.348 104.656 122 106.073 122 110.812C122 114.505 125.12 116.595 128.87 116.595Z" fill="black"/>
<path d="M153.886 95.9622C153.477 95.9249 153.217 95.9249 152.883 95.9249C150.246 96.0369 148.241 97.2681 147.238 99.544V96.0369H143.933V116.11H147.313V105.588C147.313 101.148 148.872 99.4321 151.992 99.4321C152.549 99.4321 153.18 99.4694 153.886 99.5813V95.9622Z" fill="black"/>
<path d="M158.1 96.0369H154.943V98.7605H158.1V111.073C158.1 115.252 158.991 116.11 162.816 116.11H165.267V113.274H163.559C161.628 113.274 161.479 112.752 161.479 110.662V98.7605H165.267V96.0369H161.479V91H158.1V96.0369Z" fill="black"/>
</svg>
