<svg width="265" height="246" viewBox="0 0 265 246" fill="none" xmlns="http://www.w3.org/2000/svg">
<path d="M4.65 195.35C6.75 195.35 8.3 194.125 9.275 192.025L15.95 176.875H13.125L8.275 188.65L3 176.875H0.25L7 191.3L6.65 191.95C6.15 192.875 5.375 193.15 4.475 193.15H2.775V195.35H4.65ZM26.9404 181.55H15.8654V195H18.1404V183.525H24.6654V195H26.9404V181.55ZM32.2074 188.325C32.2074 184.65 34.1574 183.325 36.2324 183.325C38.3074 183.325 40.2574 184.725 40.2574 188.325C40.2574 191.775 38.3074 193.325 36.2324 193.325C34.1574 193.325 32.2074 191.925 32.2074 188.325ZM36.2324 181.325C33.1074 181.325 29.7824 183.45 29.7824 188.325C29.7824 193.2 33.1074 195.325 36.2324 195.325C39.3574 195.325 42.6824 193.2 42.6824 188.325C42.6824 183.45 39.3574 181.325 36.2324 181.325ZM55.0141 183.525V181.55H43.5391V183.525H48.1391V195H50.4141V183.525H55.0141ZM57.3205 181.55V199.375H59.5955V192.975C60.4205 194.4 61.8205 195.325 63.9955 195.325C67.0955 195.325 69.7455 192.8 69.7455 188.325C69.7455 183.925 67.0955 181.325 63.9955 181.325C61.8205 181.325 60.4205 182.25 59.5955 183.675V181.55H57.3205ZM59.4955 188.325C59.4955 184.775 61.3955 183.275 63.4205 183.275C65.7455 183.275 67.2705 185.1 67.2705 188.325C67.2705 191.55 65.7455 193.375 63.4205 193.375C61.3955 193.375 59.4955 191.875 59.4955 188.325ZM84.5002 189.025C84.7752 184.75 82.3502 181.325 78.2252 181.325C74.5502 181.325 71.7002 184.025 71.7002 188.3C71.7002 192.275 74.0502 195.325 78.3002 195.325C81.5752 195.325 83.7252 193.4 84.3252 191.1H81.9752C81.4002 192.425 80.3002 193.325 78.3002 193.325C76.3252 193.325 74.2252 191.925 74.1502 189.025H84.5002ZM78.2252 183.275C80.6502 183.275 82.0252 185.175 82.1002 187.075H74.1752C74.3752 184.375 76.2252 183.275 78.2252 183.275ZM93.473 182.325C91.473 182.325 89.673 183.2 88.773 185.075C89.098 181.725 90.673 180.5 93.948 179.775L98.248 178.85V176.825L93.823 177.7C88.423 178.775 86.823 181.6 86.748 186.45V188C86.748 192.9 89.598 195.325 93.073 195.325C96.373 195.325 99.148 193.025 99.148 188.7C99.148 184.45 96.523 182.325 93.473 182.325ZM93.073 193.35C90.798 193.35 89.198 191.575 89.198 188.725C89.198 185.7 91.048 184.3 93.098 184.3C95.173 184.3 96.723 185.8 96.723 188.75C96.723 191.675 95.273 193.35 93.073 193.35ZM112.452 181.55H103.477L103.277 186.15C103.002 191.725 101.852 193.025 100.652 193.025H100.402V195H100.827C103.952 195 105.127 192.2 105.452 186.775L105.652 183.525H110.177V195H112.452V181.55ZM126.255 181.55H120.98C117.88 181.55 115.98 182.925 115.98 185.7C115.98 187.7 117.13 189 118.83 189.575L114.755 195H117.58L121.23 190.2C121.355 190.225 121.48 190.225 121.605 190.225H123.98V195H126.255V181.55ZM123.98 183.525V188.25H121.305C119.73 188.25 118.305 187.675 118.305 185.85C118.305 184.225 119.43 183.525 121.105 183.525H123.98ZM140.024 183.525V181.55H128.549V183.525H133.149V195H135.424V183.525H140.024ZM144.605 186.3V181.55H142.33V195H147.78C150.88 195 152.83 193.875 152.83 190.55C152.83 187.675 151.33 186.3 147.805 186.3H144.605ZM144.605 193.025V188.275H147.53C149.555 188.275 150.605 188.775 150.605 190.55C150.605 192.35 149.58 193.025 147.58 193.025H144.605ZM161.324 181.55V195H167.574C170.449 195 172.624 193.875 172.624 191.075C172.624 189.275 171.599 188.325 170.199 187.925C171.449 187.4 172.074 186.4 172.074 184.975C172.074 182.25 169.874 181.55 167.174 181.55H161.324ZM163.599 187.2V183.525H166.949C168.649 183.525 169.699 183.825 169.699 185.225C169.699 186.75 168.699 187.2 167.024 187.2H163.599ZM163.599 189.075H167.149C169.249 189.075 170.249 189.55 170.249 191.05C170.249 192.45 169.224 193.025 167.224 193.025H163.599V189.075ZM14.5 218.025H12.625V206.55H3.55L3.375 210.875C3.175 216.025 2.375 218.025 0.85 218.025H0.25V222.975H2.45V220H12.3V222.975H14.5V218.025ZM10.35 218.025H3.8C4.85 217.025 5.425 215.075 5.625 211.1L5.75 208.525H10.35V218.025ZM16.7932 206.55V224.375H19.0682V217.975C19.8932 219.4 21.2932 220.325 23.4682 220.325C26.5682 220.325 29.2182 217.8 29.2182 213.325C29.2182 208.925 26.5682 206.325 23.4682 206.325C21.2932 206.325 19.8932 207.25 19.0682 208.675V206.55H16.7932ZM18.9682 213.325C18.9682 209.775 20.8682 208.275 22.8932 208.275C25.2182 208.275 26.7432 210.1 26.7432 213.325C26.7432 216.55 25.2182 218.375 22.8932 218.375C20.8682 218.375 18.9682 216.875 18.9682 213.325ZM30.9834 224.375H32.1584C35.1834 224.375 35.8334 223.475 36.8334 220.575L41.6334 206.55H39.2584L35.9334 216.925L32.5084 206.55H29.9834L34.8334 220L34.7334 220.275C34.1334 222.375 33.4084 222.475 31.9084 222.475H30.9834V224.375ZM52.248 208.525V206.55H43.673V220H45.948V208.525H52.248ZM55.4008 213.325C55.4008 209.65 57.3508 208.325 59.4258 208.325C61.5008 208.325 63.4508 209.725 63.4508 213.325C63.4508 216.775 61.5008 218.325 59.4258 218.325C57.3508 218.325 55.4008 216.925 55.4008 213.325ZM59.4258 206.325C56.3008 206.325 52.9758 208.45 52.9758 213.325C52.9758 218.2 56.3008 220.325 59.4258 220.325C62.5508 220.325 65.8758 218.2 65.8758 213.325C65.8758 208.45 62.5508 206.325 59.4258 206.325ZM83.4219 206.55H80.1719L76.1469 216.9L71.9719 206.55H68.7219V220H70.9469V209.35L75.2469 220H76.8719L81.1969 209.2V220H83.4219V206.55ZM103.909 218.025V206.55H101.634V218.025H95.4842V206.55H93.2092V220H103.634V223.225H105.784V218.025H103.909ZM108.077 206.55V220H114.327C117.202 220 119.377 218.875 119.377 216.075C119.377 214.275 118.352 213.325 116.952 212.925C118.202 212.4 118.827 211.4 118.827 209.975C118.827 207.25 116.627 206.55 113.927 206.55H108.077ZM110.352 212.2V208.525H113.702C115.402 208.525 116.452 208.825 116.452 210.225C116.452 211.75 115.452 212.2 113.777 212.2H110.352ZM110.352 214.075H113.902C116.002 214.075 117.002 214.55 117.002 216.05C117.002 217.45 115.977 218.025 113.977 218.025H110.352V214.075ZM133.792 214.025C134.067 209.75 131.642 206.325 127.517 206.325C123.842 206.325 120.992 209.025 120.992 213.3C120.992 217.275 123.342 220.325 127.592 220.325C130.867 220.325 133.017 218.4 133.617 216.1H131.267C130.692 217.425 129.592 218.325 127.592 218.325C125.617 218.325 123.517 216.925 123.442 214.025H133.792ZM127.517 208.275C129.942 208.275 131.317 210.175 131.392 212.075H123.467C123.667 209.375 125.517 208.275 127.517 208.275ZM145.956 208.525V206.55H134.481V208.525H139.081V220H141.356V208.525H145.956ZM159.573 214.025C159.848 209.75 157.423 206.325 153.298 206.325C149.623 206.325 146.773 209.025 146.773 213.3C146.773 217.275 149.123 220.325 153.373 220.325C156.648 220.325 158.798 218.4 159.398 216.1H157.048C156.473 217.425 155.373 218.325 153.373 218.325C151.398 218.325 149.298 216.925 149.223 214.025H159.573ZM153.298 208.275C155.723 208.275 157.098 210.175 157.173 212.075H149.248C149.448 209.375 151.298 208.275 153.298 208.275ZM176.957 220H179.782L174.182 212.9L179.257 206.55H176.557L172.282 212.05H170.607V206.55H168.307V220H170.607V214.025H172.332L176.957 220ZM181.954 206.55V224.375H184.229V217.975C185.054 219.4 186.454 220.325 188.629 220.325C191.729 220.325 194.379 217.8 194.379 213.325C194.379 208.925 191.729 206.325 188.629 206.325C186.454 206.325 185.054 207.25 184.229 208.675V206.55H181.954ZM184.129 213.325C184.129 209.775 186.029 208.275 188.054 208.275C190.379 208.275 191.904 210.1 191.904 213.325C191.904 216.55 190.379 218.375 188.054 218.375C186.029 218.375 184.129 216.875 184.129 213.325ZM198.809 213.325C198.809 209.65 200.759 208.325 202.834 208.325C204.909 208.325 206.859 209.725 206.859 213.325C206.859 216.775 204.909 218.325 202.834 218.325C200.759 218.325 198.809 216.925 198.809 213.325ZM202.834 206.325C199.709 206.325 196.384 208.45 196.384 213.325C196.384 218.2 199.709 220.325 202.834 220.325C205.959 220.325 209.284 218.2 209.284 213.325C209.284 208.45 205.959 206.325 202.834 206.325ZM226.83 206.55H223.58L219.555 216.9L215.38 206.55H212.13V220H214.355V209.35L218.655 220H220.28L224.605 209.2V220H226.83V206.55ZM242.435 214.025C242.71 209.75 240.285 206.325 236.16 206.325C232.485 206.325 229.635 209.025 229.635 213.3C229.635 217.275 231.985 220.325 236.235 220.325C239.51 220.325 241.66 218.4 242.26 216.1H239.91C239.335 217.425 238.235 218.325 236.235 218.325C234.26 218.325 232.16 216.925 232.085 214.025H242.435ZM236.16 208.275C238.585 208.275 239.96 210.175 240.035 212.075H232.11C232.31 209.375 234.16 208.275 236.16 208.275ZM11.825 245V231.55H9.55V237.675C8.3 237.975 7.25 238.125 6.375 238.125C4.475 238.125 3.525 237.45 3.525 235.45V231.55H1.25V235.925C1.25 238.85 2.725 240.1 5.55 240.1C6.775 240.1 7.975 239.925 9.55 239.55V245H11.825ZM16.0201 245L23.1701 226.875H20.8701L13.7451 245H16.0201ZM30.143 232.325C28.143 232.325 26.343 233.2 25.443 235.075C25.768 231.725 27.343 230.5 30.618 229.775L34.918 228.85V226.825L30.493 227.7C25.093 228.775 23.493 231.6 23.418 236.45V238C23.418 242.9 26.268 245.325 29.743 245.325C33.043 245.325 35.818 243.025 35.818 238.7C35.818 234.45 33.193 232.325 30.143 232.325ZM29.743 243.35C27.468 243.35 25.868 241.575 25.868 238.725C25.868 235.7 27.718 234.3 29.768 234.3C31.843 234.3 33.393 235.8 33.393 238.75C33.393 241.675 31.943 243.35 29.743 243.35Z" fill="black"/>
<path fill-rule="evenodd" clip-rule="evenodd" d="M8.37786e-05 106.945L8.84533e-05 -5.63215e-08L1.28857 0L1.28857 106.945L8.37786e-05 106.945Z" fill="#05BECA"/>
<path fill-rule="evenodd" clip-rule="evenodd" d="M263.712 106.945L263.712 -5.63215e-08L265 0L265 106.945L263.712 106.945Z" fill="#05BECA"/>
<path fill-rule="evenodd" clip-rule="evenodd" d="M164.927 106.945L164.927 -5.63215e-08L166.215 0L166.215 106.945L164.927 106.945Z" fill="#05BECA"/>
<path fill-rule="evenodd" clip-rule="evenodd" d="M98.9268 106.945L98.9268 -5.63215e-08L100.215 0L100.215 106.945L98.9268 106.945Z" fill="#05BECA"/>
<path d="M151.109 15.0312V47.5545H113.462V15.0312H99.6436V93.6292H113.462V58.9377H151.109V93.6292H164.927V15.0312H151.109Z" fill="#05BECA"/>
<path d="M40.6361 59.884C40.6361 63.2236 38.516 64.2491 36.2912 64.2491C34.5899 64.2491 33.5691 63.355 33.5691 62.014C33.5691 60.0681 36.3174 59.4107 40.6361 58.9899V59.884ZM35.7677 66.1424C38.2804 66.1424 39.72 65.3272 40.5837 63.8547C40.6099 64.6961 40.6884 65.2746 40.7669 65.8005H43.1749C42.887 64.4595 42.7823 62.8554 42.8085 60.4625L42.8347 57.2018C42.8609 53.2049 41.1334 51.3642 37.2335 51.3642C34.5114 51.3642 31.7893 53.0734 31.5799 56.1237H34.0402C34.1449 54.3619 35.2704 53.3101 37.2596 53.3101C39.0395 53.3101 40.4529 54.1515 40.4529 56.7548V57.0967C34.6946 57.7278 30.9255 58.727 30.9255 62.0665C30.9255 64.6698 33.1241 66.1424 35.7677 66.1424Z" fill="#05BECA"/>
<path d="M53.3983 51.6008C53.1104 51.5746 52.9272 51.5746 52.6916 51.5746C50.8333 51.6534 49.4199 52.5212 48.7132 54.1252V51.6534H46.3837V65.8005H48.7655V58.3851C48.7655 55.256 49.8648 54.0463 52.0634 54.0463C52.4561 54.0463 52.901 54.0726 53.3983 54.1515V51.6008Z" fill="#05BECA"/>
<path d="M56.3682 51.6534H54.1435V53.573H56.3682V62.2506C56.3682 65.1957 56.9964 65.8005 59.6923 65.8005H61.4198V63.8021H60.2158C58.8548 63.8021 58.7501 63.4339 58.7501 61.9614V53.573H61.4198V51.6534H58.7501V48.1035H56.3682V51.6534Z" fill="#05BECA"/>
<path d="M183.395 51.7246V65.8455H185.801V51.7246H183.395ZM183.395 46.8164V49.7036H185.801V46.8164H183.395Z" fill="#05BECA"/>
<path d="M200.273 55.8454C199.824 53.1419 197.761 51.4621 194.668 51.4621C191.521 51.4621 188.983 52.9057 188.983 55.3992C188.983 58.0501 191.098 58.89 193.029 59.31L195.144 59.7299C196.677 60.0712 198.026 60.6223 198.026 62.0659C198.026 63.4045 196.545 64.1657 194.721 64.1657C192.606 64.1657 191.495 63.0896 191.098 61.2785H188.56C188.851 63.7457 190.94 66.1867 194.668 66.1867C197.92 66.1867 200.458 64.6119 200.458 61.8035C200.458 59.1 198.184 58.0764 195.593 57.6039L193.584 57.2102C192.209 56.9215 191.416 56.4228 191.416 55.2942C191.416 54.0081 193.002 53.5094 194.403 53.5094C196.096 53.5094 197.365 54.1656 197.761 55.8454H200.273Z" fill="#05BECA"/>
<path d="M204.197 51.7246H201.949V53.6406H204.197V62.3022C204.197 65.2418 204.831 65.8455 207.555 65.8455H209.3V63.8507H208.083C206.708 63.8507 206.603 63.4833 206.603 62.0134V53.6406H209.3V51.7246H206.603V48.1813H204.197V51.7246Z" fill="#05BECA"/>
<path d="M213.618 58.8375C213.618 54.9792 215.68 53.5881 217.875 53.5881C220.069 53.5881 222.131 55.058 222.131 58.8375C222.131 62.4596 220.069 64.087 217.875 64.087C215.68 64.087 213.618 62.6171 213.618 58.8375ZM217.875 51.4884C214.569 51.4884 211.053 53.7194 211.053 58.8375C211.053 63.9557 214.569 66.1867 217.875 66.1867C221.18 66.1867 224.696 63.9557 224.696 58.8375C224.696 53.7194 221.18 51.4884 217.875 51.4884Z" fill="#05BECA"/>
<path d="M234.66 51.6721C234.369 51.6459 234.184 51.6459 233.946 51.6459C232.069 51.7246 230.641 52.5908 229.927 54.1918V51.7246H227.574V65.8455H229.98V58.4438C229.98 55.3204 231.09 54.1131 233.311 54.1131C233.708 54.1131 234.158 54.1393 234.66 54.2181V51.6721Z" fill="#05BECA"/>
<path d="M244.878 51.7246L241.362 62.6171L237.739 51.7246H235.069L240.198 65.8455L240.093 66.1342C239.458 68.339 238.691 68.444 237.105 68.444H236.127V70.4387H237.369C240.568 70.4387 241.256 69.4938 242.314 66.4492L247.39 51.7246H244.878Z" fill="#05BECA"/>
</svg>
