<svg width="281" height="228" viewBox="0 0 281 228" fill="none" xmlns="http://www.w3.org/2000/svg">
<path d="M16.475 189.875V197.575H6.95V189.875H4.4V208H6.95V199.775H16.475V208H19.025V189.875H16.475ZM35.1086 202.025C35.3836 197.75 32.9586 194.325 28.8336 194.325C25.1586 194.325 22.3086 197.025 22.3086 201.3C22.3086 205.275 24.6586 208.325 28.9086 208.325C32.1836 208.325 34.3336 206.4 34.9336 204.1H32.5836C32.0086 205.425 30.9086 206.325 28.9086 206.325C26.9336 206.325 24.8336 204.925 24.7586 202.025H35.1086ZM28.8336 196.275C31.2586 196.275 32.6336 198.175 32.7086 200.075H24.7836C24.9836 197.375 26.8336 196.275 28.8336 196.275ZM48.5344 194.55H39.5594L39.3594 199.15C39.0844 204.725 37.9344 206.025 36.7344 206.025H36.4844V208H36.9094C40.0344 208 41.2094 205.2 41.5344 199.775L41.7344 196.525H46.2594V208H48.5344V194.55ZM54.6619 199.3V194.55H52.3869V208H57.8369C60.9369 208 62.8869 206.875 62.8869 203.55C62.8869 200.675 61.3869 199.3 57.8619 199.3H54.6619ZM54.6619 206.025V201.275H57.5869C59.6119 201.275 60.6619 201.775 60.6619 203.55C60.6619 205.35 59.6369 206.025 57.6369 206.025H54.6619ZM73.1367 200.95C74.3367 200.375 75.2617 199.425 75.2617 198.05C75.2617 195.525 72.8117 194.25 70.1617 194.25C67.3367 194.25 65.1617 195.775 64.6867 198.7H67.0367C67.3367 196.875 68.6117 196.25 70.2867 196.25C71.7617 196.25 72.9117 196.825 72.9117 198.1C72.9117 199.5 71.9617 200.2 70.3867 200.2H68.3617V202.075H70.5117C72.4117 202.075 73.4367 202.7 73.4367 204.275C73.4367 205.55 72.2367 206.425 70.3367 206.425C68.4117 206.425 67.1367 205.625 66.7617 203.9H64.4617C64.9367 206.975 67.3117 208.325 70.1867 208.325C73.1867 208.325 75.8617 207.075 75.8617 204.175C75.8617 202.375 74.5617 201.35 73.1367 200.95ZM88.3867 194.55H83.1117C80.0117 194.55 78.1117 195.925 78.1117 198.7C78.1117 200.7 79.2617 202 80.9617 202.575L76.8867 208H79.7117L83.3617 203.2C83.4867 203.225 83.6117 203.225 83.7367 203.225H86.1117V208H88.3867V194.55ZM86.1117 196.525V201.25H83.4367C81.8617 201.25 80.4367 200.675 80.4367 198.85C80.4367 197.225 81.5617 196.525 83.2367 196.525H86.1117ZM109.238 194.55H98.1633V208H100.438V196.525H106.963V208H109.238V194.55ZM114.505 201.325C114.505 197.65 116.455 196.325 118.53 196.325C120.605 196.325 122.555 197.725 122.555 201.325C122.555 204.775 120.605 206.325 118.53 206.325C116.455 206.325 114.505 204.925 114.505 201.325ZM118.53 194.325C115.405 194.325 112.08 196.45 112.08 201.325C112.08 206.2 115.405 208.325 118.53 208.325C121.655 208.325 124.98 206.2 124.98 201.325C124.98 196.45 121.655 194.325 118.53 194.325ZM127.826 194.55V208H134.076C136.951 208 139.126 206.875 139.126 204.075C139.126 202.275 138.101 201.325 136.701 200.925C137.951 200.4 138.576 199.4 138.576 197.975C138.576 195.25 136.376 194.55 133.676 194.55H127.826ZM130.101 200.2V196.525H133.451C135.151 196.525 136.201 196.825 136.201 198.225C136.201 199.75 135.201 200.2 133.526 200.2H130.101ZM130.101 202.075H133.651C135.751 202.075 136.751 202.55 136.751 204.05C136.751 205.45 135.726 206.025 133.726 206.025H130.101V202.075ZM143.216 201.325C143.216 197.65 145.166 196.325 147.241 196.325C149.316 196.325 151.266 197.725 151.266 201.325C151.266 204.775 149.316 206.325 147.241 206.325C145.166 206.325 143.216 204.925 143.216 201.325ZM147.241 194.325C144.116 194.325 140.791 196.45 140.791 201.325C140.791 206.2 144.116 208.325 147.241 208.325C150.366 208.325 153.691 206.2 153.691 201.325C153.691 196.45 150.366 194.325 147.241 194.325ZM156.537 194.55V212.375H158.812V205.975C159.637 207.4 161.037 208.325 163.212 208.325C166.312 208.325 168.962 205.8 168.962 201.325C168.962 196.925 166.312 194.325 163.212 194.325C161.037 194.325 159.637 195.25 158.812 196.675V194.55H156.537ZM158.712 201.325C158.712 197.775 160.612 196.275 162.637 196.275C164.962 196.275 166.487 198.1 166.487 201.325C166.487 204.55 164.962 206.375 162.637 206.375C160.612 206.375 158.712 204.875 158.712 201.325ZM180.122 202.375C180.122 205.55 178.097 206.525 175.972 206.525C174.347 206.525 173.372 205.675 173.372 204.4C173.372 202.55 175.997 201.925 180.122 201.525V202.375ZM175.472 208.325C177.872 208.325 179.247 207.55 180.072 206.15C180.097 206.95 180.172 207.5 180.247 208H182.547C182.272 206.725 182.172 205.2 182.197 202.925L182.222 199.825C182.247 196.025 180.597 194.275 176.872 194.275C174.272 194.275 171.672 195.9 171.472 198.8H173.822C173.922 197.125 174.997 196.125 176.897 196.125C178.597 196.125 179.947 196.925 179.947 199.4V199.725C174.447 200.325 170.847 201.275 170.847 204.45C170.847 206.925 172.947 208.325 175.472 208.325ZM195.637 208V194.55H193.362V200.675C192.112 200.975 191.062 201.125 190.187 201.125C188.287 201.125 187.337 200.45 187.337 198.45V194.55H185.062V198.925C185.062 201.85 186.537 203.1 189.362 203.1C190.587 203.1 191.787 202.925 193.362 202.55V208H195.637ZM208.707 208H210.982V194.55H208.707L201.757 204.7V194.55H199.482V208H201.757L208.707 197.85V208ZM214.838 194.55V208H221.088C223.963 208 226.138 206.875 226.138 204.075C226.138 202.275 225.113 201.325 223.713 200.925C224.963 200.4 225.588 199.4 225.588 197.975C225.588 195.25 223.388 194.55 220.688 194.55H214.838ZM217.113 200.2V196.525H220.463C222.163 196.525 223.213 196.825 223.213 198.225C223.213 199.75 222.213 200.2 220.538 200.2H217.113ZM217.113 202.075H220.663C222.763 202.075 223.763 202.55 223.763 204.05C223.763 205.45 222.738 206.025 220.738 206.025H217.113V202.075ZM237.153 202.375C237.153 205.55 235.128 206.525 233.003 206.525C231.378 206.525 230.403 205.675 230.403 204.4C230.403 202.55 233.028 201.925 237.153 201.525V202.375ZM232.503 208.325C234.903 208.325 236.278 207.55 237.103 206.15C237.128 206.95 237.203 207.5 237.278 208H239.578C239.303 206.725 239.203 205.2 239.228 202.925L239.253 199.825C239.278 196.025 237.628 194.275 233.903 194.275C231.303 194.275 228.703 195.9 228.503 198.8H230.853C230.953 197.125 232.028 196.125 233.928 196.125C235.628 196.125 236.978 196.925 236.978 199.4V199.725C231.478 200.325 227.878 201.275 227.878 204.45C227.878 206.925 229.978 208.325 232.503 208.325ZM251.985 196.525V194.55H240.51V196.525H245.11V208H247.385V196.525H251.985ZM256.566 199.3V194.55H254.291V208H259.741C262.841 208 264.791 206.875 264.791 203.55C264.791 200.675 263.291 199.3 259.766 199.3H256.566ZM256.566 206.025V201.275H259.491C261.516 201.275 262.566 201.775 262.566 203.55C262.566 205.35 261.541 206.025 259.541 206.025H256.566Z" fill="black"/>
<path fill-rule="evenodd" clip-rule="evenodd" d="M9.77657 130.521L1.09772 23.9288L2.38196 23.8242L11.0608 130.416L9.77657 130.521Z" fill="black"/>
<path fill-rule="evenodd" clip-rule="evenodd" d="M272.618 109.12L263.94 2.52839L265.224 2.42383L273.903 109.016L272.618 109.12Z" fill="black"/>
<path fill-rule="evenodd" clip-rule="evenodd" d="M174.16 117.138L165.481 10.546L166.765 10.4414L175.444 117.033L174.16 117.138Z" fill="black"/>
<path fill-rule="evenodd" clip-rule="evenodd" d="M108.16 120.697L99.4807 14.1046L100.765 14L109.444 120.592L108.16 120.697Z" fill="black"/>
<path d="M152.928 26.6496L155.567 59.0656L118.045 62.1208L115.405 29.7048L101.632 30.8262L108.011 109.165L121.784 108.043L118.968 73.4664L156.491 70.4112L159.306 104.988L173.079 103.867L166.701 25.5282L152.928 26.6496Z" fill="black"/>
<path d="M46.4596 80.3188C46.7306 83.6474 44.7007 84.8416 42.4833 85.0221C40.7876 85.1602 39.6976 84.3519 39.5888 83.0153C39.4309 81.0758 42.1167 80.1975 46.387 79.4277L46.4596 80.3188ZM42.1152 86.9516C44.6196 86.7477 45.9883 85.8184 46.7297 84.2806C46.824 85.1172 46.9492 85.6874 47.0702 86.2052L49.4702 86.0098C49.0744 84.6965 48.8399 83.1063 48.6718 80.7191L48.4333 77.4671C48.135 73.4812 46.2639 71.7868 42.3768 72.1032C39.6637 72.3241 37.0893 74.2486 37.1281 77.3059L39.5804 77.1062C39.5417 75.3417 40.5781 74.202 42.5608 74.0406C44.3348 73.8961 45.8118 74.6201 46.023 77.2148L46.0508 77.5555C40.3627 78.6519 36.6872 79.9537 36.9582 83.2822C37.1695 85.8769 39.4803 87.1662 42.1152 86.9516Z" fill="black"/>
<path d="M58.5076 71.0273C58.2185 71.0245 58.0358 71.0393 57.8011 71.0584C55.9552 71.2879 54.6169 72.2675 54.0427 73.9236L53.8421 71.4599L51.5203 71.649L52.6684 85.7494L55.0424 85.5561L54.4406 78.1652C54.1867 75.0463 55.1842 73.7515 57.3755 73.5731C57.7669 73.5412 58.2125 73.5313 58.7145 73.5696L58.5076 71.0273Z" fill="black"/>
<path d="M61.4719 70.8387L59.2545 71.0193L59.4103 72.9325L61.6277 72.752L62.3319 81.4009C62.5709 84.3363 63.2461 84.8882 65.9331 84.6694L67.6549 84.5292L67.4927 82.5373L66.2927 82.635C64.9362 82.7455 64.8019 82.387 64.6824 80.9193L64.0017 72.5587L66.6626 72.342L66.5069 70.4288L63.8459 70.6454L63.5578 67.1072L61.1839 67.3005L61.4719 70.8387Z" fill="black"/>
<path d="M188.085 60.599L189.231 74.6734L191.629 74.4781L190.483 60.4038L188.085 60.599ZM187.687 55.707L187.921 58.5847L190.319 58.3894L190.085 55.5118L187.687 55.707Z" fill="black"/>
<path d="M205.242 63.3365C204.575 60.6785 202.383 59.1716 199.3 59.4226C196.164 59.6779 193.751 61.3228 193.953 63.808C194.168 66.4502 196.345 67.1157 198.303 67.3776L200.445 67.6245C202.001 67.8402 203.39 68.2801 203.507 69.7189C203.616 71.0531 202.202 71.9319 200.383 72.08C198.275 72.2516 197.081 71.2692 196.539 69.4963L194.009 69.7023C194.499 72.1378 196.779 74.4012 200.494 74.0986C203.736 73.8347 206.138 72.0591 205.91 69.2599C205.691 66.5654 203.341 65.7297 200.72 65.4691L198.686 65.2397C197.292 65.0635 196.461 64.6309 196.369 63.506C196.265 62.2241 197.805 61.5983 199.202 61.4846C200.889 61.3473 202.207 61.8983 202.739 63.5404L205.242 63.3365Z" fill="black"/>
<path d="M208.818 58.9109L206.578 59.0933L206.734 61.003L208.974 60.8206L209.677 69.4536C209.915 72.3836 210.597 72.9338 213.311 72.7127L215.05 72.5711L214.888 70.5829L213.676 70.6816C212.306 70.7932 212.171 70.4356 212.051 68.9706L211.372 60.6254L214.06 60.4065L213.904 58.4968L211.216 58.7157L210.929 55.184L208.531 55.3793L208.818 58.9109Z" fill="black"/>
<path d="M218.785 65.2359C218.472 61.3903 220.415 59.8364 222.602 59.6583C224.79 59.4802 226.964 60.7779 227.271 64.545C227.565 68.1551 225.642 69.9444 223.454 70.1225C221.267 70.3006 219.092 69.003 218.785 65.2359ZM222.432 57.5655C219.138 57.8337 215.814 60.3427 216.229 65.444C216.644 70.5453 220.33 72.4836 223.625 72.2153C226.919 71.9471 230.243 69.4381 229.827 64.3368C229.412 59.2355 225.726 57.2973 222.432 57.5655Z" fill="black"/>
<path d="M239.177 56.3864C238.885 56.3839 238.7 56.3989 238.463 56.4182C236.598 56.649 235.246 57.6282 234.664 59.2819L234.464 56.8228L232.118 57.0138L233.264 71.0881L235.662 70.8929L235.062 63.5156C234.808 60.4025 235.817 59.109 238.031 58.9288C238.426 58.8966 238.876 58.8863 239.383 58.924L239.177 56.3864Z" fill="black"/>
<path d="M249.366 55.6095L246.745 66.7515L242.25 56.1888L239.589 56.4056L245.847 70.0636L245.765 70.36C245.312 72.6089 244.556 72.7758 242.975 72.9046L242 72.9839L242.161 74.9721L243.4 74.8713C246.589 74.6117 247.197 73.6141 248.004 70.4937L251.869 55.4057L249.366 55.6095Z" fill="black"/>
</svg>
