<svg width="314" height="236" viewBox="0 0 314 236" fill="none" xmlns="http://www.w3.org/2000/svg">
<path d="M14.475 177.207V184.907H4.95V177.207H2.4V195.332H4.95V187.107H14.475V195.332H17.025V177.207H14.475ZM33.1086 189.357C33.3836 185.082 30.9586 181.657 26.8336 181.657C23.1586 181.657 20.3086 184.357 20.3086 188.632C20.3086 192.607 22.6586 195.657 26.9086 195.657C30.1836 195.657 32.3336 193.732 32.9336 191.432H30.5836C30.0086 192.757 28.9086 193.657 26.9086 193.657C24.9336 193.657 22.8336 192.257 22.7586 189.357H33.1086ZM26.8336 183.607C29.2586 183.607 30.6336 185.507 30.7086 187.407H22.7836C22.9836 184.707 24.8336 183.607 26.8336 183.607ZM46.5344 181.882H37.5594L37.3594 186.482C37.0844 192.057 35.9344 193.357 34.7344 193.357H34.4844V195.332H34.9094C38.0344 195.332 39.2094 192.532 39.5344 187.107L39.7344 183.857H44.2594V195.332H46.5344V181.882ZM52.6619 186.632V181.882H50.3869V195.332H55.8369C58.9369 195.332 60.8869 194.207 60.8869 190.882C60.8869 188.007 59.3869 186.632 55.8619 186.632H52.6619ZM52.6619 193.357V188.607H55.5869C57.6119 188.607 58.6619 189.107 58.6619 190.882C58.6619 192.682 57.6369 193.357 55.6369 193.357H52.6619ZM71.1367 188.282C72.3367 187.707 73.2617 186.757 73.2617 185.382C73.2617 182.857 70.8117 181.582 68.1617 181.582C65.3367 181.582 63.1617 183.107 62.6867 186.032H65.0367C65.3367 184.207 66.6117 183.582 68.2867 183.582C69.7617 183.582 70.9117 184.157 70.9117 185.432C70.9117 186.832 69.9617 187.532 68.3867 187.532H66.3617V189.407H68.5117C70.4117 189.407 71.4367 190.032 71.4367 191.607C71.4367 192.882 70.2367 193.757 68.3367 193.757C66.4117 193.757 65.1367 192.957 64.7617 191.232H62.4617C62.9367 194.307 65.3117 195.657 68.1867 195.657C71.1867 195.657 73.8617 194.407 73.8617 191.507C73.8617 189.707 72.5617 188.682 71.1367 188.282ZM86.3867 181.882H81.1117C78.0117 181.882 76.1117 183.257 76.1117 186.032C76.1117 188.032 77.2617 189.332 78.9617 189.907L74.8867 195.332H77.7117L81.3617 190.532C81.4867 190.557 81.6117 190.557 81.7367 190.557H84.1117V195.332H86.3867V181.882ZM84.1117 183.857V188.582H81.4367C79.8617 188.582 78.4367 188.007 78.4367 186.182C78.4367 184.557 79.5617 183.857 81.2367 183.857H84.1117ZM96.1633 181.882V199.707H98.4383V193.307C99.2633 194.732 100.663 195.657 102.838 195.657C105.938 195.657 108.588 193.132 108.588 188.657C108.588 184.257 105.938 181.657 102.838 181.657C100.663 181.657 99.2633 182.582 98.4383 184.007V181.882H96.1633ZM98.3383 188.657C98.3383 185.107 100.238 183.607 102.263 183.607C104.588 183.607 106.113 185.432 106.113 188.657C106.113 191.882 104.588 193.707 102.263 193.707C100.238 193.707 98.3383 192.207 98.3383 188.657ZM119.748 189.707C119.748 192.882 117.723 193.857 115.598 193.857C113.973 193.857 112.998 193.007 112.998 191.732C112.998 189.882 115.623 189.257 119.748 188.857V189.707ZM115.098 195.657C117.498 195.657 118.873 194.882 119.698 193.482C119.723 194.282 119.798 194.832 119.873 195.332H122.173C121.898 194.057 121.798 192.532 121.823 190.257L121.848 187.157C121.873 183.357 120.223 181.607 116.498 181.607C113.898 181.607 111.298 183.232 111.098 186.132H113.448C113.548 184.457 114.623 183.457 116.523 183.457C118.223 183.457 119.573 184.257 119.573 186.732V187.057C114.073 187.657 110.473 188.607 110.473 191.782C110.473 194.257 112.573 195.657 115.098 195.657ZM130.813 181.657C126.838 181.657 124.313 184.632 124.313 188.632C124.313 192.732 126.713 195.657 130.588 195.657C133.738 195.657 136.113 193.482 136.588 190.957H134.238C133.913 192.357 132.588 193.657 130.663 193.657C128.663 193.657 126.788 192.007 126.788 188.607C126.788 185.232 128.663 183.657 130.663 183.657C132.438 183.657 133.813 184.782 134.138 186.382H136.438C136.113 184.082 134.113 181.657 130.813 181.657ZM148.764 183.857V181.882H137.289V183.857H141.889V195.332H144.164V183.857H148.764ZM160.532 181.882H155.257C152.157 181.882 150.257 183.257 150.257 186.032C150.257 188.032 151.407 189.332 153.107 189.907L149.032 195.332H151.857L155.507 190.532C155.632 190.557 155.757 190.557 155.882 190.557H158.257V195.332H160.532V181.882ZM158.257 183.857V188.582H155.582C154.007 188.582 152.582 188.007 152.582 186.182C152.582 184.557 153.707 183.857 155.382 183.857H158.257ZM172.951 183.857V181.882H164.376V195.332H166.651V183.857H172.951ZM185.043 183.857V181.882H173.568V183.857H178.168V195.332H180.443V183.857H185.043ZM187.35 181.882V195.332H193.6C196.475 195.332 198.65 194.207 198.65 191.407C198.65 189.607 197.625 188.657 196.225 188.257C197.475 187.732 198.1 186.732 198.1 185.307C198.1 182.582 195.9 181.882 193.2 181.882H187.35ZM189.625 187.532V183.857H192.975C194.675 183.857 195.725 184.157 195.725 185.557C195.725 187.082 194.725 187.532 193.05 187.532H189.625ZM189.625 189.407H193.175C195.275 189.407 196.275 189.882 196.275 191.382C196.275 192.782 195.25 193.357 193.25 193.357H189.625V189.407ZM209.665 189.707C209.665 192.882 207.64 193.857 205.515 193.857C203.89 193.857 202.915 193.007 202.915 191.732C202.915 189.882 205.54 189.257 209.665 188.857V189.707ZM205.015 195.657C207.415 195.657 208.79 194.882 209.615 193.482C209.64 194.282 209.715 194.832 209.79 195.332H212.09C211.815 194.057 211.715 192.532 211.74 190.257L211.765 187.157C211.79 183.357 210.14 181.607 206.415 181.607C203.815 181.607 201.215 183.232 201.015 186.132H203.365C203.465 184.457 204.54 183.457 206.44 183.457C208.14 183.457 209.49 184.257 209.49 186.732V187.057C203.99 187.657 200.39 188.607 200.39 191.782C200.39 194.257 202.49 195.657 205.015 195.657ZM224.496 183.857V181.882H213.021V183.857H217.621V195.332H219.896V183.857H224.496ZM229.078 186.632V181.882H226.803V195.332H232.253C235.353 195.332 237.303 194.207 237.303 190.882C237.303 188.007 235.803 186.632 232.278 186.632H229.078ZM229.078 193.357V188.607H232.003C234.028 188.607 235.078 189.107 235.078 190.882C235.078 192.682 234.053 193.357 232.053 193.357H229.078ZM13 206.882H1.925V220.332H4.2V208.857H10.725V220.332H13V206.882ZM18.267 213.657C18.267 209.982 20.217 208.657 22.292 208.657C24.367 208.657 26.317 210.057 26.317 213.657C26.317 217.107 24.367 218.657 22.292 218.657C20.217 218.657 18.267 217.257 18.267 213.657ZM22.292 206.657C19.167 206.657 15.842 208.782 15.842 213.657C15.842 218.532 19.167 220.657 22.292 220.657C25.417 220.657 28.742 218.532 28.742 213.657C28.742 208.782 25.417 206.657 22.292 206.657ZM37.5207 206.882V220.332H43.7707C46.6457 220.332 48.8207 219.207 48.8207 216.407C48.8207 214.607 47.7957 213.657 46.3957 213.257C47.6457 212.732 48.2707 211.732 48.2707 210.307C48.2707 207.582 46.0707 206.882 43.3707 206.882H37.5207ZM39.7957 212.532V208.857H43.1457C44.8457 208.857 45.8957 209.157 45.8957 210.557C45.8957 212.082 44.8957 212.532 43.2207 212.532H39.7957ZM39.7957 214.407H43.3457C45.4457 214.407 46.4457 214.882 46.4457 216.382C46.4457 217.782 45.4207 218.357 43.4207 218.357H39.7957V214.407ZM56.3355 220.332C59.4105 220.332 61.3855 219.207 61.3855 215.882C61.3855 213.007 59.8605 211.632 56.3605 211.632H53.7605V206.882H51.4855V220.332H56.3355ZM53.7605 213.607H56.0605C58.1605 213.607 59.1605 214.082 59.1605 215.882C59.1605 217.707 58.1355 218.357 56.1355 218.357H53.7605V213.607ZM65.8855 220.332V206.882H63.6105V220.332H65.8855ZM75.1973 206.657C71.2223 206.657 68.6973 209.632 68.6973 213.632C68.6973 217.732 71.0973 220.657 74.9723 220.657C78.1223 220.657 80.4973 218.482 80.9723 215.957H78.6223C78.2973 217.357 76.9723 218.657 75.0473 218.657C73.0473 218.657 71.1723 217.007 71.1723 213.607C71.1723 210.232 73.0473 208.657 75.0473 208.657C76.8223 208.657 78.1973 209.782 78.5223 211.382H80.8223C80.4973 209.082 78.4973 206.657 75.1973 206.657ZM85.2104 213.657C85.2104 209.982 87.1604 208.657 89.2354 208.657C91.3104 208.657 93.2604 210.057 93.2604 213.657C93.2604 217.107 91.3104 218.657 89.2354 218.657C87.1604 218.657 85.2104 217.257 85.2104 213.657ZM89.2354 206.657C86.1104 206.657 82.7854 208.782 82.7854 213.657C82.7854 218.532 86.1104 220.657 89.2354 220.657C92.3604 220.657 95.6854 218.532 95.6854 213.657C95.6854 208.782 92.3604 206.657 89.2354 206.657ZM108.017 208.857V206.882H96.542V208.857H101.142V220.332H103.417V208.857H108.017ZM121.634 214.357C121.909 210.082 119.484 206.657 115.359 206.657C111.684 206.657 108.834 209.357 108.834 213.632C108.834 217.607 111.184 220.657 115.434 220.657C118.709 220.657 120.859 218.732 121.459 216.432H119.109C118.534 217.757 117.434 218.657 115.434 218.657C113.459 218.657 111.359 217.257 111.284 214.357H121.634ZM115.359 208.607C117.784 208.607 119.159 210.507 119.234 212.407H111.309C111.509 209.707 113.359 208.607 115.359 208.607ZM139.592 220.332H141.867V206.882H139.592L132.642 217.032V206.882H130.367V220.332H132.642L139.592 210.182V220.332ZM156.349 206.882H147.374L147.174 211.482C146.899 217.057 145.749 218.357 144.549 218.357H144.299V220.332H144.724C147.849 220.332 149.024 217.532 149.349 212.107L149.549 208.857H154.074V220.332H156.349V206.882ZM169.426 220.332H171.701V206.882H169.426L162.476 217.032V206.882H160.201V220.332H162.476L169.426 210.182V220.332ZM198.065 206.882H195.79V218.357H190.915V206.882H188.64V218.357H183.765V206.882H181.49V220.332H198.065V206.882ZM211.15 220.332H213.425V206.882H211.15L204.2 217.032V206.882H201.925V220.332H204.2L211.15 210.182V220.332ZM217.281 206.882V224.707H219.556V218.307C220.381 219.732 221.781 220.657 223.956 220.657C227.056 220.657 229.706 218.132 229.706 213.657C229.706 209.257 227.056 206.657 223.956 206.657C221.781 206.657 220.381 207.582 219.556 209.007V206.882H217.281ZM219.456 213.657C219.456 210.107 221.356 208.607 223.381 208.607C225.706 208.607 227.231 210.432 227.231 213.657C227.231 216.882 225.706 218.707 223.381 218.707C221.356 218.707 219.456 217.207 219.456 213.657ZM241.741 220.332H244.016V206.882H241.741L234.791 217.032V206.882H232.516V220.332H234.791L241.741 210.182V220.332ZM259.072 220.332V206.882H256.797V212.482H250.147V206.882H247.872V220.332H250.147V214.457H256.797V220.332H259.072ZM274.661 214.357C274.936 210.082 272.511 206.657 268.386 206.657C264.711 206.657 261.861 209.357 261.861 213.632C261.861 217.607 264.211 220.657 268.461 220.657C271.736 220.657 273.886 218.732 274.486 216.432H272.136C271.561 217.757 270.461 218.657 268.461 218.657C266.486 218.657 264.386 217.257 264.311 214.357H274.661ZM268.386 208.607C270.811 208.607 272.186 210.507 272.261 212.407H264.336C264.536 209.707 266.386 208.607 268.386 208.607Z" fill="black"/>
<path fill-rule="evenodd" clip-rule="evenodd" d="M-4.82382e-06 106.945L7.15256e-07 -5.63215e-08L1.52673 0L1.52673 106.945L-4.82382e-06 106.945Z" fill="black"/>
<path fill-rule="evenodd" clip-rule="evenodd" d="M312.472 106.945L312.472 -5.63215e-08L313.999 0L313.999 106.945L312.472 106.945Z" fill="black"/>
<path fill-rule="evenodd" clip-rule="evenodd" d="M195.421 106.945L195.421 -5.63215e-08L196.948 0L196.948 106.945L195.421 106.945Z" fill="black"/>
<path fill-rule="evenodd" clip-rule="evenodd" d="M117.421 106.945L117.421 -5.63215e-08L118.948 0L118.948 106.945L117.421 106.945Z" fill="black"/>
<path d="M179.048 15.0312V47.5545H134.44V15.0312H118.066V93.6292H134.44V58.9377H179.048V93.6292H195.421V15.0312H179.048Z" fill="black"/>
<path d="M48.1495 59.884C48.1495 63.2236 45.6374 64.2491 43.0012 64.2491C40.9853 64.2491 39.7758 63.355 39.7758 62.014C39.7758 60.0681 43.0322 59.4107 48.1495 58.9899V59.884ZM42.381 66.1424C45.3583 66.1424 47.064 65.3272 48.0875 63.8547C48.1185 64.6961 48.2115 65.2746 48.3046 65.8005H51.1578C50.8167 64.4595 50.6926 62.8554 50.7236 60.4625L50.7546 57.2018C50.7856 53.2049 48.7387 51.3642 44.1177 51.3642C40.8923 51.3642 37.6669 53.0734 37.4188 56.1237H40.3341C40.4581 54.3619 41.7917 53.3101 44.1487 53.3101C46.2577 53.3101 47.9324 54.1515 47.9324 56.7548V57.0967C41.1094 57.7278 36.6434 58.727 36.6434 62.0665C36.6434 64.6698 39.2486 66.1424 42.381 66.1424Z" fill="black"/>
<path d="M63.2715 51.6008C62.9304 51.5746 62.7133 51.5746 62.4342 51.5746C60.2322 51.6534 58.5575 52.5212 57.7201 54.1252V51.6534H54.9599V65.8005H57.7821V58.3851C57.7821 55.256 59.0847 54.0463 61.6898 54.0463C62.155 54.0463 62.6823 54.0726 63.2715 54.1515V51.6008Z" fill="black"/>
<path d="M66.7906 51.6534H64.1545V53.573H66.7906V62.2506C66.7906 65.1957 67.5349 65.8005 70.7293 65.8005H72.7762V63.8021H71.3496C69.7369 63.8021 69.6129 63.4339 69.6129 61.9614V53.573H72.7762V51.6534H69.6129V48.1035H66.7906V51.6534Z" fill="black"/>
<path d="M217.304 51.7246V65.8455H220.155V51.7246H217.304ZM217.304 46.8164V49.7036H220.155V46.8164H217.304Z" fill="black"/>
<path d="M237.303 55.8454C236.771 53.1419 234.327 51.4621 230.662 51.4621C226.934 51.4621 223.926 52.9057 223.926 55.3992C223.926 58.0501 226.432 58.89 228.719 59.31L231.226 59.7299C233.043 60.0712 234.64 60.6223 234.64 62.0659C234.64 63.4045 232.886 64.1657 230.724 64.1657C228.218 64.1657 226.902 63.0896 226.432 61.2785H223.425C223.769 63.7457 226.244 66.1867 230.662 66.1867C234.515 66.1867 237.523 64.6119 237.523 61.8035C237.523 59.1 234.828 58.0764 231.758 57.6039L229.377 57.2102C227.748 56.9215 226.808 56.4228 226.808 55.2942C226.808 54.0081 228.688 53.5094 230.348 53.5094C232.353 53.5094 233.857 54.1656 234.327 55.8454H237.303Z" fill="black"/>
<path d="M241.952 51.7246H239.289V53.6406H241.952V62.3022C241.952 65.2418 242.704 65.8455 245.931 65.8455H247.999V63.8507H246.558C244.929 63.8507 244.803 63.4833 244.803 62.0134V53.6406H247.999V51.7246H244.803V48.1813H241.952V51.7246Z" fill="black"/>
<path d="M253.115 58.8375C253.115 54.9792 255.559 53.5881 258.159 53.5881C260.76 53.5881 263.203 55.058 263.203 58.8375C263.203 62.4596 260.76 64.087 258.159 64.087C255.559 64.087 253.115 62.6171 253.115 58.8375ZM258.159 51.4884C254.243 51.4884 250.076 53.7194 250.076 58.8375C250.076 63.9557 254.243 66.1867 258.159 66.1867C262.075 66.1867 266.242 63.9557 266.242 58.8375C266.242 53.7194 262.075 51.4884 258.159 51.4884Z" fill="black"/>
<path d="M278.048 51.6721C277.704 51.6459 277.485 51.6459 277.203 51.6459C274.978 51.7246 273.286 52.5908 272.441 54.1918V51.7246H269.652V65.8455H272.503V58.4438C272.503 55.3204 273.819 54.1131 276.451 54.1131C276.921 54.1131 277.453 54.1393 278.048 54.2181V51.6721Z" fill="black"/>
<path d="M290.156 51.7246L285.989 62.6171L281.697 51.7246H278.533L284.611 65.8455L284.486 66.1342C283.734 68.339 282.825 68.444 280.945 68.444H279.786V70.4387H281.259C285.05 70.4387 285.864 69.4938 287.117 66.4492L293.132 51.7246H290.156Z" fill="black"/>
</svg>
