<svg width="244" height="192" viewBox="0 0 244 192" fill="none" xmlns="http://www.w3.org/2000/svg">
<path d="M172.72 3.875H170.17V12.75C168.87 13.05 167.42 13.225 166.245 13.225C163.345 13.225 161.82 12.325 161.82 9.3V3.875H159.27V9.95C159.27 13.625 161.345 15.475 165.495 15.475C166.97 15.475 168.645 15.225 170.17 14.9V22H172.72V3.875ZM178.728 6.35H181.003V3.875H178.728V6.35ZM184.453 3.875V6.35H186.753V3.875H184.453ZM188.803 16.025C189.078 11.75 186.653 8.325 182.528 8.325C178.853 8.325 176.003 11.025 176.003 15.3C176.003 19.275 178.353 22.325 182.603 22.325C185.878 22.325 188.028 20.4 188.628 18.1H186.278C185.703 19.425 184.603 20.325 182.603 20.325C180.628 20.325 178.528 18.925 178.453 16.025H188.803ZM182.528 10.275C184.953 10.275 186.328 12.175 186.403 14.075H178.478C178.678 11.375 180.528 10.275 182.528 10.275ZM200.967 10.525V8.55H189.492V10.525H194.092V22H196.367V10.525H200.967ZM211.924 22H214.749L209.149 14.9L214.224 8.55H211.524L207.249 14.05H205.574V8.55H203.274V22H205.574V16.025H207.299L211.924 22ZM217.858 15.325C217.858 11.65 219.808 10.325 221.883 10.325C223.958 10.325 225.908 11.725 225.908 15.325C225.908 18.775 223.958 20.325 221.883 20.325C219.808 20.325 217.858 18.925 217.858 15.325ZM221.883 8.325C218.758 8.325 215.433 10.45 215.433 15.325C215.433 20.2 218.758 22.325 221.883 22.325C225.008 22.325 228.333 20.2 228.333 15.325C228.333 10.45 225.008 8.325 221.883 8.325ZM243.124 16.025C243.399 11.75 240.974 8.325 236.849 8.325C233.174 8.325 230.324 11.025 230.324 15.3C230.324 19.275 232.674 22.325 236.924 22.325C240.199 22.325 242.349 20.4 242.949 18.1H240.599C240.024 19.425 238.924 20.325 236.924 20.325C234.949 20.325 232.849 18.925 232.774 16.025H243.124ZM236.849 10.275C239.274 10.275 240.649 12.175 240.724 14.075H232.799C232.999 11.375 234.849 10.275 236.849 10.275Z" fill="black"/>
<path d="M141.263 104V85.875H127.113V104H129.663V88.075H138.713V104H141.263ZM147.008 97.325C147.008 93.65 148.958 92.325 151.033 92.325C153.108 92.325 155.058 93.725 155.058 97.325C155.058 100.775 153.108 102.325 151.033 102.325C148.958 102.325 147.008 100.925 147.008 97.325ZM151.033 90.325C147.908 90.325 144.583 92.45 144.583 97.325C144.583 102.2 147.908 104.325 151.033 104.325C154.158 104.325 157.483 102.2 157.483 97.325C157.483 92.45 154.158 90.325 151.033 90.325ZM171.529 104V90.55H169.254V96.15H162.604V90.55H160.329V104H162.604V98.125H169.254V104H171.529ZM185.318 90.55H180.043C176.943 90.55 175.043 91.925 175.043 94.7C175.043 96.7 176.193 98 177.893 98.575L173.818 104H176.643L180.293 99.2C180.418 99.225 180.543 99.225 180.668 99.225H183.043V104H185.318V90.55ZM183.043 92.525V97.25H180.368C178.793 97.25 177.368 96.675 177.368 94.85C177.368 93.225 178.493 92.525 180.168 92.525H183.043ZM199.087 92.525V90.55H187.612V92.525H192.212V104H194.487V92.525H199.087ZM212.594 104V90.55H210.319V96.15H203.669V90.55H201.394V104H203.669V98.125H210.319V104H212.594ZM217.858 97.325C217.858 93.65 219.808 92.325 221.883 92.325C223.958 92.325 225.908 93.725 225.908 97.325C225.908 100.775 223.958 102.325 221.883 102.325C219.808 102.325 217.858 100.925 217.858 97.325ZM221.883 90.325C218.758 90.325 215.433 92.45 215.433 97.325C215.433 102.2 218.758 104.325 221.883 104.325C225.008 104.325 228.333 102.2 228.333 97.325C228.333 92.45 225.008 90.325 221.883 90.325ZM243.124 98.025C243.399 93.75 240.974 90.325 236.849 90.325C233.174 90.325 230.324 93.025 230.324 97.3C230.324 101.275 232.674 104.325 236.924 104.325C240.199 104.325 242.349 102.4 242.949 100.1H240.599C240.024 101.425 238.924 102.325 236.924 102.325C234.949 102.325 232.849 100.925 232.774 98.025H243.124ZM236.849 92.275C239.274 92.275 240.649 94.175 240.724 96.075H232.799C232.999 93.375 234.849 92.275 236.849 92.275Z" fill="black"/>
<path d="M15.2471 181.225C14.6721 183.55 12.9221 185.175 10.0221 185.175C6.64707 185.175 4.24707 182.5 4.24707 177.9C4.24707 173.2 6.74707 170.7 9.94707 170.7C12.8221 170.7 14.6221 172.375 15.1471 174.65H17.6221C16.8221 170.775 13.8221 168.55 10.0721 168.55C4.97207 168.55 1.64707 172.3 1.64707 177.9C1.64707 183.4 4.67207 187.325 9.87207 187.325C13.7971 187.325 16.9221 185.225 17.7221 181.225H15.2471ZM28.8309 168.875H26.5559V173.575C22.6559 173.575 19.6309 175.75 19.6309 180.325C19.6309 185.05 22.6559 187.125 26.5559 187.125V191.375H28.8309V187.125C32.7059 187.125 35.7559 185.05 35.7559 180.325C35.7559 175.75 32.7559 173.575 28.8309 173.575V168.875ZM26.5559 185.175C23.8809 185.175 22.0559 183.675 22.0559 180.4C22.0559 177.1 23.9559 175.525 26.5559 175.525V185.175ZM28.8309 175.525C31.5059 175.525 33.3309 177.1 33.3309 180.4C33.3309 183.675 31.4309 185.175 28.8309 185.175V175.525ZM40.1723 180.325C40.1723 176.65 42.1223 175.325 44.1973 175.325C46.2723 175.325 48.2223 176.725 48.2223 180.325C48.2223 183.775 46.2723 185.325 44.1973 185.325C42.1223 185.325 40.1723 183.925 40.1723 180.325ZM44.1973 173.325C41.0723 173.325 37.7473 175.45 37.7473 180.325C37.7473 185.2 41.0723 187.325 44.1973 187.325C47.3223 187.325 50.6473 185.2 50.6473 180.325C50.6473 175.45 47.3223 173.325 44.1973 173.325ZM53.4934 173.55V191.375H55.7684V184.975C56.5934 186.4 57.9934 187.325 60.1684 187.325C63.2684 187.325 65.9184 184.8 65.9184 180.325C65.9184 175.925 63.2684 173.325 60.1684 173.325C57.9934 173.325 56.5934 174.25 55.7684 175.675V173.55H53.4934ZM55.6684 180.325C55.6684 176.775 57.5684 175.275 59.5934 175.275C61.9184 175.275 63.4434 177.1 63.4434 180.325C63.4434 183.55 61.9184 185.375 59.5934 185.375C57.5684 185.375 55.6684 183.875 55.6684 180.325ZM83.4277 173.55H80.1777L76.1527 183.9L71.9777 173.55H68.7277V187H70.9527V176.35L75.2527 187H76.8777L81.2027 176.2V187H83.4277V173.55ZM86.4824 191.375H87.6574C90.6824 191.375 91.3324 190.475 92.3324 187.575L97.1324 173.55H94.7574L91.4324 183.925L88.0074 173.55H85.4824L90.3324 187L90.2324 187.275C89.6324 189.375 88.9074 189.475 87.4074 189.475H86.4824V191.375ZM109.04 173.55H100.065L99.8652 178.15C99.5902 183.725 98.4402 185.025 97.2402 185.025H96.9902V187H97.4152C100.54 187 101.715 184.2 102.04 178.775L102.24 175.525H106.765V187H109.04V173.55ZM122.118 187H124.393V173.55H122.118L115.168 183.7V173.55H112.893V187H115.168L122.118 176.85V187ZM128.249 173.55V191.375H130.524V184.975C131.349 186.4 132.749 187.325 134.924 187.325C138.024 187.325 140.674 184.8 140.674 180.325C140.674 175.925 138.024 173.325 134.924 173.325C132.749 173.325 131.349 174.25 130.524 175.675V173.55H128.249ZM130.424 180.325C130.424 176.775 132.324 175.275 134.349 175.275C136.674 175.275 138.199 177.1 138.199 180.325C138.199 183.55 136.674 185.375 134.349 185.375C132.324 185.375 130.424 183.875 130.424 180.325ZM145.104 180.325C145.104 176.65 147.054 175.325 149.129 175.325C151.204 175.325 153.154 176.725 153.154 180.325C153.154 183.775 151.204 185.325 149.129 185.325C147.054 185.325 145.104 183.925 145.104 180.325ZM149.129 173.325C146.004 173.325 142.679 175.45 142.679 180.325C142.679 185.2 146.004 187.325 149.129 187.325C152.254 187.325 155.579 185.2 155.579 180.325C155.579 175.45 152.254 173.325 149.129 173.325ZM158.425 173.55V187H164.675C167.55 187 169.725 185.875 169.725 183.075C169.725 181.275 168.7 180.325 167.3 179.925C168.55 179.4 169.175 178.4 169.175 176.975C169.175 174.25 166.975 173.55 164.275 173.55H158.425ZM160.7 179.2V175.525H164.05C165.75 175.525 166.8 175.825 166.8 177.225C166.8 178.75 165.8 179.2 164.125 179.2H160.7ZM160.7 181.075H164.25C166.35 181.075 167.35 181.55 167.35 183.05C167.35 184.45 166.325 185.025 164.325 185.025H160.7V181.075ZM180.74 181.375C180.74 184.55 178.715 185.525 176.59 185.525C174.965 185.525 173.99 184.675 173.99 183.4C173.99 181.55 176.615 180.925 180.74 180.525V181.375ZM176.09 187.325C178.49 187.325 179.865 186.55 180.69 185.15C180.715 185.95 180.79 186.5 180.865 187H183.165C182.89 185.725 182.79 184.2 182.815 181.925L182.84 178.825C182.865 175.025 181.215 173.275 177.49 173.275C174.89 173.275 172.29 174.9 172.09 177.8H174.44C174.54 176.125 175.615 175.125 177.515 175.125C179.215 175.125 180.565 175.925 180.565 178.4V178.725C175.065 179.325 171.465 180.275 171.465 183.45C171.465 185.925 173.565 187.325 176.09 187.325ZM197.555 187V173.55H195.28V179.15H188.63V173.55H186.355V187H188.63V181.125H195.28V187H197.555ZM212.594 187V173.55H210.319V179.15H203.669V173.55H201.394V187H203.669V181.125H210.319V187H212.594ZM217.858 180.325C217.858 176.65 219.808 175.325 221.883 175.325C223.958 175.325 225.908 176.725 225.908 180.325C225.908 183.775 223.958 185.325 221.883 185.325C219.808 185.325 217.858 183.925 217.858 180.325ZM221.883 173.325C218.758 173.325 215.433 175.45 215.433 180.325C215.433 185.2 218.758 187.325 221.883 187.325C225.008 187.325 228.333 185.2 228.333 180.325C228.333 175.45 225.008 173.325 221.883 173.325ZM243.124 181.025C243.399 176.75 240.974 173.325 236.849 173.325C233.174 173.325 230.324 176.025 230.324 180.3C230.324 184.275 232.674 187.325 236.924 187.325C240.199 187.325 242.349 185.4 242.949 183.1H240.599C240.024 184.425 238.924 185.325 236.924 185.325C234.949 185.325 232.849 183.925 232.774 181.025H243.124ZM236.849 175.275C239.274 175.275 240.649 177.175 240.724 179.075H232.799C232.999 176.375 234.849 175.275 236.849 175.275Z" fill="black"/>
</svg>
