<svg width="1259" height="206" viewBox="0 0 1259 206" fill="none" xmlns="http://www.w3.org/2000/svg">
<path d="M47.26 72V53.875H33.11V72H35.66V56.075H44.71V72H47.26ZM51.5803 58.55V76.375H53.8553V69.975C54.6803 71.4 56.0803 72.325 58.2553 72.325C61.3553 72.325 64.0053 69.8 64.0053 65.325C64.0053 60.925 61.3553 58.325 58.2553 58.325C56.0803 58.325 54.6803 59.25 53.8553 60.675V58.55H51.5803ZM53.7553 65.325C53.7553 61.775 55.6553 60.275 57.6803 60.275C60.0053 60.275 61.5303 62.1 61.5303 65.325C61.5303 68.55 60.0053 70.375 57.6803 70.375C55.6553 70.375 53.7553 68.875 53.7553 65.325ZM68.435 65.325C68.435 61.65 70.385 60.325 72.46 60.325C74.535 60.325 76.485 61.725 76.485 65.325C76.485 68.775 74.535 70.325 72.46 70.325C70.385 70.325 68.435 68.925 68.435 65.325ZM72.46 58.325C69.335 58.325 66.01 60.45 66.01 65.325C66.01 70.2 69.335 72.325 72.46 72.325C75.585 72.325 78.91 70.2 78.91 65.325C78.91 60.45 75.585 58.325 72.46 58.325ZM92.4561 70.025V58.55H90.1811V70.025H84.0311V58.55H81.7561V72H92.1811V75.225H94.3311V70.025H92.4561ZM108.374 66.025C108.649 61.75 106.224 58.325 102.099 58.325C98.4242 58.325 95.5742 61.025 95.5742 65.3C95.5742 69.275 97.9242 72.325 102.174 72.325C105.449 72.325 107.599 70.4 108.199 68.1H105.849C105.274 69.425 104.174 70.325 102.174 70.325C100.199 70.325 98.0992 68.925 98.0242 66.025H108.374ZM102.099 60.275C104.524 60.275 105.899 62.175 105.974 64.075H98.0492C98.2492 61.375 100.099 60.275 102.099 60.275ZM116.747 58.325C112.772 58.325 110.247 61.3 110.247 65.3C110.247 69.4 112.647 72.325 116.522 72.325C119.672 72.325 122.047 70.15 122.522 67.625H120.172C119.847 69.025 118.522 70.325 116.597 70.325C114.597 70.325 112.722 68.675 112.722 65.275C112.722 61.9 114.597 60.325 116.597 60.325C118.372 60.325 119.747 61.45 120.072 63.05H122.372C122.047 60.75 120.047 58.325 116.747 58.325ZM130.785 58.325C126.81 58.325 124.285 61.3 124.285 65.3C124.285 69.4 126.685 72.325 130.56 72.325C133.71 72.325 136.085 70.15 136.56 67.625H134.21C133.885 69.025 132.56 70.325 130.635 70.325C128.635 70.325 126.76 68.675 126.76 65.275C126.76 61.9 128.635 60.325 130.635 60.325C132.41 60.325 133.785 61.45 134.11 63.05H136.41C136.085 60.75 134.085 58.325 130.785 58.325ZM146.609 65.325C146.609 61.65 148.559 60.325 150.634 60.325C152.709 60.325 154.659 61.725 154.659 65.325C154.659 68.775 152.709 70.325 150.634 70.325C148.559 70.325 146.609 68.925 146.609 65.325ZM150.634 58.325C147.509 58.325 144.184 60.45 144.184 65.325C144.184 70.2 147.509 72.325 150.634 72.325C153.759 72.325 157.084 70.2 157.084 65.325C157.084 60.45 153.759 58.325 150.634 58.325ZM165.98 59.325C163.98 59.325 162.18 60.2 161.28 62.075C161.605 58.725 163.18 57.5 166.455 56.775L170.755 55.85V53.825L166.33 54.7C160.93 55.775 159.33 58.6 159.255 63.45V65C159.255 69.9 162.105 72.325 165.58 72.325C168.88 72.325 171.655 70.025 171.655 65.7C171.655 61.45 169.03 59.325 165.98 59.325ZM165.58 70.35C163.305 70.35 161.705 68.575 161.705 65.725C161.705 62.7 163.555 61.3 165.605 61.3C167.68 61.3 169.23 62.8 169.23 65.75C169.23 68.675 167.78 70.35 165.58 70.35ZM174.334 58.55V76.375H176.609V69.975C177.434 71.4 178.834 72.325 181.009 72.325C184.109 72.325 186.759 69.8 186.759 65.325C186.759 60.925 184.109 58.325 181.009 58.325C178.834 58.325 177.434 59.25 176.609 60.675V58.55H174.334ZM176.509 65.325C176.509 61.775 178.409 60.275 180.434 60.275C182.759 60.275 184.284 62.1 184.284 65.325C184.284 68.55 182.759 70.375 180.434 70.375C178.409 70.375 176.509 68.875 176.509 65.325ZM197.919 66.375C197.919 69.55 195.894 70.525 193.769 70.525C192.144 70.525 191.169 69.675 191.169 68.4C191.169 66.55 193.794 65.925 197.919 65.525V66.375ZM193.269 72.325C195.669 72.325 197.044 71.55 197.869 70.15C197.894 70.95 197.969 71.5 198.044 72H200.344C200.069 70.725 199.969 69.2 199.994 66.925L200.019 63.825C200.044 60.025 198.394 58.275 194.669 58.275C192.069 58.275 189.469 59.9 189.269 62.8H191.619C191.719 61.125 192.794 60.125 194.694 60.125C196.394 60.125 197.744 60.925 197.744 63.4V63.725C192.244 64.325 188.644 65.275 188.644 68.45C188.644 70.925 190.744 72.325 193.269 72.325ZM210.733 64.95C211.933 64.375 212.858 63.425 212.858 62.05C212.858 59.525 210.408 58.25 207.758 58.25C204.933 58.25 202.758 59.775 202.283 62.7H204.633C204.933 60.875 206.208 60.25 207.883 60.25C209.358 60.25 210.508 60.825 210.508 62.1C210.508 63.5 209.558 64.2 207.983 64.2H205.958V66.075H208.108C210.008 66.075 211.033 66.7 211.033 68.275C211.033 69.55 209.833 70.425 207.933 70.425C206.008 70.425 204.733 69.625 204.358 67.9H202.058C202.533 70.975 204.908 72.325 207.783 72.325C210.783 72.325 213.458 71.075 213.458 68.175C213.458 66.375 212.158 65.35 210.733 64.95ZM217.58 65.325C217.58 61.65 219.53 60.325 221.605 60.325C223.68 60.325 225.63 61.725 225.63 65.325C225.63 68.775 223.68 70.325 221.605 70.325C219.53 70.325 217.58 68.925 217.58 65.325ZM221.605 58.325C218.48 58.325 215.155 60.45 215.155 65.325C215.155 70.2 218.48 72.325 221.605 72.325C224.73 72.325 228.055 70.2 228.055 65.325C228.055 60.45 224.73 58.325 221.605 58.325ZM230.902 58.55V72H237.152C240.027 72 242.202 70.875 242.202 68.075C242.202 66.275 241.177 65.325 239.777 64.925C241.027 64.4 241.652 63.4 241.652 61.975C241.652 59.25 239.452 58.55 236.752 58.55H230.902ZM233.177 64.2V60.525H236.527C238.227 60.525 239.277 60.825 239.277 62.225C239.277 63.75 238.277 64.2 236.602 64.2H233.177ZM233.177 66.075H236.727C238.827 66.075 239.827 66.55 239.827 68.05C239.827 69.45 238.802 70.025 236.802 70.025H233.177V66.075ZM253.216 66.375C253.216 69.55 251.191 70.525 249.066 70.525C247.441 70.525 246.466 69.675 246.466 68.4C246.466 66.55 249.091 65.925 253.216 65.525V66.375ZM248.566 72.325C250.966 72.325 252.341 71.55 253.166 70.15C253.191 70.95 253.266 71.5 253.341 72H255.641C255.366 70.725 255.266 69.2 255.291 66.925L255.316 63.825C255.341 60.025 253.691 58.275 249.966 58.275C247.366 58.275 244.766 59.9 244.566 62.8H246.916C247.016 61.125 248.091 60.125 249.991 60.125C251.691 60.125 253.041 60.925 253.041 63.4V63.725C247.541 64.325 243.941 65.275 243.941 68.45C243.941 70.925 246.041 72.325 248.566 72.325ZM270.031 72V58.55H267.756V64.15H261.106V58.55H258.831V72H261.106V66.125H267.756V72H270.031ZM283.095 72H285.37V58.55H283.095L276.145 68.7V58.55H273.87V72H276.145L283.095 61.85V72ZM299.177 58.55H293.902C290.802 58.55 288.902 59.925 288.902 62.7C288.902 64.7 290.052 66 291.752 66.575L287.677 72H290.502L294.152 67.2C294.277 67.225 294.402 67.225 294.527 67.225H296.902V72H299.177V58.55ZM296.902 60.525V65.25H294.227C292.652 65.25 291.227 64.675 291.227 62.85C291.227 61.225 292.352 60.525 294.027 60.525H296.902ZM321.528 70.025H319.653V58.55H310.578L310.403 62.875C310.203 68.025 309.403 70.025 307.878 70.025H307.278V74.975H309.478V72H319.328V74.975H321.528V70.025ZM317.378 70.025H310.828C311.878 69.025 312.453 67.075 312.653 63.1L312.778 60.525H317.378V70.025ZM325.246 65.325C325.246 61.65 327.196 60.325 329.271 60.325C331.346 60.325 333.296 61.725 333.296 65.325C333.296 68.775 331.346 70.325 329.271 70.325C327.196 70.325 325.246 68.925 325.246 65.325ZM329.271 58.325C326.146 58.325 322.821 60.45 322.821 65.325C322.821 70.2 326.146 72.325 329.271 72.325C332.396 72.325 335.721 70.2 335.721 65.325C335.721 60.45 332.396 58.325 329.271 58.325ZM348.997 58.55H340.022L339.822 63.15C339.547 68.725 338.397 70.025 337.197 70.025H336.947V72H337.372C340.497 72 341.672 69.2 341.997 63.775L342.197 60.525H346.722V72H348.997V58.55ZM366.025 64.9L370.5 58.55H367.875L364.1 64.075H362.2V58.55H359.925V64.075H358.025L354.275 58.55H351.625L356.125 64.975L351.175 72H353.95L358.025 66.05H359.925V72H362.2V66.05H364.175L368.225 72H370.95L366.025 64.9ZM384.375 66.025C384.65 61.75 382.225 58.325 378.1 58.325C374.425 58.325 371.575 61.025 371.575 65.3C371.575 69.275 373.925 72.325 378.175 72.325C381.45 72.325 383.6 70.4 384.2 68.1H381.85C381.275 69.425 380.175 70.325 378.175 70.325C376.2 70.325 374.1 68.925 374.025 66.025H384.375ZM378.1 60.275C380.525 60.275 381.9 62.175 381.975 64.075H374.05C374.25 61.375 376.1 60.275 378.1 60.275ZM398.376 72V58.55H396.101V64.15H389.451V58.55H387.176V72H389.451V66.125H396.101V72H398.376ZM28.724 88.325C26.724 88.325 24.924 89.2 24.024 91.075C24.349 87.725 25.924 86.5 29.199 85.775L33.499 84.85V82.825L29.074 83.7C23.674 84.775 22.074 87.6 21.999 92.45V94C21.999 98.9 24.849 101.325 28.324 101.325C31.624 101.325 34.399 99.025 34.399 94.7C34.399 90.45 31.774 88.325 28.724 88.325ZM28.324 99.35C26.049 99.35 24.449 97.575 24.449 94.725C24.449 91.7 26.299 90.3 28.349 90.3C30.424 90.3 31.974 91.8 31.974 94.75C31.974 97.675 30.524 99.35 28.324 99.35ZM41.9283 101C45.0033 101 46.9783 99.875 46.9783 96.55C46.9783 93.675 45.4533 92.3 41.9533 92.3H39.3533V87.55H37.0783V101H41.9283ZM39.3533 94.275H41.6533C43.7533 94.275 44.7533 94.75 44.7533 96.55C44.7533 98.375 43.7283 99.025 41.7283 99.025H39.3533V94.275ZM51.4783 101V87.55H49.2033V101H51.4783ZM65.265 89.525V87.55H53.79V89.525H58.39V101H60.665V89.525H65.265ZM69.8465 92.3V87.55H67.5715V101H73.0215C76.1215 101 78.0715 99.875 78.0715 96.55C78.0715 93.675 76.5715 92.3 73.0465 92.3H69.8465ZM69.8465 99.025V94.275H72.7715C74.7965 94.275 75.8465 94.775 75.8465 96.55C75.8465 98.35 74.8215 99.025 72.8215 99.025H69.8465ZM95.2156 101H98.0406L92.4406 93.9L97.5156 87.55H94.8156L90.5406 93.05H88.8656V87.55H86.5656V101H88.8656V95.025H90.5906L95.2156 101ZM108.246 95.375C108.246 98.55 106.221 99.525 104.096 99.525C102.471 99.525 101.496 98.675 101.496 97.4C101.496 95.55 104.121 94.925 108.246 94.525V95.375ZM103.596 101.325C105.996 101.325 107.371 100.55 108.196 99.15C108.221 99.95 108.296 100.5 108.371 101H110.671C110.396 99.725 110.296 98.2 110.321 95.925L110.346 92.825C110.371 89.025 108.721 87.275 104.996 87.275C102.396 87.275 99.7957 88.9 99.5957 91.8H101.946C102.046 90.125 103.121 89.125 105.021 89.125C106.721 89.125 108.071 89.925 108.071 92.4V92.725C102.571 93.325 98.9707 94.275 98.9707 97.45C98.9707 99.925 101.071 101.325 103.596 101.325ZM123.761 101V87.55H121.486V93.675C120.236 93.975 119.186 94.125 118.311 94.125C116.411 94.125 115.461 93.45 115.461 91.45V87.55H113.186V91.925C113.186 94.85 114.661 96.1 117.486 96.1C118.711 96.1 119.911 95.925 121.486 95.55V101H123.761ZM139.356 95.025C139.631 90.75 137.206 87.325 133.081 87.325C129.406 87.325 126.556 90.025 126.556 94.3C126.556 98.275 128.906 101.325 133.156 101.325C136.431 101.325 138.581 99.4 139.181 97.1H136.831C136.256 98.425 135.156 99.325 133.156 99.325C131.181 99.325 129.081 97.925 129.006 95.025H139.356ZM133.081 89.275C135.506 89.275 136.881 91.175 136.956 93.075H129.031C129.231 90.375 131.081 89.275 133.081 89.275ZM147.729 87.325C143.754 87.325 141.229 90.3 141.229 94.3C141.229 98.4 143.629 101.325 147.504 101.325C150.654 101.325 153.029 99.15 153.504 96.625H151.154C150.829 98.025 149.504 99.325 147.579 99.325C145.579 99.325 143.704 97.675 143.704 94.275C143.704 90.9 145.579 89.325 147.579 89.325C149.354 89.325 150.729 90.45 151.054 92.05H153.354C153.029 89.75 151.029 87.325 147.729 87.325ZM165.68 89.525V87.55H154.205V89.525H158.805V101H161.08V89.525H165.68ZM167.987 87.55V101H174.237C177.112 101 179.287 99.875 179.287 97.075C179.287 95.275 178.262 94.325 176.862 93.925C178.112 93.4 178.737 92.4 178.737 90.975C178.737 88.25 176.537 87.55 173.837 87.55H167.987ZM170.262 93.2V89.525H173.612C175.312 89.525 176.362 89.825 176.362 91.225C176.362 92.75 175.362 93.2 173.687 93.2H170.262ZM170.262 95.075H173.812C175.912 95.075 176.912 95.55 176.912 97.05C176.912 98.45 175.887 99.025 173.887 99.025H170.262V95.075ZM193.701 95.025C193.976 90.75 191.551 87.325 187.426 87.325C183.751 87.325 180.901 90.025 180.901 94.3C180.901 98.275 183.251 101.325 187.501 101.325C190.776 101.325 192.926 99.4 193.526 97.1H191.176C190.601 98.425 189.501 99.325 187.501 99.325C185.526 99.325 183.426 97.925 183.351 95.025H193.701ZM187.426 89.275C189.851 89.275 191.226 91.175 191.301 93.075H183.376C183.576 90.375 185.426 89.275 187.426 89.275ZM207.702 101V87.55H205.427V93.15H198.777V87.55H196.502V101H198.777V95.125H205.427V101H207.702ZM216.391 101C219.466 101 221.441 99.875 221.441 96.55C221.441 93.675 219.916 92.3 216.416 92.3H213.816V87.55H211.541V101H216.391ZM213.816 94.275H216.116C218.216 94.275 219.216 94.75 219.216 96.55C219.216 98.375 218.191 99.025 216.191 99.025H213.816V94.275ZM225.941 101V87.55H223.666V101H225.941ZM237.853 82.875C237.753 83.675 237.128 84.4 235.653 84.4C234.178 84.4 233.578 83.675 233.478 82.875H231.703C231.828 84.375 232.878 85.9 235.628 85.9C238.478 85.9 239.428 84.375 239.628 82.875H237.853ZM239.028 101H241.303V87.55H239.028L232.078 97.7V87.55H229.803V101H232.078L239.028 90.85V101ZM244.859 101H246.084L244.759 104.475H246.209L247.734 101.2V98.125H244.859V101ZM265.87 101H268.695L263.095 93.9L268.17 87.55H265.47L261.195 93.05H259.52V87.55H257.22V101H259.52V95.025H261.245L265.87 101ZM271.804 94.325C271.804 90.65 273.754 89.325 275.829 89.325C277.904 89.325 279.854 90.725 279.854 94.325C279.854 97.775 277.904 99.325 275.829 99.325C273.754 99.325 271.804 97.925 271.804 94.325ZM275.829 87.325C272.704 87.325 269.379 89.45 269.379 94.325C269.379 99.2 272.704 101.325 275.829 101.325C278.954 101.325 282.279 99.2 282.279 94.325C282.279 89.45 278.954 87.325 275.829 87.325ZM299.825 87.55H296.575L292.55 97.9L288.375 87.55H285.125V101H287.35V90.35L291.65 101H293.275L297.6 90.2V101H299.825V87.55ZM311.83 82.875H309.555V87.575C305.655 87.575 302.63 89.75 302.63 94.325C302.63 99.05 305.655 101.125 309.555 101.125V105.375H311.83V101.125C315.705 101.125 318.755 99.05 318.755 94.325C318.755 89.75 315.755 87.575 311.83 87.575V82.875ZM309.555 99.175C306.88 99.175 305.055 97.675 305.055 94.4C305.055 91.1 306.955 89.525 309.555 89.525V99.175ZM311.83 89.525C314.505 89.525 316.33 91.1 316.33 94.4C316.33 97.675 314.43 99.175 311.83 99.175V89.525ZM323.171 94.325C323.171 90.65 325.121 89.325 327.196 89.325C329.271 89.325 331.221 90.725 331.221 94.325C331.221 97.775 329.271 99.325 327.196 99.325C325.121 99.325 323.171 97.925 323.171 94.325ZM327.196 87.325C324.071 87.325 320.746 89.45 320.746 94.325C320.746 99.2 324.071 101.325 327.196 101.325C330.321 101.325 333.646 99.2 333.646 94.325C333.646 89.45 330.321 87.325 327.196 87.325ZM336.492 87.55V105.375H338.767V98.975C339.592 100.4 340.992 101.325 343.167 101.325C346.267 101.325 348.917 98.8 348.917 94.325C348.917 89.925 346.267 87.325 343.167 87.325C340.992 87.325 339.592 88.25 338.767 89.675V87.55H336.492ZM338.667 94.325C338.667 90.775 340.567 89.275 342.592 89.275C344.917 89.275 346.442 91.1 346.442 94.325C346.442 97.55 344.917 99.375 342.592 99.375C340.567 99.375 338.667 97.875 338.667 94.325ZM361.212 89.525V87.55H349.737V89.525H354.337V101H356.612V89.525H361.212ZM374.719 101V87.55H372.444V93.15H365.794V87.55H363.519V101H365.794V95.125H372.444V101H374.719ZM383.408 101C386.483 101 388.458 99.875 388.458 96.55C388.458 93.675 386.933 92.3 383.433 92.3H380.833V87.55H378.558V101H383.408ZM380.833 94.275H383.133C385.233 94.275 386.233 94.75 386.233 96.55C386.233 98.375 385.208 99.025 383.208 99.025H380.833V94.275ZM392.958 101V87.55H390.683V101H392.958ZM404.87 82.875C404.77 83.675 404.145 84.4 402.67 84.4C401.195 84.4 400.595 83.675 400.495 82.875H398.72C398.845 84.375 399.895 85.9 402.645 85.9C405.495 85.9 406.445 84.375 406.645 82.875H404.87ZM406.045 101H408.32V87.55H406.045L399.095 97.7V87.55H396.82V101H399.095L406.045 90.85V101ZM121.547 130H123.822V116.55H121.547L114.597 126.7V116.55H112.322V130H114.597L121.547 119.85V130ZM135.037 123.325C135.037 119.65 136.987 118.325 139.062 118.325C141.137 118.325 143.087 119.725 143.087 123.325C143.087 126.775 141.137 128.325 139.062 128.325C136.987 128.325 135.037 126.925 135.037 123.325ZM139.062 116.325C135.937 116.325 132.612 118.45 132.612 123.325C132.612 128.2 135.937 130.325 139.062 130.325C142.187 130.325 145.512 128.2 145.512 123.325C145.512 118.45 142.187 116.325 139.062 116.325ZM148.358 116.55V134.375H150.633V127.975C151.458 129.4 152.858 130.325 155.033 130.325C158.133 130.325 160.783 127.8 160.783 123.325C160.783 118.925 158.133 116.325 155.033 116.325C152.858 116.325 151.458 117.25 150.633 118.675V116.55H148.358ZM150.533 123.325C150.533 119.775 152.433 118.275 154.458 118.275C156.783 118.275 158.308 120.1 158.308 123.325C158.308 126.55 156.783 128.375 154.458 128.375C152.433 128.375 150.533 126.875 150.533 123.325ZM172.167 118.525V116.55H163.592V130H165.867V118.525H172.167ZM182.562 124.375C182.562 127.55 180.537 128.525 178.412 128.525C176.787 128.525 175.812 127.675 175.812 126.4C175.812 124.55 178.437 123.925 182.562 123.525V124.375ZM177.912 130.325C180.312 130.325 181.687 129.55 182.512 128.15C182.537 128.95 182.612 129.5 182.687 130H184.987C184.712 128.725 184.612 127.2 184.637 124.925L184.662 121.825C184.687 118.025 183.037 116.275 179.312 116.275C176.712 116.275 174.112 117.9 173.912 120.8H176.262C176.362 119.125 177.437 118.125 179.337 118.125C181.037 118.125 182.387 118.925 182.387 121.4V121.725C176.887 122.325 173.287 123.275 173.287 126.45C173.287 128.925 175.387 130.325 177.912 130.325ZM199.377 130V116.55H197.102V122.15H190.452V116.55H188.177V130H190.452V124.125H197.102V130H199.377ZM212.441 130H214.716V116.55H212.441L205.491 126.7V116.55H203.216V130H205.491L212.441 119.85V130ZM225.772 122.95C226.972 122.375 227.897 121.425 227.897 120.05C227.897 117.525 225.447 116.25 222.797 116.25C219.972 116.25 217.797 117.775 217.322 120.7H219.672C219.972 118.875 221.247 118.25 222.922 118.25C224.397 118.25 225.547 118.825 225.547 120.1C225.547 121.5 224.597 122.2 223.022 122.2H220.997V124.075H223.147C225.047 124.075 226.072 124.7 226.072 126.275C226.072 127.55 224.872 128.425 222.972 128.425C221.047 128.425 219.772 127.625 219.397 125.9H217.097C217.572 128.975 219.947 130.325 222.822 130.325C225.822 130.325 228.497 129.075 228.497 126.175C228.497 124.375 227.197 123.35 225.772 122.95ZM232.62 123.325C232.62 119.65 234.57 118.325 236.645 118.325C238.72 118.325 240.67 119.725 240.67 123.325C240.67 126.775 238.72 128.325 236.645 128.325C234.57 128.325 232.62 126.925 232.62 123.325ZM236.645 116.325C233.52 116.325 230.195 118.45 230.195 123.325C230.195 128.2 233.52 130.325 236.645 130.325C239.77 130.325 243.095 128.2 243.095 123.325C243.095 118.45 239.77 116.325 236.645 116.325ZM245.941 116.55V130H252.191C255.066 130 257.241 128.875 257.241 126.075C257.241 124.275 256.216 123.325 254.816 122.925C256.066 122.4 256.691 121.4 256.691 119.975C256.691 117.25 254.491 116.55 251.791 116.55H245.941ZM248.216 122.2V118.525H251.566C253.266 118.525 254.316 118.825 254.316 120.225C254.316 121.75 253.316 122.2 251.641 122.2H248.216ZM248.216 124.075H251.766C253.866 124.075 254.866 124.55 254.866 126.05C254.866 127.45 253.841 128.025 251.841 128.025H248.216V124.075ZM268.255 124.375C268.255 127.55 266.23 128.525 264.105 128.525C262.48 128.525 261.505 127.675 261.505 126.4C261.505 124.55 264.13 123.925 268.255 123.525V124.375ZM263.605 130.325C266.005 130.325 267.38 129.55 268.205 128.15C268.23 128.95 268.305 129.5 268.38 130H270.68C270.405 128.725 270.305 127.2 270.33 124.925L270.355 121.825C270.38 118.025 268.73 116.275 265.005 116.275C262.405 116.275 259.805 117.9 259.605 120.8H261.955C262.055 119.125 263.13 118.125 265.03 118.125C266.73 118.125 268.08 118.925 268.08 121.4V121.725C262.58 122.325 258.98 123.275 258.98 126.45C258.98 128.925 261.08 130.325 263.605 130.325ZM285.07 130V116.55H282.795V122.15H276.145V116.55H273.87V130H276.145V124.125H282.795V130H285.07ZM293.759 130C296.834 130 298.809 128.875 298.809 125.55C298.809 122.675 297.284 121.3 293.784 121.3H291.184V116.55H288.909V130H293.759ZM291.184 123.275H293.484C295.584 123.275 296.584 123.75 296.584 125.55C296.584 127.375 295.559 128.025 293.559 128.025H291.184V123.275ZM303.309 130V116.55H301.034V130H303.309ZM315.221 111.875C315.121 112.675 314.496 113.4 313.021 113.4C311.546 113.4 310.946 112.675 310.846 111.875H309.071C309.196 113.375 310.246 114.9 312.996 114.9C315.846 114.9 316.796 113.375 316.996 111.875H315.221ZM316.396 130H318.671V116.55H316.396L309.446 126.7V116.55H307.171V130H309.446L316.396 119.85V130Z" fill="black"/>
<path d="M865.367 62.925C865.367 58.25 867.967 55.7 871.267 55.7C874.567 55.7 877.167 58.25 877.167 62.925C877.167 67.6 874.567 70.175 871.267 70.175C867.967 70.175 865.367 67.6 865.367 62.925ZM879.767 62.925C879.767 57.45 876.492 53.55 871.267 53.55C866.042 53.55 862.767 57.45 862.767 62.925C862.767 68.4 866.042 72.325 871.267 72.325C876.492 72.325 879.767 68.4 879.767 62.925ZM894.048 58.55H882.973V72H885.248V60.525H891.773V72H894.048V58.55ZM907.115 72H909.39V58.55H907.115L900.165 68.7V58.55H897.89V72H900.165L907.115 61.85V72ZM913.246 58.55V76.375H915.521V69.975C916.346 71.4 917.746 72.325 919.921 72.325C923.021 72.325 925.671 69.8 925.671 65.325C925.671 60.925 923.021 58.325 919.921 58.325C917.746 58.325 916.346 59.25 915.521 60.675V58.55H913.246ZM915.421 65.325C915.421 61.775 917.321 60.275 919.346 60.275C921.671 60.275 923.196 62.1 923.196 65.325C923.196 68.55 921.671 70.375 919.346 70.375C917.321 70.375 915.421 68.875 915.421 65.325ZM936.831 66.375C936.831 69.55 934.806 70.525 932.681 70.525C931.056 70.525 930.081 69.675 930.081 68.4C930.081 66.55 932.706 65.925 936.831 65.525V66.375ZM932.181 72.325C934.581 72.325 935.956 71.55 936.781 70.15C936.806 70.95 936.881 71.5 936.956 72H939.256C938.981 70.725 938.881 69.2 938.906 66.925L938.931 63.825C938.956 60.025 937.306 58.275 933.581 58.275C930.981 58.275 928.381 59.9 928.181 62.8H930.531C930.631 61.125 931.706 60.125 933.606 60.125C935.306 60.125 936.656 60.925 936.656 63.4V63.725C931.156 64.325 927.556 65.275 927.556 68.45C927.556 70.925 929.656 72.325 932.181 72.325ZM954.196 66.025C954.471 61.75 952.046 58.325 947.921 58.325C944.246 58.325 941.396 61.025 941.396 65.3C941.396 69.275 943.746 72.325 947.996 72.325C951.271 72.325 953.421 70.4 954.021 68.1H951.671C951.096 69.425 949.996 70.325 947.996 70.325C946.021 70.325 943.921 68.925 943.846 66.025H954.196ZM947.921 60.275C950.346 60.275 951.721 62.175 951.796 64.075H943.871C944.071 61.375 945.921 60.275 947.921 60.275ZM971.696 58.55H968.446L964.421 68.9L960.246 58.55H956.996V72H959.221V61.35L963.521 72H965.146L969.471 61.2V72H971.696V58.55ZM981.001 58.325C977.026 58.325 974.501 61.3 974.501 65.3C974.501 69.4 976.901 72.325 980.776 72.325C983.926 72.325 986.301 70.15 986.776 67.625H984.426C984.101 69.025 982.776 70.325 980.851 70.325C978.851 70.325 976.976 68.675 976.976 65.275C976.976 61.9 978.851 60.325 980.851 60.325C982.626 60.325 984.001 61.45 984.326 63.05H986.626C986.301 60.75 984.301 58.325 981.001 58.325ZM999.051 58.55H993.776C990.676 58.55 988.776 59.925 988.776 62.7C988.776 64.7 989.926 66 991.626 66.575L987.551 72H990.376L994.026 67.2C994.151 67.225 994.276 67.225 994.401 67.225H996.776V72H999.051V58.55ZM996.776 60.525V65.25H994.101C992.526 65.25 991.101 64.675 991.101 62.85C991.101 61.225 992.226 60.525 993.901 60.525H996.776ZM1020.03 72V58.55H1017.75V64.15H1011.1V58.55H1008.83V72H1011.1V66.125H1017.75V72H1020.03ZM1032.22 66.375C1032.22 69.55 1030.19 70.525 1028.07 70.525C1026.44 70.525 1025.47 69.675 1025.47 68.4C1025.47 66.55 1028.09 65.925 1032.22 65.525V66.375ZM1027.57 72.325C1029.97 72.325 1031.34 71.55 1032.17 70.15C1032.19 70.95 1032.27 71.5 1032.34 72H1034.64C1034.37 70.725 1034.27 69.2 1034.29 66.925L1034.32 63.825C1034.34 60.025 1032.69 58.275 1028.97 58.275C1026.37 58.275 1023.77 59.9 1023.57 62.8H1025.92C1026.02 61.125 1027.09 60.125 1028.99 60.125C1030.69 60.125 1032.04 60.925 1032.04 63.4V63.725C1026.54 64.325 1022.94 65.275 1022.94 68.45C1022.94 70.925 1025.04 72.325 1027.57 72.325ZM1043.76 58.55V72H1050.01C1052.89 72 1055.06 70.875 1055.06 68.075C1055.06 66.275 1054.04 65.325 1052.64 64.925C1053.89 64.4 1054.51 63.4 1054.51 61.975C1054.51 59.25 1052.31 58.55 1049.61 58.55H1043.76ZM1046.04 64.2V60.525H1049.39C1051.09 60.525 1052.14 60.825 1052.14 62.225C1052.14 63.75 1051.14 64.2 1049.46 64.2H1046.04ZM1046.04 66.075H1049.59C1051.69 66.075 1052.69 66.55 1052.69 68.05C1052.69 69.45 1051.66 70.025 1049.66 70.025H1046.04V66.075ZM1064.93 64.95C1066.13 64.375 1067.05 63.425 1067.05 62.05C1067.05 59.525 1064.6 58.25 1061.95 58.25C1059.13 58.25 1056.95 59.775 1056.48 62.7H1058.83C1059.13 60.875 1060.4 60.25 1062.08 60.25C1063.55 60.25 1064.7 60.825 1064.7 62.1C1064.7 63.5 1063.75 64.2 1062.18 64.2H1060.15V66.075H1062.3C1064.2 66.075 1065.23 66.7 1065.23 68.275C1065.23 69.55 1064.03 70.425 1062.13 70.425C1060.2 70.425 1058.93 69.625 1058.55 67.9H1056.25C1056.73 70.975 1059.1 72.325 1061.98 72.325C1064.98 72.325 1067.65 71.075 1067.65 68.175C1067.65 66.375 1066.35 65.35 1064.93 64.95ZM1078.7 66.375C1078.7 69.55 1076.68 70.525 1074.55 70.525C1072.93 70.525 1071.95 69.675 1071.95 68.4C1071.95 66.55 1074.58 65.925 1078.7 65.525V66.375ZM1074.05 72.325C1076.45 72.325 1077.83 71.55 1078.65 70.15C1078.68 70.95 1078.75 71.5 1078.83 72H1081.13C1080.85 70.725 1080.75 69.2 1080.78 66.925L1080.8 63.825C1080.83 60.025 1079.18 58.275 1075.45 58.275C1072.85 58.275 1070.25 59.9 1070.05 62.8H1072.4C1072.5 61.125 1073.58 60.125 1075.48 60.125C1077.18 60.125 1078.53 60.925 1078.53 63.4V63.725C1073.03 64.325 1069.43 65.275 1069.43 68.45C1069.43 70.925 1071.53 72.325 1074.05 72.325ZM1093.54 72H1095.82V58.55H1093.54L1086.59 68.7V58.55H1084.32V72H1086.59L1093.54 61.85V72ZM1114.37 58.55H1111.12L1107.1 68.9L1102.92 58.55H1099.67V72H1101.9V61.35L1106.2 72H1107.82L1112.15 61.2V72H1114.37V58.55ZM1119.65 65.325C1119.65 61.65 1121.6 60.325 1123.68 60.325C1125.75 60.325 1127.7 61.725 1127.7 65.325C1127.7 68.775 1125.75 70.325 1123.68 70.325C1121.6 70.325 1119.65 68.925 1119.65 65.325ZM1123.68 58.325C1120.55 58.325 1117.23 60.45 1117.23 65.325C1117.23 70.2 1120.55 72.325 1123.68 72.325C1126.8 72.325 1130.13 70.2 1130.13 65.325C1130.13 60.45 1126.8 58.325 1123.68 58.325ZM1144.05 58.55H1132.97V72H1135.25V60.525H1141.77V72H1144.05V58.55ZM1149.31 65.325C1149.31 61.65 1151.26 60.325 1153.34 60.325C1155.41 60.325 1157.36 61.725 1157.36 65.325C1157.36 68.775 1155.41 70.325 1153.34 70.325C1151.26 70.325 1149.31 68.925 1149.31 65.325ZM1153.34 58.325C1150.21 58.325 1146.89 60.45 1146.89 65.325C1146.89 70.2 1150.21 72.325 1153.34 72.325C1156.46 72.325 1159.79 70.2 1159.79 65.325C1159.79 60.45 1156.46 58.325 1153.34 58.325ZM1177.34 58.55H1174.09L1170.06 68.9L1165.89 58.55H1162.64V72H1164.86V61.35L1169.16 72H1170.79L1175.11 61.2V72H1177.34V58.55ZM1182.62 65.325C1182.62 61.65 1184.57 60.325 1186.64 60.325C1188.72 60.325 1190.67 61.725 1190.67 65.325C1190.67 68.775 1188.72 70.325 1186.64 70.325C1184.57 70.325 1182.62 68.925 1182.62 65.325ZM1186.64 58.325C1183.52 58.325 1180.19 60.45 1180.19 65.325C1180.19 70.2 1183.52 72.325 1186.64 72.325C1189.77 72.325 1193.09 70.2 1193.09 65.325C1193.09 60.45 1189.77 58.325 1186.64 58.325ZM1212.51 58.55H1210.24V70.025H1205.36V58.55H1203.09V70.025H1198.21V58.55H1195.94V72H1212.51V58.55ZM1218.65 63.3V58.55H1216.37V72H1221.82C1224.92 72 1226.87 70.875 1226.87 67.55C1226.87 64.675 1225.37 63.3 1221.85 63.3H1218.65ZM1218.65 70.025V65.275H1221.57C1223.6 65.275 1224.65 65.775 1224.65 67.55C1224.65 69.35 1223.62 70.025 1221.62 70.025H1218.65ZM919.969 101H922.244V87.55H919.969L913.019 97.7V87.55H910.744V101H913.019L919.969 90.85V101ZM937.483 87.325C933.508 87.325 930.983 90.3 930.983 94.3C930.983 98.4 933.383 101.325 937.258 101.325C940.408 101.325 942.783 99.15 943.258 96.625H940.908C940.583 98.025 939.258 99.325 937.333 99.325C935.333 99.325 933.458 97.675 933.458 94.275C933.458 90.9 935.333 89.325 937.333 89.325C939.108 89.325 940.483 90.45 940.808 92.05H943.108C942.783 89.75 940.783 87.325 937.483 87.325ZM945.949 87.55V101H952.199C955.074 101 957.249 99.875 957.249 97.075C957.249 95.275 956.224 94.325 954.824 93.925C956.074 93.4 956.699 92.4 956.699 90.975C956.699 88.25 954.499 87.55 951.799 87.55H945.949ZM948.224 93.2V89.525H951.574C953.274 89.525 954.324 89.825 954.324 91.225C954.324 92.75 953.324 93.2 951.649 93.2H948.224ZM948.224 95.075H951.774C953.874 95.075 954.874 95.55 954.874 97.05C954.874 98.45 953.849 99.025 951.849 99.025H948.224V95.075ZM970.059 87.55H964.784C961.684 87.55 959.784 88.925 959.784 91.7C959.784 93.7 960.934 95 962.634 95.575L958.559 101H961.384L965.034 96.2C965.159 96.225 965.284 96.225 965.409 96.225H967.784V101H970.059V87.55ZM967.784 89.525V94.25H965.109C963.534 94.25 962.109 93.675 962.109 91.85C962.109 90.225 963.234 89.525 964.909 89.525H967.784ZM981.103 93.95C982.303 93.375 983.228 92.425 983.228 91.05C983.228 88.525 980.778 87.25 978.128 87.25C975.303 87.25 973.128 88.775 972.653 91.7H975.003C975.303 89.875 976.578 89.25 978.253 89.25C979.728 89.25 980.878 89.825 980.878 91.1C980.878 92.5 979.928 93.2 978.353 93.2H976.328V95.075H978.478C980.378 95.075 981.403 95.7 981.403 97.275C981.403 98.55 980.203 99.425 978.303 99.425C976.378 99.425 975.103 98.625 974.728 96.9H972.428C972.903 99.975 975.278 101.325 978.153 101.325C981.153 101.325 983.828 100.075 983.828 97.175C983.828 95.375 982.528 94.35 981.103 93.95ZM988.8 92.3V87.55H986.525V101H991.975C995.075 101 997.025 99.875 997.025 96.55C997.025 93.675 995.525 92.3 992 92.3H988.8ZM988.8 99.025V94.275H991.725C993.75 94.275 994.8 94.775 994.8 96.55C994.8 98.35 993.775 99.025 991.775 99.025H988.8ZM1010.97 87.325C1006.99 87.325 1004.47 90.3 1004.47 94.3C1004.47 98.4 1006.87 101.325 1010.74 101.325C1013.89 101.325 1016.27 99.15 1016.74 96.625H1014.39C1014.07 98.025 1012.74 99.325 1010.82 99.325C1008.82 99.325 1006.94 97.675 1006.94 94.275C1006.94 90.9 1008.82 89.325 1010.82 89.325C1012.59 89.325 1013.97 90.45 1014.29 92.05H1016.59C1016.27 89.75 1014.27 87.325 1010.97 87.325ZM1028.92 89.525V87.55H1017.45V89.525H1022.05V101H1024.32V89.525H1028.92ZM1030.43 105.375H1031.6C1034.63 105.375 1035.28 104.475 1036.28 101.575L1041.08 87.55H1038.7L1035.38 97.925L1031.95 87.55H1029.43L1034.28 101L1034.18 101.275C1033.58 103.375 1032.85 103.475 1031.35 103.475H1030.43V105.375ZM1054.94 99.025H1053.06V87.55H1043.99L1043.81 91.875C1043.61 97.025 1042.81 99.025 1041.29 99.025H1040.69V103.975H1042.89V101H1052.74V103.975H1054.94V99.025ZM1050.79 99.025H1044.24C1045.29 98.025 1045.86 96.075 1046.06 92.1L1046.19 89.525H1050.79V99.025ZM1068.98 95.025C1069.25 90.75 1066.83 87.325 1062.7 87.325C1059.03 87.325 1056.18 90.025 1056.18 94.3C1056.18 98.275 1058.53 101.325 1062.78 101.325C1066.05 101.325 1068.2 99.4 1068.8 97.1H1066.45C1065.88 98.425 1064.78 99.325 1062.78 99.325C1060.8 99.325 1058.7 97.925 1058.63 95.025H1068.98ZM1062.7 89.275C1065.13 89.275 1066.5 91.175 1066.58 93.075H1058.65C1058.85 90.375 1060.7 89.275 1062.7 89.275ZM1082.98 101V87.55H1080.7V93.15H1074.05V87.55H1071.78V101H1074.05V95.125H1080.7V101H1082.98ZM1096.72 101V87.55H1094.44V93.675C1093.19 93.975 1092.14 94.125 1091.27 94.125C1089.37 94.125 1088.42 93.45 1088.42 91.45V87.55H1086.14V91.925C1086.14 94.85 1087.62 96.1 1090.44 96.1C1091.67 96.1 1092.87 95.925 1094.44 95.55V101H1096.72ZM1112.31 95.025C1112.59 90.75 1110.16 87.325 1106.04 87.325C1102.36 87.325 1099.51 90.025 1099.51 94.3C1099.51 98.275 1101.86 101.325 1106.11 101.325C1109.39 101.325 1111.54 99.4 1112.14 97.1H1109.79C1109.21 98.425 1108.11 99.325 1106.11 99.325C1104.14 99.325 1102.04 97.925 1101.96 95.025H1112.31ZM1106.04 89.275C1108.46 89.275 1109.84 91.175 1109.91 93.075H1101.99C1102.19 90.375 1104.04 89.275 1106.04 89.275ZM1120.69 87.325C1116.71 87.325 1114.19 90.3 1114.19 94.3C1114.19 98.4 1116.59 101.325 1120.46 101.325C1123.61 101.325 1125.99 99.15 1126.46 96.625H1124.11C1123.79 98.025 1122.46 99.325 1120.54 99.325C1118.54 99.325 1116.66 97.675 1116.66 94.275C1116.66 90.9 1118.54 89.325 1120.54 89.325C1122.31 89.325 1123.69 90.45 1124.01 92.05H1126.31C1125.99 89.75 1123.99 87.325 1120.69 87.325ZM1137.8 101H1140.63L1135.03 93.9L1140.1 87.55H1137.4L1133.13 93.05H1131.45V87.55H1129.15V101H1131.45V95.025H1133.18L1137.8 101ZM1143.74 94.325C1143.74 90.65 1145.69 89.325 1147.76 89.325C1149.84 89.325 1151.79 90.725 1151.79 94.325C1151.79 97.775 1149.84 99.325 1147.76 99.325C1145.69 99.325 1143.74 97.925 1143.74 94.325ZM1147.76 87.325C1144.64 87.325 1141.31 89.45 1141.31 94.325C1141.31 99.2 1144.64 101.325 1147.76 101.325C1150.89 101.325 1154.21 99.2 1154.21 94.325C1154.21 89.45 1150.89 87.325 1147.76 87.325ZM1165.63 89.525V87.55H1157.06V101H1159.33V89.525H1165.63ZM1168.79 94.325C1168.79 90.65 1170.74 89.325 1172.81 89.325C1174.89 89.325 1176.84 90.725 1176.84 94.325C1176.84 97.775 1174.89 99.325 1172.81 99.325C1170.74 99.325 1168.79 97.925 1168.79 94.325ZM1172.81 87.325C1169.69 87.325 1166.36 89.45 1166.36 94.325C1166.36 99.2 1169.69 101.325 1172.81 101.325C1175.94 101.325 1179.26 99.2 1179.26 94.325C1179.26 89.45 1175.94 87.325 1172.81 87.325ZM986.142 130H988.967L983.367 122.9L988.442 116.55H985.742L981.467 122.05H979.792V116.55H977.492V130H979.792V124.025H981.517L986.142 130ZM992.076 123.325C992.076 119.65 994.026 118.325 996.101 118.325C998.176 118.325 1000.13 119.725 1000.13 123.325C1000.13 126.775 998.176 128.325 996.101 128.325C994.026 128.325 992.076 126.925 992.076 123.325ZM996.101 116.325C992.976 116.325 989.651 118.45 989.651 123.325C989.651 128.2 992.976 130.325 996.101 130.325C999.226 130.325 1002.55 128.2 1002.55 123.325C1002.55 118.45 999.226 116.325 996.101 116.325ZM1020.1 116.55H1016.85L1012.82 126.9L1008.65 116.55H1005.4V130H1007.62V119.35L1011.92 130H1013.55L1017.87 119.2V130H1020.1V116.55ZM1026.23 121.3V116.55H1023.95V130H1029.4C1032.5 130 1034.45 128.875 1034.45 125.55C1034.45 122.675 1032.95 121.3 1029.43 121.3H1026.23ZM1026.23 128.025V123.275H1029.15C1031.18 123.275 1032.23 123.775 1032.23 125.55C1032.23 127.35 1031.2 128.025 1029.2 128.025H1026.23ZM1048.06 116.325C1045.31 116.325 1042.49 118.075 1042.01 122.15H1039.29V116.55H1037.01V130H1039.29V124.125H1041.96C1042.29 128.425 1045.26 130.325 1048.06 130.325C1051.19 130.325 1054.51 128.2 1054.51 123.325C1054.51 118.45 1051.19 116.325 1048.06 116.325ZM1048.06 128.325C1046.19 128.325 1044.36 126.925 1044.36 123.325C1044.36 119.65 1046.19 118.325 1048.06 118.325C1050.14 118.325 1052.09 119.725 1052.09 123.325C1052.09 126.775 1050.14 128.325 1048.06 128.325ZM1068.57 130V116.55H1066.3V122.15H1059.65V116.55H1057.37V130H1059.65V124.125H1066.3V130H1068.57ZM1081.64 130H1083.91V116.55H1081.64L1074.69 126.7V116.55H1072.41V130H1074.69L1081.64 119.85V130ZM1097.7 118.525V116.55H1086.22V118.525H1090.82V130H1093.1V118.525H1097.7ZM1109.23 130H1111.5V116.55H1109.23L1102.28 126.7V116.55H1100V130H1102.28L1109.23 119.85V130Z" fill="black"/>
<path d="M512.989 62.925C512.989 58.25 515.589 55.7 518.889 55.7C522.189 55.7 524.789 58.25 524.789 62.925C524.789 67.6 522.189 70.175 518.889 70.175C515.589 70.175 512.989 67.6 512.989 62.925ZM527.389 62.925C527.389 57.45 524.114 53.55 518.889 53.55C513.664 53.55 510.389 57.45 510.389 62.925C510.389 68.4 513.664 72.325 518.889 72.325C524.114 72.325 527.389 68.4 527.389 62.925ZM536.645 59.325C534.645 59.325 532.845 60.2 531.945 62.075C532.27 58.725 533.845 57.5 537.12 56.775L541.42 55.85V53.825L536.995 54.7C531.595 55.775 529.995 58.6 529.92 63.45V65C529.92 69.9 532.77 72.325 536.245 72.325C539.545 72.325 542.32 70.025 542.32 65.7C542.32 61.45 539.695 59.325 536.645 59.325ZM536.245 70.35C533.97 70.35 532.37 68.575 532.37 65.725C532.37 62.7 534.22 61.3 536.27 61.3C538.345 61.3 539.895 62.8 539.895 65.75C539.895 68.675 538.445 70.35 536.245 70.35ZM544.077 76.375H545.252C548.277 76.375 548.927 75.475 549.927 72.575L554.727 58.55H552.352L549.027 68.925L545.602 58.55H543.077L547.927 72L547.827 72.275C547.227 74.375 546.502 74.475 545.002 74.475H544.077V76.375ZM566.667 72V58.55H564.392V64.675C563.142 64.975 562.092 65.125 561.217 65.125C559.317 65.125 558.367 64.45 558.367 62.45V58.55H556.092V62.925C556.092 65.85 557.567 67.1 560.392 67.1C561.617 67.1 562.817 66.925 564.392 66.55V72H566.667ZM582.262 66.025C582.537 61.75 580.112 58.325 575.987 58.325C572.312 58.325 569.462 61.025 569.462 65.3C569.462 69.275 571.812 72.325 576.062 72.325C579.337 72.325 581.487 70.4 582.087 68.1H579.737C579.162 69.425 578.062 70.325 576.062 70.325C574.087 70.325 571.987 68.925 571.912 66.025H582.262ZM575.987 60.275C578.412 60.275 579.787 62.175 579.862 64.075H571.937C572.137 61.375 573.987 60.275 575.987 60.275ZM596.263 72V58.55H593.988V64.15H587.338V58.55H585.063V72H587.338V66.125H593.988V72H596.263ZM609.327 72H611.602V58.55H609.327L602.377 68.7V58.55H600.102V72H602.377L609.327 61.85V72ZM627.208 66.025C627.483 61.75 625.058 58.325 620.933 58.325C617.258 58.325 614.408 61.025 614.408 65.3C614.408 69.275 616.758 72.325 621.008 72.325C624.283 72.325 626.433 70.4 627.033 68.1H624.683C624.108 69.425 623.008 70.325 621.008 70.325C619.033 70.325 616.933 68.925 616.858 66.025H627.208ZM620.933 60.275C623.358 60.275 624.733 62.175 624.808 64.075H616.883C617.083 61.375 618.933 60.275 620.933 60.275ZM645.167 72H647.442V58.55H645.167L638.217 68.7V58.55H635.942V72H638.217L645.167 61.85V72ZM656.748 58.325C652.773 58.325 650.248 61.3 650.248 65.3C650.248 69.4 652.648 72.325 656.523 72.325C659.673 72.325 662.048 70.15 662.523 67.625H660.173C659.848 69.025 658.523 70.325 656.598 70.325C654.598 70.325 652.723 68.675 652.723 65.275C652.723 61.9 654.598 60.325 656.598 60.325C658.373 60.325 659.748 61.45 660.073 63.05H662.373C662.048 60.75 660.048 58.325 656.748 58.325ZM674.7 60.525V58.55H663.225V60.525H667.825V72H670.1V60.525H674.7ZM677.992 65.325C677.992 61.65 679.942 60.325 682.017 60.325C684.092 60.325 686.042 61.725 686.042 65.325C686.042 68.775 684.092 70.325 682.017 70.325C679.942 70.325 677.992 68.925 677.992 65.325ZM682.017 58.325C678.892 58.325 675.567 60.45 675.567 65.325C675.567 70.2 678.892 72.325 682.017 72.325C685.142 72.325 688.467 70.2 688.467 65.325C688.467 60.45 685.142 58.325 682.017 58.325ZM691.313 58.55V76.375H693.588V69.975C694.413 71.4 695.813 72.325 697.988 72.325C701.088 72.325 703.738 69.8 703.738 65.325C703.738 60.925 701.088 58.325 697.988 58.325C695.813 58.325 694.413 59.25 693.588 60.675V58.55H691.313ZM693.488 65.325C693.488 61.775 695.388 60.275 697.413 60.275C699.738 60.275 701.263 62.1 701.263 65.325C701.263 68.55 699.738 70.375 697.413 70.375C695.388 70.375 693.488 68.875 693.488 65.325ZM715.772 72H718.047V58.55H715.772L708.822 68.7V58.55H706.547V72H708.822L715.772 61.85V72ZM733.654 66.025C733.929 61.75 731.504 58.325 727.379 58.325C723.704 58.325 720.854 61.025 720.854 65.3C720.854 69.275 723.204 72.325 727.454 72.325C730.729 72.325 732.879 70.4 733.479 68.1H731.129C730.554 69.425 729.454 70.325 727.454 70.325C725.479 70.325 723.379 68.925 723.304 66.025H733.654ZM727.379 60.275C729.804 60.275 731.179 62.175 731.254 64.075H723.329C723.529 61.375 725.379 60.275 727.379 60.275ZM744.504 53.875C744.404 54.675 743.779 55.4 742.304 55.4C740.829 55.4 740.229 54.675 740.129 53.875H738.354C738.479 55.375 739.529 56.9 742.279 56.9C745.129 56.9 746.079 55.375 746.279 53.875H744.504ZM745.679 72H747.954V58.55H745.679L738.729 68.7V58.55H736.454V72H738.729L745.679 61.85V72ZM493.482 101H495.757V87.55H493.482L486.532 97.7V87.55H484.257V101H486.532L493.482 90.85V101ZM505.063 87.325C501.088 87.325 498.563 90.3 498.563 94.3C498.563 98.4 500.963 101.325 504.838 101.325C507.988 101.325 510.363 99.15 510.838 96.625H508.488C508.163 98.025 506.838 99.325 504.913 99.325C502.913 99.325 501.038 97.675 501.038 94.275C501.038 90.9 502.913 89.325 504.913 89.325C506.688 89.325 508.063 90.45 508.388 92.05H510.688C510.363 89.75 508.363 87.325 505.063 87.325ZM522.179 101H525.004L519.404 93.9L524.479 87.55H521.779L517.504 93.05H515.829V87.55H513.529V101H515.829V95.025H517.554L522.179 101ZM526.377 105.375H527.552C530.577 105.375 531.227 104.475 532.227 101.575L537.027 87.55H534.652L531.327 97.925L527.902 87.55H525.377L530.227 101L530.127 101.275C529.527 103.375 528.802 103.475 527.302 103.475H526.377V105.375ZM544.272 87.325C540.297 87.325 537.772 90.3 537.772 94.3C537.772 98.4 540.172 101.325 544.047 101.325C547.197 101.325 549.572 99.15 550.047 96.625H547.697C547.372 98.025 546.047 99.325 544.122 99.325C542.122 99.325 540.247 97.675 540.247 94.275C540.247 90.9 542.122 89.325 544.122 89.325C545.897 89.325 547.272 90.45 547.597 92.05H549.897C549.572 89.75 547.572 87.325 544.272 87.325ZM558.311 87.325C554.336 87.325 551.811 90.3 551.811 94.3C551.811 98.4 554.211 101.325 558.086 101.325C561.236 101.325 563.611 99.15 564.086 96.625H561.736C561.411 98.025 560.086 99.325 558.161 99.325C556.161 99.325 554.286 97.675 554.286 94.275C554.286 90.9 556.161 89.325 558.161 89.325C559.936 89.325 561.311 90.45 561.636 92.05H563.936C563.611 89.75 561.611 87.325 558.311 87.325ZM576.262 89.525V87.55H564.787V89.525H569.387V101H571.662V89.525H576.262ZM578.569 87.55V101H584.819C587.694 101 589.869 99.875 589.869 97.075C589.869 95.275 588.844 94.325 587.444 93.925C588.694 93.4 589.319 92.4 589.319 90.975C589.319 88.25 587.119 87.55 584.419 87.55H578.569ZM580.844 93.2V89.525H584.194C585.894 89.525 586.944 89.825 586.944 91.225C586.944 92.75 585.944 93.2 584.269 93.2H580.844ZM580.844 95.075H584.394C586.494 95.075 587.494 95.55 587.494 97.05C587.494 98.45 586.469 99.025 584.469 99.025H580.844V95.075ZM613.816 95.225V93.075H597.341V95.225H613.816ZM621.315 96.5C622.065 99.8 624.59 101.325 627.515 101.325C631.59 101.325 633.815 98.475 633.815 94.3C633.815 90.1 631.39 87.25 627.44 87.25C624.515 87.25 622.04 88.925 621.44 92.1H623.69C624.165 90.3 625.49 89.25 627.365 89.25C629.54 89.25 631.14 90.725 631.415 93.225H625.49V95.2H631.415C631.215 98 629.365 99.325 627.39 99.325C625.29 99.325 623.965 98.1 623.59 96.5H621.315ZM646.111 89.525V87.55H634.636V89.525H639.236V101H641.511V89.525H646.111ZM649.403 94.325C649.403 90.65 651.353 89.325 653.428 89.325C655.503 89.325 657.453 90.725 657.453 94.325C657.453 97.775 655.503 99.325 653.428 99.325C651.353 99.325 649.403 97.925 649.403 94.325ZM653.428 87.325C650.303 87.325 646.978 89.45 646.978 94.325C646.978 99.2 650.303 101.325 653.428 101.325C656.553 101.325 659.878 99.2 659.878 94.325C659.878 89.45 656.553 87.325 653.428 87.325ZM679.856 101V87.55H677.581V93.15H670.931V87.55H668.656V101H670.931V95.125H677.581V101H679.856ZM695.446 95.025C695.721 90.75 693.296 87.325 689.171 87.325C685.496 87.325 682.646 90.025 682.646 94.3C682.646 98.275 684.996 101.325 689.246 101.325C692.521 101.325 694.671 99.4 695.271 97.1H692.921C692.346 98.425 691.246 99.325 689.246 99.325C687.271 99.325 685.171 97.925 685.096 95.025H695.446ZM689.171 89.275C691.596 89.275 692.971 91.175 693.046 93.075H685.121C685.321 90.375 687.171 89.275 689.171 89.275ZM703.379 105.375H704.554C707.579 105.375 708.229 104.475 709.229 101.575L714.029 87.55H711.654L708.329 97.925L704.904 87.55H702.379L707.229 101L707.129 101.275C706.529 103.375 705.804 103.475 704.304 103.475H703.379V105.375ZM727.269 101V87.55H724.994V93.15H718.344V87.55H716.069V101H718.344V95.125H724.994V101H727.269ZM735.958 101C739.033 101 741.008 99.875 741.008 96.55C741.008 93.675 739.483 92.3 735.983 92.3H733.383V87.55H731.108V101H735.958ZM733.383 94.275H735.683C737.783 94.275 738.783 94.75 738.783 96.55C738.783 98.375 737.758 99.025 735.758 99.025H733.383V94.275ZM745.508 101V87.55H743.233V101H745.508ZM759.994 87.55H751.019L750.819 92.15C750.544 97.725 749.394 99.025 748.194 99.025H747.944V101H748.369C751.494 101 752.669 98.2 752.994 92.775L753.194 89.525H757.719V101H759.994V87.55ZM765.272 94.325C765.272 90.65 767.222 89.325 769.297 89.325C771.372 89.325 773.322 90.725 773.322 94.325C773.322 97.775 771.372 99.325 769.297 99.325C767.222 99.325 765.272 97.925 765.272 94.325ZM769.297 87.325C766.172 87.325 762.847 89.45 762.847 94.325C762.847 99.2 766.172 101.325 769.297 101.325C772.422 101.325 775.747 99.2 775.747 94.325C775.747 89.45 772.422 87.325 769.297 87.325ZM570.753 130H573.028V116.55H570.753L563.803 126.7V116.55H561.528V130H563.803L570.753 119.85V130ZM594.017 130V116.55H591.742V122.15H585.092V116.55H582.817V130H585.092V124.125H591.742V130H594.017ZM609.606 124.025C609.881 119.75 607.456 116.325 603.331 116.325C599.656 116.325 596.806 119.025 596.806 123.3C596.806 127.275 599.156 130.325 603.406 130.325C606.681 130.325 608.831 128.4 609.431 126.1H607.081C606.506 127.425 605.406 128.325 603.406 128.325C601.431 128.325 599.331 126.925 599.256 124.025H609.606ZM603.331 118.275C605.756 118.275 607.131 120.175 607.206 122.075H599.281C599.481 119.375 601.331 118.275 603.331 118.275ZM623.789 116.325C619.814 116.325 617.289 119.3 617.289 123.3C617.289 127.4 619.689 130.325 623.564 130.325C626.714 130.325 629.089 128.15 629.564 125.625H627.214C626.889 127.025 625.564 128.325 623.639 128.325C621.639 128.325 619.764 126.675 619.764 123.275C619.764 119.9 621.639 118.325 623.639 118.325C625.414 118.325 626.789 119.45 627.114 121.05H629.414C629.089 118.75 627.089 116.325 623.789 116.325ZM640.905 130H643.73L638.13 122.9L643.205 116.55H640.505L636.23 122.05H634.555V116.55H632.255V130H634.555V124.025H636.28L640.905 130ZM645.103 134.375H646.278C649.303 134.375 649.953 133.475 650.953 130.575L655.753 116.55H653.378L650.053 126.925L646.628 116.55H644.103L648.953 130L648.853 130.275C648.253 132.375 647.528 132.475 646.028 132.475H645.103V134.375ZM667.692 130V116.55H665.417V122.675C664.167 122.975 663.117 123.125 662.242 123.125C660.342 123.125 659.392 122.45 659.392 120.45V116.55H657.117V120.925C657.117 123.85 658.592 125.1 661.417 125.1C662.642 125.1 663.842 124.925 665.417 124.55V130H667.692ZM682.737 130V116.55H680.462V122.15H673.812V116.55H671.537V130H673.812V124.125H680.462V130H682.737ZM688.001 123.325C688.001 119.65 689.951 118.325 692.026 118.325C694.101 118.325 696.051 119.725 696.051 123.325C696.051 126.775 694.101 128.325 692.026 128.325C689.951 128.325 688.001 126.925 688.001 123.325ZM692.026 116.325C688.901 116.325 685.576 118.45 685.576 123.325C685.576 128.2 688.901 130.325 692.026 130.325C695.151 130.325 698.476 128.2 698.476 123.325C698.476 118.45 695.151 116.325 692.026 116.325Z" fill="black"/>
<rect x="0.5" y="0.5" width="428" height="205" rx="9.5" stroke="black"/>
<rect x="471.5" y="0.5" width="317" height="205" rx="9.5" stroke="black"/>
<rect x="830.5" y="0.5" width="428" height="205" rx="9.5" stroke="black"/>
</svg>
